<?xml version="1.0" encoding="utf-8"?>
<!-- Generator: Adobe Illustrator 22.0.0, SVG Export Plug-In . SVG Version: 6.00 Build 0)  -->
<svg version="1.1" id="图层_1" xmlns="http://www.w3.org/2000/svg" xmlns:xlink="http://www.w3.org/1999/xlink" x="0px" y="0px"
	 viewBox="0 0 220 190.7" style="enable-background:new 0 0 220 190.7;" xml:space="preserve">
<style type="text/css">
	.st0{opacity:0.5;fill:#076D6D;}
	.st1{fill:#BCBCBC;}
	.st2{fill:#D3D3D3;}
	.st3{fill:#0B4656;}
	.st4{fill:#063444;}
	.st5{fill:#4DE4E8;}
	.st6{fill:#0FB1B5;}
	.st7{fill:#1CC6C6;}
	.st8{fill:#FFDC79;}
	.st9{fill:#FE5C99;}
	.st10{fill:#FFFFFF;}
	.st11{fill:#EAEAEA;}
	.st12{fill:#DBDBDB;}
	.st13{fill:#EDEDED;}
	.st14{fill:#81C5E8;}
	.st15{fill:#394356;}
	.st16{fill:#485366;}
	.st17{fill:#6A7384;}
	.st18{opacity:0.2;fill:#FFFFFF;}
	.st19{opacity:0.4;fill:#FFFFFF;}
	.st20{fill:#FFE6A6;}
	.st21{fill:#252343;}
	.st22{fill:#666490;}
	.st23{fill:#E5E5E5;}
	.st24{fill:#E83D83;}
	.st25{fill:#EFC356;}
	.st26{fill:#00E0C1;}
	.st27{fill:#02F5D0;}
	.st28{fill:#48D7E5;}
	.st29{fill:#E0F9FE;}
	.st30{fill:#011A5F;}
	.st31{fill:#C5EAEF;}
	.st32{opacity:0.3;fill:#C9D4FE;}
	.st33{opacity:0.1;fill:#FFFFFF;}
	.st34{fill:#73AAE0;}
	.st35{fill:#ACD3FF;}
	.st36{fill:#8BA6FC;}
	.st37{fill:#C9D4FE;}
	.st38{fill:#779A0A;}
	.st39{fill:#C3D600;}
	.st40{fill:#FFD05A;}
	.st41{opacity:0.5;fill:#2D605D;}
	.st42{fill:#B2CFD1;}
	.st43{fill:#EDF4F4;}
	.st44{fill:#EBF6F7;}
	.st45{fill:#D1E4E5;}
	.st46{fill:#B7E3E5;}
	.st47{opacity:0.1;fill:url(#SVGID_1_);}
	.st48{fill:#B0F4F4;}
</style>
<g>
	<path class="st0" d="M64.5,134.9l-33.4,20.5c-0.2,0.1-0.2,0.5,0,0.6l0.8,0.5c0.4,0.3,1,0.3,1.4,0l33.1-20.3c0.2-0.1,0.2-0.5,0-0.6
		l-1-0.6C65.1,134.7,64.7,134.7,64.5,134.9z"/>
	<g>
		<g>
			<path class="st1" d="M49.6,84.7L49.2,85c-0.6,0.3-1,0-0.8-0.6l0,0l0,0c0.1-0.3,0-0.6-0.4-0.7c-0.1,0-0.3,0-0.5,0.1
				c-0.5,0.3-0.9,0.9-0.9,1.4c0,0.1,0,0.1,0,0.2l0,0l0,0c0.2,0.5-0.3,1.3-0.8,1.6l-0.4,0.2c-0.4,0.3-0.8,0.8-0.8,1.3v0.2l5.8-3.5V85
				C50.4,84.6,50,84.5,49.6,84.7z M47.5,85.1C47.2,85.3,47,85.2,47,85c0-0.3,0.2-0.6,0.5-0.8c0.3-0.2,0.5-0.1,0.5,0.2
				C47.9,84.6,47.7,85,47.5,85.1z"/>
			<path class="st2" d="M54.6,84.7l-14.2,8.5v-0.4c0-1.1,0.9-2.5,2-3.1l10.3-6.2c1.1-0.7,2-0.3,2,0.8V84.7z"/>
		</g>
		<g>
			<path class="st3" d="M64.2,79.5L63,79l0,0c-0.2-0.1-0.5-0.1-0.7,0.1L30.3,98.8c-0.5,0.3-0.9,0.9-0.9,1.6v52.2
				c0,0.3,0.2,0.6,0.5,0.8h0l0,0c0.1,0,0.1,0.1,0.2,0.1l1.1,0.4l-0.1-0.7l31.7-19.5c0.5-0.3,0.8-0.9,0.8-1.5L64.2,79.5z"/>
			<path class="st4" d="M64.6,80.2v52.5c0,0.6-0.3,1.2-0.8,1.5l-31.9,19.6c-0.6,0.4-1.4-0.1-1.4-0.8v-52c0-0.7,0.4-1.4,1-1.8
				l31.9-19.6C64,79.2,64.6,79.6,64.6,80.2z"/>
			<path class="st5" d="M63.5,81.5v50.9c0,0.2-0.1,0.4-0.3,0.6l-31,19.1c-0.2,0.1-0.5,0-0.5-0.3V101c0-0.3,0.2-0.6,0.5-0.8L63,81.2
				C63.2,81.1,63.5,81.3,63.5,81.5z"/>
		</g>
		<g>
			<path class="st6" d="M45.9,95v19c0,0.1,0,0.2-0.1,0.2l-11.6,7.1c-0.1,0-0.2,0-0.2-0.1v-18.9c0-0.1,0.1-0.2,0.2-0.3l11.5-7.1
				C45.8,94.8,45.9,94.9,45.9,95z"/>
			<path class="st6" d="M45.9,117.5v1.8c0,0.1,0,0.2-0.1,0.2l-11.6,7.1c-0.1,0-0.2,0-0.2-0.1v-1.8c0-0.1,0.1-0.2,0.2-0.3l11.5-7.1
				C45.8,117.3,45.9,117.4,45.9,117.5z"/>
			<path class="st7" d="M44.7,111.5v1.4c0,0.1,0,0.1-0.1,0.2l-9.2,5.7c-0.1,0-0.1,0-0.1-0.1v-1.4c0-0.1,0.1-0.2,0.1-0.2l9.1-5.6
				C44.6,111.4,44.7,111.4,44.7,111.5z"/>
			<path class="st6" d="M45.9,121.3v1.8c0,0.1,0,0.2-0.1,0.2l-11.6,7.1c-0.1,0-0.2,0-0.2-0.1v-1.8c0-0.1,0.1-0.2,0.2-0.3l11.5-7.1
				C45.8,121.1,45.9,121.2,45.9,121.3z"/>
			<path class="st6" d="M43.2,126.7v1.8c0,0.1,0,0.2-0.1,0.2l-8.9,5.5c-0.1,0-0.2,0-0.2-0.1v-1.8c0-0.1,0.1-0.2,0.2-0.3l8.9-5.4
				C43.1,126.5,43.2,126.6,43.2,126.7z"/>
			<path class="st6" d="M58.5,115.2v1.8c0,0.1,0,0.2-0.1,0.2l-8.9,5.5c-0.1,0-0.2,0-0.2-0.1v-1.8c0-0.1,0.1-0.2,0.2-0.3l8.9-5.4
				C58.4,115,58.5,115,58.5,115.2z"/>
			<path class="st6" d="M58.5,120.5v1.8c0,0.1,0,0.2-0.1,0.2l-8.9,5.5c-0.1,0-0.2,0-0.2-0.1v-1.8c0-0.1,0.1-0.2,0.2-0.3l8.9-5.4
				C58.4,120.3,58.5,120.4,58.5,120.5z"/>
			<path class="st6" d="M45.9,128.8v1.8c0,0.1,0,0.2-0.1,0.2l-11.6,7.1c-0.1,0-0.2,0-0.2-0.1v-1.8c0-0.1,0.1-0.2,0.2-0.3l11.5-7.1
				C45.8,128.7,45.9,128.7,45.9,128.8z"/>
			<path class="st6" d="M37.8,140.3v2.6c0,0.1-0.1,0.2-0.2,0.3l-2.5,1.5c-0.1,0.1-0.2,0-0.2-0.1V142c0-0.2,0.1-0.3,0.2-0.4l2.3-1.4
				C37.6,140,37.8,140.1,37.8,140.3z"/>
			<path class="st8" d="M41.8,137.8v2.6c0,0.1-0.1,0.2-0.2,0.3l-2.5,1.5c-0.1,0.1-0.2,0-0.2-0.1v-2.6c0-0.2,0.1-0.3,0.2-0.4l2.3-1.4
				C41.7,137.6,41.8,137.7,41.8,137.8z"/>
			<path class="st9" d="M45.9,135.3v2.6c0,0.1-0.1,0.2-0.2,0.3l-2.5,1.5c-0.1,0.1-0.2,0-0.2-0.1V137c0-0.2,0.1-0.3,0.2-0.4l2.3-1.4
				C45.7,135.1,45.9,135.2,45.9,135.3z"/>
			<path class="st6" d="M56.5,88.6v0.7c0,0.1,0,0.2-0.1,0.2l-7.7,4.8c-0.1,0-0.2,0-0.2-0.1v-0.7c0-0.1,0.1-0.2,0.2-0.3l7.7-4.7
				C56.4,88.4,56.5,88.5,56.5,88.6z"/>
			<path class="st6" d="M53.6,92.4v0.7c0,0.1,0,0.2-0.1,0.2l-4.9,3c-0.1,0-0.2,0-0.2-0.1v-0.7c0-0.1,0.1-0.2,0.2-0.3l4.8-3
				C53.5,92.2,53.6,92.3,53.6,92.4z"/>
			<path class="st6" d="M60.3,90.3V91c0,0.1,0,0.2-0.1,0.2l-11.6,7.1c-0.1,0-0.2,0-0.2-0.1v-0.7c0-0.1,0.1-0.2,0.2-0.3l11.5-7.1
				C60.2,90.1,60.3,90.2,60.3,90.3z"/>
			<path class="st6" d="M59.3,92.9v0.7c0,0.1,0,0.2-0.1,0.2l-10.5,6.5c-0.1,0-0.2,0-0.2-0.1v-0.7c0-0.1,0.1-0.2,0.2-0.3l10.5-6.4
				C59.2,92.8,59.3,92.8,59.3,92.9z"/>
			<path class="st6" d="M54.7,97.8v0.7c0,0.1,0,0.2-0.1,0.2l-5.9,3.7c-0.1,0-0.2,0-0.2-0.1v-0.7c0-0.1,0.1-0.2,0.2-0.3l5.9-3.6
				C54.6,97.6,54.7,97.7,54.7,97.8z"/>
			<path class="st6" d="M60.3,96.4v0.7c0,0.1,0,0.2-0.1,0.2l-11.6,7.1c-0.1,0-0.2,0-0.2-0.1v-0.7c0-0.1,0.1-0.2,0.2-0.3l11.5-7.1
				C60.2,96.2,60.3,96.3,60.3,96.4z"/>
			<path class="st6" d="M60.3,98.4v0.7c0,0.1,0,0.2-0.1,0.2l-11.6,7.1c-0.1,0-0.2,0-0.2-0.1v-0.7c0-0.1,0.1-0.2,0.2-0.3l11.5-7.1
				C60.2,98.2,60.3,98.3,60.3,98.4z"/>
			<path class="st6" d="M57.5,102.1v0.7c0,0.1,0,0.2-0.1,0.2l-8.8,5.4c-0.1,0-0.2,0-0.2-0.1v-0.7c0-0.1,0.1-0.2,0.2-0.3l8.7-5.3
				C57.4,102,57.5,102,57.5,102.1z"/>
			<path class="st6" d="M60.3,102.4v0.7c0,0.1,0,0.2-0.1,0.2l-11.6,7.1c-0.1,0-0.2,0-0.2-0.1v-0.7c0-0.1,0.1-0.2,0.2-0.3l11.5-7.1
				C60.2,102.3,60.3,102.3,60.3,102.4z"/>
			<path class="st6" d="M60.3,104.5v0.7c0,0.1,0,0.2-0.1,0.2l-11.6,7.1c-0.1,0-0.2,0-0.2-0.1v-0.7c0-0.1,0.1-0.2,0.2-0.3l11.5-7.1
				C60.2,104.3,60.3,104.4,60.3,104.5z"/>
			<g>
				<path class="st10" d="M41.9,103.3c0,1.1-0.9,3.3-1.9,3.9c-1.1,0.7-1.9-0.4-1.9-1.5c0-1.1,0.9-2.5,1.9-3.2
					C41,101.9,41.9,102.2,41.9,103.3z"/>
				<path class="st10" d="M44.7,109.3v0.3l-9.4,5.9v-0.3c0-2.6,2.1-6,4.7-7.7c1.3-0.8,2.5-1,3.3-0.7C44.1,107.2,44.7,108,44.7,109.3
					z"/>
			</g>
			<g>
				<path class="st10" d="M55.5,85.1l-14.2,8.5v-0.4c0-1.1,0.9-2.5,2-3.1L53.6,84c1.1-0.7,2-0.3,2,0.8V85.1z"/>
				<path class="st11" d="M50.6,85.2l-0.4,0.2c-0.6,0.3-1,0-0.8-0.6l0,0l0,0c0.1-0.3,0-0.6-0.4-0.7c-0.1,0-0.3,0-0.5,0.1
					c-0.5,0.3-0.9,0.9-0.9,1.4c0,0.1,0,0.1,0,0.2l0,0l0,0c0.2,0.5-0.3,1.3-0.8,1.6l-0.4,0.2c-0.4,0.3-0.8,0.8-0.8,1.3v0.2l5.8-3.5
					v-0.2C51.4,85.1,51,84.9,50.6,85.2z M48.4,85.6c-0.3,0.2-0.5,0.1-0.5-0.2c0-0.3,0.2-0.6,0.5-0.8c0.3-0.2,0.5-0.1,0.5,0.2
					C48.9,85.1,48.7,85.4,48.4,85.6z"/>
			</g>
			<path class="st6" d="M60.3,94.3V95c0,0.1,0,0.2-0.1,0.2l-4.8,3c-0.1,0-0.2,0-0.2-0.1v-0.7c0-0.1,0.1-0.2,0.2-0.3l4.7-2.9
				C60.2,94.2,60.3,94.2,60.3,94.3z"/>
		</g>
	</g>
</g>
<g>
	<path class="st0" d="M201.6,108.4c0.1-0.1,0.1-0.3,0-0.4l-15.4-9.5c0,0,0,0,0,0c0,0,0,0,0,0l-0.1-0.1c0,0-0.1,0-0.1,0
		c-0.2-0.1-0.3-0.1-0.5-0.1c-0.3,0-0.6,0-0.9,0.2l-2.3-1.5c1.2-1,2-2.2,2-3.6l0.1-1.9c0.1-3.6-4.8-6.6-10.9-6.8
		c-6.1-0.2-11.1,2.5-11.2,6.1l0,0v0.1c0,0,0,0,0,0l-0.1,1.9c0,0,0,0,0,0l0,0.3l0,0c0.2,3.4,4.9,6.3,10.9,6.5
		c2.5,0.1,4.9-0.4,6.8-1.2c0,0,0.1,0.1,0.1,0.1c0.1,0,0.1,0.1,0.2,0.1l3.1,1.9c0,0.3,0,0.7,0.1,1c0.1,0.3,0.3,0.5,0.5,0.7
		c0.1,0.1,0.2,0.1,0.3,0.2l13.2,8.1c0.3,0.2,0.6,0.2,0.8,0C199,109.9,200.9,108.8,201.6,108.4z"/>
	<path class="st12" d="M184.6,86.2l-2.6-2.7l-7.5-1.9l-7.6,1.4l-2.8,2.6l-0.7,1.6l1.1,0.4c0,0,1.3-5.2,10-4.9
		c8.7,0.3,9.7,5.5,9.7,5.5l1.1-0.3L184.6,86.2z"/>
	<path class="st13" d="M185.2,88.5c-0.4-1-1.2-1.9-2.2-2.6c0.5,0.7,0.8,1.5,0.8,2.3c-0.1,3.1-4.5,5.6-9.9,5.4
		c-5.4-0.2-9.6-2.8-9.5-6c0-0.8,0.3-1.6,0.9-2.3c-1.2,0.8-2,1.7-2.5,2.8l-0.3-0.6l-0.1,2.1c0,0,0,0,0,0c0,0,0,0,0,0l0,0.3l0,0
		c0.2,3.6,5.1,6.6,11.3,6.8c6.4,0.2,11.6-2.7,11.7-6.4l0.1-2L185.2,88.5z"/>
	<path class="st14" d="M174.3,81.1c-6.4-0.2-11.6,2.7-11.7,6.4c0,0.3,0,0.7,0.1,1c0.7,3.3,5.4,5.9,11.2,6.1
		c5.8,0.2,10.6-2.2,11.6-5.4c0.1-0.3,0.1-0.7,0.2-1C185.7,84.5,180.6,81.3,174.3,81.1z M173.9,93.6c-5.4-0.2-9.6-2.8-9.5-6
		c0-0.8,0.3-1.6,0.9-2.3c1.6-2,5-3.2,9-3.1c4,0.1,7.3,1.6,8.8,3.6c0.5,0.7,0.8,1.5,0.8,2.3C183.7,91.3,179.2,93.7,173.9,93.6z"/>
	<path class="st10" d="M174.3,81.1c-6.4-0.2-11.6,2.7-11.7,6.4c0,0.3,0,0.7,0.1,1c0.7,3.3,5.4,5.9,11.2,6.1
		c5.8,0.2,10.6-2.2,11.6-5.4c0.1-0.3,0.1-0.7,0.2-1C185.7,84.5,180.6,81.3,174.3,81.1z M173.9,93.6c-5.4-0.2-9.6-2.8-9.5-6
		c0-0.8,0.3-1.6,0.9-2.3c1.6-2,5-3.2,9-3.1c4,0.1,7.3,1.6,8.8,3.6c0.5,0.7,0.8,1.5,0.8,2.3C183.7,91.3,179.2,93.7,173.9,93.6z"/>
	<path class="st13" d="M187,96.2l-0.2,0.3c0,0,0,0,0,0l-1,1.5l-0.3,0.4l-4.3-2.7l0,0c-0.1,0-0.1-0.1-0.2-0.1
		c-0.1-0.1-0.2-0.2-0.3-0.4c0-0.1-0.1-0.2-0.1-0.3l0,0c0-0.3,0-0.6,0.1-0.9c0.2-0.4,0.4-0.6,0.7-0.7c0.2-0.1,0.3-0.1,0.5-0.1
		c0.1,0,0.2,0,0.3,0.1c0,0,0,0,0,0l0.1,0c0,0,0,0,0,0L187,96.2z"/>
	<path class="st10" d="M187,96.2l-0.2,0.3c0,0,0,0,0,0l-5.2-3.2c0.2-0.1,0.3-0.1,0.5-0.1c0.1,0,0.2,0,0.3,0.1c0,0,0,0,0,0l0.1,0
		c0,0,0,0,0,0L187,96.2z"/>
	<path class="st12" d="M185.7,98l-0.3,0.4l-4.3-2.7l0,0c-0.1,0-0.1-0.1-0.2-0.1c-0.1-0.1-0.2-0.2-0.3-0.4c0-0.1-0.1-0.2-0.1-0.3
		L185.7,98z"/>
	<path class="st15" d="M200.7,103.8l-0.6,1.1l-1.6,2.8l-13.2-8.1c0,0,0,0,0,0l0,0c-0.1,0-0.2-0.1-0.3-0.2c-0.2-0.2-0.4-0.4-0.5-0.7
		c-0.2-0.6-0.2-1.3,0.1-2c0.1-0.3,0.3-0.5,0.4-0.7c0,0,0,0,0,0c0.5-0.5,1.1-0.8,1.7-0.7c0.2,0,0.3,0.1,0.5,0.1c0,0,0.1,0,0.1,0
		l0.1,0.1c0,0,0,0,0,0c0,0,0,0,0,0L200.7,103.8z"/>
	<path class="st16" d="M200.7,103.8l-0.6,1.1l-1.6-0.5l-13.4-8.3c0,0,0,0,0,0c0,0,0,0,0,0c0.5-0.5,1.1-0.8,1.7-0.7
		c0.2,0,0.3,0.1,0.5,0.1c0,0,0.1,0,0.1,0l0.1,0.1c0,0,0,0,0,0c0,0,0,0,0,0L200.7,103.8z"/>
	<path class="st17" d="M201.4,106.6c-0.5,1.1-1.7,1.7-2.6,1.3l0,0c-0.1,0-0.2-0.1-0.3-0.2c-0.2-0.2-0.4-0.4-0.5-0.7
		c-0.2-0.6-0.2-1.3,0.1-2c0.5-0.9,1.3-1.5,2.1-1.4c0.2,0,0.3,0.1,0.5,0.1c0,0,0.1,0,0.1,0l0.1,0.1c0,0,0,0,0,0
		C201.7,104.4,201.9,105.6,201.4,106.6z"/>
	<path class="st18" d="M183.4,88.2c-0.1,3-4.3,5.2-9.5,5.1c-5.2-0.2-9.3-2.7-9.2-5.6c0.1-3,4.3-5.2,9.5-5.1
		C179.4,82.7,183.5,85.2,183.4,88.2z"/>
	<path class="st18" d="M179.4,83.6c-9.3,0.2-12,4.8-12.8,7.4c-1.2-0.9-1.9-2.1-1.8-3.3c0.1-3,4.3-5.2,9.5-5.1
		C176.1,82.6,177.9,83,179.4,83.6z"/>
	<path class="st19" d="M182.9,88.2c-0.1,2.8-4.1,5-9,4.8c-4.9-0.1-8.8-2.5-8.7-5.3c0-0.1,0-0.2,0-0.2c0.3,2.6,4,4.8,8.7,4.9
		c4.7,0.1,8.7-1.9,9-4.6C182.9,87.9,182.9,88.1,182.9,88.2z"/>
</g>
<g>
	<path class="st0" d="M52.2,161.4l-4.2-1.5c-0.1,0-0.2,0.1-0.1,0.1l1.5,2.7c0.2,0.3,0.4,0.5,0.6,0.6l24.1,14.9
		c0.1,0.1,0.3,0.1,0.4,0l2.3-1.4c0.1-0.1,0.1-0.2,0-0.3l-24.2-15C52.5,161.5,52.4,161.4,52.2,161.4z"/>
	<g>
		<g>
			<path class="st8" d="M51.8,159.2l-0.3,0.5l-1.1,2l-2.6-3.1c0-0.1,0-0.1,0-0.1c0,0,0,0,0.1,0L51.8,159.2z"/>
			<g>
				<path class="st20" d="M51.8,159.2l-0.3,0.5l-0.9,0l-2.8-1.2c0,0,0,0,0.1,0L51.8,159.2z"/>
			</g>
		</g>
		<g>
			<path class="st21" d="M75.7,173.8l-0.4,0.7l-1.1,1.9l-23.4-14.5c0,0,0,0,0,0l0,0c-0.1,0-0.1-0.1-0.2-0.1
				c-0.2-0.1-0.3-0.3-0.3-0.5c-0.1-0.4-0.1-0.8,0.1-1.3c0.1-0.2,0.2-0.3,0.3-0.4c0,0,0,0,0,0c0.3-0.3,0.7-0.5,1.1-0.5
				c0.1,0,0.2,0,0.3,0.1c0,0,0,0,0.1,0l0.1,0c0,0,0,0,0,0c0,0,0,0,0,0L75.7,173.8z"/>
			<path class="st22" d="M75.7,173.8l-0.4,0.7l-1-0.3l-23.5-14.6c0,0,0,0,0,0c0,0,0,0,0,0c0.3-0.3,0.7-0.5,1.1-0.5
				c0.1,0,0.2,0,0.3,0.1c0,0,0,0,0.1,0l0.1,0c0,0,0,0,0,0c0,0,0,0,0,0L75.7,173.8z"/>
			<path class="st9" d="M76.1,175.7c-0.4,0.7-1.1,1.1-1.7,0.8l0,0c-0.1,0-0.1-0.1-0.2-0.1c-0.2-0.1-0.3-0.3-0.3-0.5
				c-0.1-0.4-0.1-0.8,0.1-1.3c0.3-0.6,0.9-1,1.4-0.9c0.1,0,0.2,0,0.3,0.1c0,0,0,0,0.1,0l0.1,0c0,0,0,0,0,0
				C76.3,174.3,76.4,175,76.1,175.7z"/>
			<path class="st23" d="M71.7,171.4l2,1.2c0,0,0,0,0,0c-0.1,0-0.2-0.1-0.3-0.1c-0.4,0-0.8,0.1-1.1,0.5c-0.1,0.1-0.2,0.3-0.3,0.4
				c-0.2,0.4-0.2,0.9-0.1,1.3c0.1,0.1,0.1,0.3,0.2,0.4c0,0,0.1,0.1,0.1,0.1l-1.9-1.2c0,0-0.1-0.1-0.1-0.1c-0.1-0.1-0.3-0.3-0.3-0.5
				c-0.1-0.4-0.1-0.8,0.1-1.3c0.1-0.2,0.2-0.3,0.3-0.4c0.3-0.3,0.7-0.5,1.1-0.5C71.4,171.3,71.5,171.3,71.7,171.4
				C71.7,171.4,71.7,171.4,71.7,171.4z"/>
			<path class="st10" d="M73.7,172.6C73.7,172.6,73.7,172.6,73.7,172.6C73.7,172.6,73.7,172.6,73.7,172.6L73.7,172.6z"/>
			<path class="st24" d="M75.7,173.9c-0.1-0.1-0.2-0.1-0.3-0.1c-0.4,0-0.8,0.1-1.1,0.5c-0.1,0.1-0.2,0.3-0.3,0.4
				c-0.2,0.4-0.2,0.9-0.1,1.3c0.1,0.2,0.2,0.4,0.3,0.5l-1.9-1.2c0,0-0.1,0-0.1-0.1c0,0-0.1-0.1-0.1-0.1c-0.1-0.1-0.2-0.2-0.3-0.4
				c-0.1-0.4-0.1-0.8,0.1-1.3c0.1-0.2,0.2-0.3,0.3-0.4c0.3-0.3,0.7-0.5,1.1-0.5c0.1,0,0.2,0,0.3,0.1c0,0,0,0,0,0h0c0,0,0,0,0,0l0,0
				L75.7,173.9z"/>
		</g>
	</g>
</g>
<g>
	<g>
		<path class="st0" d="M103.9,176.1c0,1.5-2.4,2.8-5.4,2.8s-5.4-1.2-5.4-2.8c0-1.5,2.4-2.8,5.4-2.8S103.9,174.6,103.9,176.1z"/>
		<path class="st25" d="M93,171.6v2.8c0,1.5,2.4,2.8,5.4,2.8s5.4-1.2,5.4-2.8v-2.8H93z"/>
		<path class="st8" d="M103.9,171.6c0,1.5-2.4,2.8-5.4,2.8s-5.4-1.2-5.4-2.8s2.4-2.8,5.4-2.8S103.9,170,103.9,171.6z"/>
		<path class="st10" d="M100.9,171.6c0,0.7-1.1,1.2-2.4,1.2c-1.4,0-2.4-0.6-2.4-1.2s1.1-1.2,2.4-1.2
			C99.8,170.3,100.9,170.9,100.9,171.6z"/>
	</g>
	<g>
		<ellipse class="st0" cx="87.6" cy="182.7" rx="5.4" ry="2.8"/>
		<path class="st24" d="M82.2,178.1v2.8c0,1.5,2.4,2.8,5.4,2.8c3,0,5.4-1.2,5.4-2.8v-2.8H82.2z"/>
		<path class="st9" d="M93,178.1c0,1.5-2.4,2.8-5.4,2.8c-3,0-5.4-1.2-5.4-2.8c0-1.5,2.4-2.8,5.4-2.8C90.6,175.3,93,176.6,93,178.1z"
			/>
		<polygon class="st10" points="86.6,176 90.9,178.6 84.9,179.3 		"/>
	</g>
	<g>
		<path class="st0" d="M114.8,169.6c0,1.5-2.4,2.8-5.4,2.8s-5.4-1.2-5.4-2.8c0-1.5,2.4-2.8,5.4-2.8S114.8,168.1,114.8,169.6z"/>
		<path class="st26" d="M103.9,165v2.8c0,1.5,2.4,2.8,5.4,2.8c3,0,5.4-1.2,5.4-2.8V165H103.9z"/>
		<path class="st27" d="M114.8,165c0,1.5-2.4,2.8-5.4,2.8s-5.4-1.2-5.4-2.8c0-1.5,2.4-2.8,5.4-2.8S114.8,163.5,114.8,165z"/>
		<polygon class="st10" points="106,164.2 110.2,166.8 111.9,163.4 		"/>
	</g>
</g>
<g>
	<path class="st0" d="M185.4,141l-12.3-7.7l9.4-5.8c1-0.6,1-2.1,0-2.7l-48.3-29.7c-0.9-0.6-2.1-0.6-3,0l-60.6,37.3c-1,0.6-1,2,0,2.6
		l48.3,29.7c0.9,0.6,2.1,0.6,3,0l10.1-6.2l11.7,7.7L185.4,141z"/>
	<path class="st28" d="M136.1,33.4l-1.9-1.2l0,0c-0.4-0.3-1-0.4-1.5,0L72.3,69.4c-1.1,0.7-1.8,1.9-1.8,3.2v52.6c0,0.5,0.3,1,0.7,1.2
		l0,0l0.1,0.1c0,0,0,0,0,0l2.1,1.3c0,0,0.3-1.8,0.2-1.8c0,0,0,0-0.1,0l60-36.9c0.8-0.5,1.2-1.3,1.2-2.2v-53L136.1,33.4z"/>
	<path class="st29" d="M74.8,127.7l60.8-37.4c0.8-0.5,1.2-1.3,1.2-2.2V34.6c0-1.1-1.2-1.7-2.1-1.2L74.3,70.7
		c-1.1,0.7-1.8,1.9-1.8,3.2v52.6C72.6,127.6,73.9,128.3,74.8,127.7z"/>
	<path class="st30" d="M76.2,124.6l58.2-35.8c0.7-0.5,1.2-1.3,1.2-2.1V38.5c0-1-1.1-1.7-2-1.1L75.7,73c-1.1,0.6-1.7,1.8-1.7,3v47.3
		C74,124.5,75.2,125.2,76.2,124.6z"/>
	<path class="st28" d="M183.2,121.7L183.2,121.7l0-2.8h-3.4l-41.5-25.5c-0.9-0.6-2.1-0.6-3,0l-56.9,35l-4.5,0.6v2.9l0,0
		c0,0.5,0.2,1.1,0.7,1.4l44.2,27.1c0.9,0.6,2.1,0.6,3,0l60.6-37.3C183.1,122.9,183.3,122.3,183.2,121.7z"/>
	<path class="st29" d="M121.9,157.5l60.6-37.3c1-0.6,1-2.1,0-2.7l-44.2-27.1c-0.9-0.6-2.1-0.6-3,0l-60.6,37.3c-1,0.6-1,2,0,2.6
		l44.2,27.1C119.8,158.1,121,158.1,121.9,157.5z"/>
	<path class="st31" d="M110.4,144.5l50.9-31.3c0.9-0.5,0.9-1.8,0-2.4l-25.3-15.8c-0.8-0.5-1.8-0.5-2.6,0l-50.9,31.4
		c-0.9,0.5-0.9,1.8,0,2.4l25.3,15.8C108.5,145,109.5,145,110.4,144.5z"/>
	<path class="st13" d="M140.1,144.5l21.2-13.1c0.3-0.2,0.3-0.7,0-0.9l-12.3-7.7c-0.3-0.2-0.7-0.2-1,0l-21.2,13.1
		c-0.3,0.2-0.3,0.7,0,0.9l12.3,7.7C139.4,144.7,139.8,144.7,140.1,144.5z"/>
	<g>
		<path class="st28" d="M86.9,124.6c-0.1-0.1-0.2-0.1-0.3,0l-2.6,1.6l-0.3-0.1v0.4l0,0c0,0.1,0,0.1,0.1,0.1l3,1.9
			c0.1,0.1,0.2,0.1,0.3,0l2.9-1.8c0.1,0,0.1-0.1,0.1-0.1l0,0v-0.4L86.9,124.6z"/>
		<path class="st28" d="M91.2,122c-0.1-0.1-0.2-0.1-0.3,0l-2.6,1.6l-0.3-0.1v0.4l0,0c0,0.1,0,0.1,0.1,0.1l3,1.9
			c0.1,0.1,0.2,0.1,0.3,0l2.9-1.8c0.1,0,0.1-0.1,0.1-0.1l0,0v-0.4L91.2,122z"/>
		<path class="st28" d="M95.4,119.4c-0.1-0.1-0.2-0.1-0.3,0l-2.6,1.6l-0.3-0.1v0.4l0,0c0,0.1,0,0.1,0.1,0.1l3,1.9
			c0.1,0.1,0.2,0.1,0.3,0l2.9-1.8c0.1,0,0.1-0.1,0.1-0.1l0,0v-0.4L95.4,119.4z"/>
		<path class="st28" d="M99.6,116.8c-0.1-0.1-0.2-0.1-0.3,0l-2.6,1.6l-0.3-0.1v0.4l0,0c0,0.1,0,0.1,0.1,0.1l3,1.9
			c0.1,0.1,0.2,0.1,0.3,0l2.9-1.8c0.1,0,0.1-0.1,0.1-0.1l0,0v-0.4L99.6,116.8z"/>
		<path class="st28" d="M103.9,114.2c-0.1-0.1-0.2-0.1-0.3,0l-2.6,1.6l-0.3-0.1v0.4l0,0c0,0.1,0,0.1,0.1,0.1l3,1.9
			c0.1,0.1,0.2,0.1,0.3,0l2.9-1.8c0.1,0,0.1-0.1,0.1-0.1l0,0v-0.4L103.9,114.2z"/>
		<path class="st28" d="M108.1,111.6c-0.1-0.1-0.2-0.1-0.3,0l-2.6,1.6l-0.3-0.1v0.4l0,0c0,0.1,0,0.1,0.1,0.1l3,1.9
			c0.1,0.1,0.2,0.1,0.3,0l2.9-1.8c0.1,0,0.1-0.1,0.1-0.1l0,0v-0.4L108.1,111.6z"/>
		<path class="st28" d="M112.4,109c-0.1-0.1-0.2-0.1-0.3,0l-2.6,1.6l-0.3-0.1v0.4l0,0c0,0.1,0,0.1,0.1,0.1l3,1.9
			c0.1,0.1,0.2,0.1,0.3,0l2.9-1.8c0.1,0,0.1-0.1,0.1-0.1l0,0v-0.4L112.4,109z"/>
		<path class="st28" d="M112.5,112.5l2.9-1.8c0.1-0.1,0.1-0.2,0-0.3l-3-1.9c-0.1-0.1-0.2-0.1-0.3,0l-2.9,1.8c-0.1,0.1-0.1,0.2,0,0.3
			l3,1.9C112.3,112.6,112.4,112.6,112.5,112.5z"/>
		<path class="st28" d="M116.6,106.3c-0.1-0.1-0.2-0.1-0.3,0l-2.6,1.6l-0.3-0.1v0.4l0,0c0,0.1,0,0.1,0.1,0.1l3,1.9
			c0.1,0.1,0.2,0.1,0.3,0l2.9-1.8c0.1,0,0.1-0.1,0.1-0.1l0,0V108L116.6,106.3z"/>
		<path class="st28" d="M120.8,103.7c-0.1-0.1-0.2-0.1-0.3,0l-2.6,1.6l-0.3-0.1v0.4l0,0c0,0.1,0,0.1,0.1,0.1l3,1.9
			c0.1,0.1,0.2,0.1,0.3,0l2.9-1.8c0.1,0,0.1-0.1,0.1-0.1l0,0v-0.4L120.8,103.7z"/>
		<path class="st28" d="M125.1,101.1c-0.1-0.1-0.2-0.1-0.3,0l-2.6,1.6l-0.3-0.1v0.4l0,0c0,0.1,0,0.1,0.1,0.1l3,1.9
			c0.1,0.1,0.2,0.1,0.3,0l2.9-1.8c0.1,0,0.1-0.1,0.1-0.1l0,0v-0.4L125.1,101.1z"/>
		<path class="st28" d="M129.3,98.5c-0.1-0.1-0.2-0.1-0.3,0l-2.6,1.6l-0.3-0.1v0.4l0,0c0,0.1,0,0.1,0.1,0.1l3,1.9
			c0.1,0.1,0.2,0.1,0.3,0l2.9-1.8c0.1,0,0.1-0.1,0.1-0.1l0,0v-0.4L129.3,98.5z"/>
		<path class="st28" d="M133.6,95.9c-0.1-0.1-0.2-0.1-0.3,0l-2.6,1.6l-0.3-0.1v0.4l0,0c0,0.1,0,0.1,0.1,0.1l3,1.9
			c0.1,0.1,0.2,0.1,0.3,0l2.9-1.8c0.1,0,0.1-0.1,0.1-0.1l0,0v-0.4L133.6,95.9z"/>
		<path class="st28" d="M91.7,127.6c-0.1-0.1-0.2-0.1-0.3,0l-2.6,1.6l-0.3-0.1v0.4l0,0c0,0.1,0,0.1,0.1,0.1l3,1.9
			c0.1,0.1,0.2,0.1,0.3,0l2.9-1.8c0.1,0,0.1-0.1,0.1-0.1l0,0v-0.4L91.7,127.6z"/>
		<path class="st28" d="M95.9,125c-0.1-0.1-0.2-0.1-0.3,0l-2.6,1.6l-0.3-0.1v0.4l0,0c0,0.1,0,0.1,0.1,0.1l3,1.9
			c0.1,0.1,0.2,0.1,0.3,0l2.9-1.8c0.1,0,0.1-0.1,0.1-0.1l0,0v-0.4L95.9,125z"/>
		<path class="st28" d="M100.1,122.4c-0.1-0.1-0.2-0.1-0.3,0l-2.6,1.6l-0.3-0.1v0.4l0,0c0,0.1,0,0.1,0.1,0.1l3,1.9
			c0.1,0.1,0.2,0.1,0.3,0l2.9-1.8c0.1,0,0.1-0.1,0.1-0.1l0,0V124L100.1,122.4z"/>
		<path class="st28" d="M104.4,119.8c-0.1-0.1-0.2-0.1-0.3,0l-2.6,1.6l-0.3-0.1v0.4l0,0c0,0.1,0,0.1,0.1,0.1l3,1.9
			c0.1,0.1,0.2,0.1,0.3,0l2.9-1.8c0.1,0,0.1-0.1,0.1-0.1l0,0v-0.4L104.4,119.8z"/>
		<path class="st28" d="M108.6,117.2c-0.1-0.1-0.2-0.1-0.3,0l-2.6,1.6l-0.3-0.1v0.4l0,0c0,0.1,0,0.1,0.1,0.1l3,1.9
			c0.1,0.1,0.2,0.1,0.3,0l2.9-1.8c0.1,0,0.1-0.1,0.1-0.1l0,0v-0.4L108.6,117.2z"/>
		<path class="st28" d="M112.9,114.6c-0.1-0.1-0.2-0.1-0.3,0l-2.6,1.6l-0.3-0.1v0.4l0,0c0,0.1,0,0.1,0.1,0.1l3,1.9
			c0.1,0.1,0.2,0.1,0.3,0l2.9-1.8c0.1,0,0.1-0.1,0.1-0.1l0,0v-0.4L112.9,114.6z"/>
		<path class="st28" d="M117.1,111.9c-0.1-0.1-0.2-0.1-0.3,0l-2.6,1.6l-0.3-0.1v0.4l0,0c0,0.1,0,0.1,0.1,0.1l3,1.9
			c0.1,0.1,0.2,0.1,0.3,0l2.9-1.8c0.1,0,0.1-0.1,0.1-0.1l0,0v-0.4L117.1,111.9z"/>
		<path class="st28" d="M121.3,109.3c-0.1-0.1-0.2-0.1-0.3,0l-2.6,1.6l-0.3-0.1v0.4l0,0c0,0.1,0,0.1,0.1,0.1l3,1.9
			c0.1,0.1,0.2,0.1,0.3,0l2.9-1.8c0.1,0,0.1-0.1,0.1-0.1l0,0V111L121.3,109.3z"/>
		<path class="st28" d="M125.6,106.7c-0.1-0.1-0.2-0.1-0.3,0l-2.6,1.6l-0.3-0.1v0.4l0,0c0,0.1,0,0.1,0.1,0.1l3,1.9
			c0.1,0.1,0.2,0.1,0.3,0l2.9-1.8c0.1,0,0.1-0.1,0.1-0.1l0,0v-0.4L125.6,106.7z"/>
		<path class="st28" d="M129.8,104.1c-0.1-0.1-0.2-0.1-0.3,0l-2.6,1.6l-0.3-0.1v0.4l0,0c0,0.1,0,0.1,0.1,0.1l3,1.9
			c0.1,0.1,0.2,0.1,0.3,0l2.9-1.8c0.1,0,0.1-0.1,0.1-0.1l0,0v-0.4L129.8,104.1z"/>
		<path class="st28" d="M134,101.5c-0.1-0.1-0.2-0.1-0.3,0l-2.6,1.6l-0.3-0.1v0.4l0,0c0,0.1,0,0.1,0.1,0.1l3,1.9
			c0.1,0.1,0.2,0.1,0.3,0l2.9-1.8c0.1,0,0.1-0.1,0.1-0.1l0,0v-0.4L134,101.5z"/>
		<path class="st28" d="M138.3,98.9c-0.1-0.1-0.2-0.1-0.3,0l-2.6,1.6l-0.3-0.1v0.4l0,0c0,0.1,0,0.1,0.1,0.1l3,1.9
			c0.1,0.1,0.2,0.1,0.3,0l2.9-1.8c0.1,0,0.1-0.1,0.1-0.1l0,0v-0.4L138.3,98.9z"/>
		<path class="st28" d="M96.4,130.6c-0.1-0.1-0.2-0.1-0.3,0l-2.6,1.6l-0.3-0.1v0.4l0,0c0,0.1,0,0.1,0.1,0.1l3,1.9
			c0.1,0.1,0.2,0.1,0.3,0l2.9-1.8c0.1,0,0.1-0.1,0.1-0.1l0,0v-0.4L96.4,130.6z"/>
		<path class="st28" d="M100.6,128c-0.1-0.1-0.2-0.1-0.3,0l-2.6,1.6l-0.3-0.1v0.4l0,0c0,0.1,0,0.1,0.1,0.1l3,1.9
			c0.1,0.1,0.2,0.1,0.3,0l2.9-1.8c0.1,0,0.1-0.1,0.1-0.1l0,0v-0.4L100.6,128z"/>
		<path class="st28" d="M104.9,125.4c-0.1-0.1-0.2-0.1-0.3,0l-2.6,1.6l-0.3-0.1v0.4l0,0c0,0.1,0,0.1,0.1,0.1l3,1.9
			c0.1,0.1,0.2,0.1,0.3,0l2.9-1.8c0.1,0,0.1-0.1,0.1-0.1l0,0V127L104.9,125.4z"/>
		<path class="st28" d="M109.1,122.8c-0.1-0.1-0.2-0.1-0.3,0l-2.6,1.6l-0.3-0.1v0.4l0,0c0,0.1,0,0.1,0.1,0.1l3,1.9
			c0.1,0.1,0.2,0.1,0.3,0l2.9-1.8c0.1,0,0.1-0.1,0.1-0.1l0,0v-0.4L109.1,122.8z"/>
		<path class="st28" d="M113.3,120.2c-0.1-0.1-0.2-0.1-0.3,0l-2.6,1.6l-0.3-0.1v0.4l0,0c0,0.1,0,0.1,0.1,0.1l3,1.9
			c0.1,0.1,0.2,0.1,0.3,0l2.9-1.8c0.1,0,0.1-0.1,0.1-0.1l0,0v-0.4L113.3,120.2z"/>
		<path class="st28" d="M117.6,117.5c-0.1-0.1-0.2-0.1-0.3,0l-2.6,1.6l-0.3-0.1v0.4l0,0c0,0.1,0,0.1,0.1,0.1l3,1.9
			c0.1,0.1,0.2,0.1,0.3,0l2.9-1.8c0.1,0,0.1-0.1,0.1-0.1l0,0v-0.4L117.6,117.5z"/>
		<path class="st28" d="M121.8,114.9c-0.1-0.1-0.2-0.1-0.3,0l-2.6,1.6l-0.3-0.1v0.4l0,0c0,0.1,0,0.1,0.1,0.1l3,1.9
			c0.1,0.1,0.2,0.1,0.3,0l2.9-1.8c0.1,0,0.1-0.1,0.1-0.1l0,0v-0.4L121.8,114.9z"/>
		<path class="st28" d="M126.1,112.3c-0.1-0.1-0.2-0.1-0.3,0l-2.6,1.6l-0.3-0.1v0.4l0,0c0,0.1,0,0.1,0.1,0.1l3,1.9
			c0.1,0.1,0.2,0.1,0.3,0l2.9-1.8c0.1,0,0.1-0.1,0.1-0.1l0,0V114L126.1,112.3z"/>
		<path class="st28" d="M130.3,109.7c-0.1-0.1-0.2-0.1-0.3,0l-2.6,1.6l-0.3-0.1v0.4l0,0c0,0.1,0,0.1,0.1,0.1l3,1.9
			c0.1,0.1,0.2,0.1,0.3,0l2.9-1.8c0.1,0,0.1-0.1,0.1-0.1l0,0v-0.4L130.3,109.7z"/>
		<path class="st28" d="M134.5,107.1c-0.1-0.1-0.2-0.1-0.3,0l-2.6,1.6l-0.3-0.1v0.4l0,0c0,0.1,0,0.1,0.1,0.1l3,1.9
			c0.1,0.1,0.2,0.1,0.3,0l2.9-1.8c0.1,0,0.1-0.1,0.1-0.1l0,0v-0.4L134.5,107.1z"/>
		<path class="st28" d="M138.8,104.5c-0.1-0.1-0.2-0.1-0.3,0l-2.6,1.6l-0.3-0.1v0.4l0,0c0,0.1,0,0.1,0.1,0.1l3,1.9
			c0.1,0.1,0.2,0.1,0.3,0l2.9-1.8c0.1,0,0.1-0.1,0.1-0.1l0,0v-0.4L138.8,104.5z"/>
		<path class="st28" d="M143,101.9c-0.1-0.1-0.2-0.1-0.3,0l-2.6,1.6l-0.3-0.1v0.4l0,0c0,0.1,0,0.1,0.1,0.1l3,1.9
			c0.1,0.1,0.2,0.1,0.3,0l2.9-1.8c0.1,0,0.1-0.1,0.1-0.1l0,0v-0.4L143,101.9z"/>
		<path class="st28" d="M101.1,133.6c-0.1-0.1-0.2-0.1-0.3,0l-2.6,1.6l-0.3-0.1v0.4l0,0c0,0.1,0,0.1,0.1,0.1l3,1.9
			c0.1,0.1,0.2,0.1,0.3,0l2.9-1.8c0.1,0,0.1-0.1,0.1-0.1l0,0v-0.4L101.1,133.6z"/>
		<path class="st28" d="M105.3,131c-0.1-0.1-0.2-0.1-0.3,0l-2.6,1.6l-0.3-0.1v0.4l0,0c0,0.1,0,0.1,0.1,0.1l3,1.9
			c0.1,0.1,0.2,0.1,0.3,0l2.9-1.8c0.1,0,0.1-0.1,0.1-0.1l0,0v-0.4L105.3,131z"/>
		<path class="st28" d="M109.6,128.4c-0.1-0.1-0.2-0.1-0.3,0l-2.6,1.6l-0.3-0.1v0.4l0,0c0,0.1,0,0.1,0.1,0.1l3,1.9
			c0.1,0.1,0.2,0.1,0.3,0l2.9-1.8c0.1,0,0.1-0.1,0.1-0.1l0,0V130L109.6,128.4z"/>
		<path class="st28" d="M113.8,125.8c-0.1-0.1-0.2-0.1-0.3,0l-2.6,1.6l-0.3-0.1v0.4l0,0c0,0.1,0,0.1,0.1,0.1l3,1.9
			c0.1,0.1,0.2,0.1,0.3,0l2.9-1.8c0.1,0,0.1-0.1,0.1-0.1l0,0v-0.4L113.8,125.8z"/>
		<path class="st28" d="M118.1,123.1c-0.1-0.1-0.2-0.1-0.3,0l-2.6,1.6l-0.3-0.1v0.4l0,0c0,0.1,0,0.1,0.1,0.1l3,1.9
			c0.1,0.1,0.2,0.1,0.3,0l2.9-1.8c0.1,0,0.1-0.1,0.1-0.1l0,0v-0.4L118.1,123.1z"/>
		<path class="st28" d="M122.3,120.5c-0.1-0.1-0.2-0.1-0.3,0l-2.6,1.6l-0.3-0.1v0.4l0,0c0,0.1,0,0.1,0.1,0.1l3,1.9
			c0.1,0.1,0.2,0.1,0.3,0l2.9-1.8c0.1,0,0.1-0.1,0.1-0.1l0,0v-0.4L122.3,120.5z"/>
		<path class="st28" d="M126.5,117.9c-0.1-0.1-0.2-0.1-0.3,0l-2.6,1.6l-0.3-0.1v0.4l0,0c0,0.1,0,0.1,0.1,0.1l3,1.9
			c0.1,0.1,0.2,0.1,0.3,0l2.9-1.8c0.1,0,0.1-0.1,0.1-0.1l0,0v-0.4L126.5,117.9z"/>
		<path class="st28" d="M130.8,115.3c-0.1-0.1-0.2-0.1-0.3,0l-2.6,1.6l-0.3-0.1v0.4l0,0c0,0.1,0,0.1,0.1,0.1l3,1.9
			c0.1,0.1,0.2,0.1,0.3,0l2.9-1.8c0.1,0,0.1-0.1,0.1-0.1l0,0v-0.4L130.8,115.3z"/>
		<path class="st28" d="M135,112.7c-0.1-0.1-0.2-0.1-0.3,0l-2.6,1.6l-0.3-0.1v0.4l0,0c0,0.1,0,0.1,0.1,0.1l3,1.9
			c0.1,0.1,0.2,0.1,0.3,0l2.9-1.8c0.1,0,0.1-0.1,0.1-0.1l0,0v-0.4L135,112.7z"/>
		<path class="st28" d="M139.3,110.1c-0.1-0.1-0.2-0.1-0.3,0l-2.6,1.6l-0.3-0.1v0.4l0,0c0,0.1,0,0.1,0.1,0.1l3,1.9
			c0.1,0.1,0.2,0.1,0.3,0l2.9-1.8c0.1,0,0.1-0.1,0.1-0.1l0,0v-0.4L139.3,110.1z"/>
		<path class="st28" d="M143.5,107.5c-0.1-0.1-0.2-0.1-0.3,0l-2.6,1.6l-0.3-0.1v0.4l0,0c0,0.1,0,0.1,0.1,0.1l3,1.9
			c0.1,0.1,0.2,0.1,0.3,0l2.9-1.8c0.1,0,0.1-0.1,0.1-0.1l0,0v-0.4L143.5,107.5z"/>
		<path class="st28" d="M147.7,104.8c-0.1-0.1-0.2-0.1-0.3,0l-2.6,1.6l-0.3-0.1v0.4l0,0c0,0.1,0,0.1,0.1,0.1l3,1.9
			c0.1,0.1,0.2,0.1,0.3,0l2.9-1.8c0.1,0,0.1-0.1,0.1-0.1l0,0v-0.4L147.7,104.8z"/>
		<path class="st28" d="M105.8,136.6c-0.1-0.1-0.2-0.1-0.3,0l-2.6,1.6l-0.3-0.1v0.4l0,0c0,0.1,0,0.1,0.1,0.1l3,1.9
			c0.1,0.1,0.2,0.1,0.3,0l2.9-1.8c0.1,0,0.1-0.1,0.1-0.1l0,0v-0.4L105.8,136.6z"/>
		<path class="st28" d="M110.1,134c-0.1-0.1-0.2-0.1-0.3,0l-2.6,1.6l-0.3-0.1v0.4l0,0c0,0.1,0,0.1,0.1,0.1l3,1.9
			c0.1,0.1,0.2,0.1,0.3,0l2.9-1.8c0.1,0,0.1-0.1,0.1-0.1l0,0v-0.4L110.1,134z"/>
		<path class="st28" d="M114.3,131.4c-0.1-0.1-0.2-0.1-0.3,0l-2.6,1.6l-0.3-0.1v0.4l0,0c0,0.1,0,0.1,0.1,0.1l3,1.9
			c0.1,0.1,0.2,0.1,0.3,0l2.9-1.8c0.1,0,0.1-0.1,0.1-0.1l0,0V133L114.3,131.4z"/>
		<path class="st28" d="M118.5,128.7c-0.1-0.1-0.2-0.1-0.3,0l-2.6,1.6l-0.3-0.1v0.4l0,0c0,0.1,0,0.1,0.1,0.1l3,1.9
			c0.1,0.1,0.2,0.1,0.3,0l2.9-1.8c0.1,0,0.1-0.1,0.1-0.1l0,0v-0.4L118.5,128.7z"/>
		<path class="st28" d="M122.8,126.1c-0.1-0.1-0.2-0.1-0.3,0l-2.6,1.6l-0.3-0.1v0.4l0,0c0,0.1,0,0.1,0.1,0.1l3,1.9
			c0.1,0.1,0.2,0.1,0.3,0l2.9-1.8c0.1,0,0.1-0.1,0.1-0.1l0,0v-0.4L122.8,126.1z"/>
		<path class="st28" d="M127,123.5c-0.1-0.1-0.2-0.1-0.3,0l-2.6,1.6l-0.3-0.1v0.4l0,0c0,0.1,0,0.1,0.1,0.1l3,1.9
			c0.1,0.1,0.2,0.1,0.3,0l2.9-1.8c0.1,0,0.1-0.1,0.1-0.1l0,0v-0.4L127,123.5z"/>
		<path class="st28" d="M131.3,120.9c-0.1-0.1-0.2-0.1-0.3,0l-2.6,1.6l-0.3-0.1v0.4l0,0c0,0.1,0,0.1,0.1,0.1l3,1.9
			c0.1,0.1,0.2,0.1,0.3,0l2.9-1.8c0.1,0,0.1-0.1,0.1-0.1l0,0v-0.4L131.3,120.9z"/>
		<path class="st28" d="M135.5,118.3c-0.1-0.1-0.2-0.1-0.3,0l-2.6,1.6l-0.3-0.1v0.4l0,0c0,0.1,0,0.1,0.1,0.1l3,1.9
			c0.1,0.1,0.2,0.1,0.3,0l2.9-1.8c0.1,0,0.1-0.1,0.1-0.1l0,0v-0.4L135.5,118.3z"/>
		<path class="st28" d="M139.7,115.7c-0.1-0.1-0.2-0.1-0.3,0l-2.6,1.6l-0.3-0.1v0.4l0,0c0,0.1,0,0.1,0.1,0.1l3,1.9
			c0.1,0.1,0.2,0.1,0.3,0l2.9-1.8c0.1,0,0.1-0.1,0.1-0.1l0,0v-0.4L139.7,115.7z"/>
		<path class="st28" d="M144,113.1c-0.1-0.1-0.2-0.1-0.3,0l-2.6,1.6l-0.3-0.1v0.4l0,0c0,0.1,0,0.1,0.1,0.1l3,1.9
			c0.1,0.1,0.2,0.1,0.3,0l2.9-1.8c0.1,0,0.1-0.1,0.1-0.1l0,0v-0.4L144,113.1z"/>
		<path class="st28" d="M148.2,110.4c-0.1-0.1-0.2-0.1-0.3,0l-2.6,1.6L145,112v0.4l0,0c0,0.1,0,0.1,0.1,0.1l3,1.9
			c0.1,0.1,0.2,0.1,0.3,0l2.9-1.8c0.1,0,0.1-0.1,0.1-0.1l0,0v-0.4L148.2,110.4z"/>
		<path class="st28" d="M152.5,107.8c-0.1-0.1-0.2-0.1-0.3,0l-2.6,1.6l-0.3-0.1v0.4l0,0c0,0.1,0,0.1,0.1,0.1l3,1.9
			c0.1,0.1,0.2,0.1,0.3,0l2.9-1.8c0.1,0,0.1-0.1,0.1-0.1l0,0v-0.4L152.5,107.8z"/>
		<path class="st28" d="M110.6,139.6c-0.1-0.1-0.2-0.1-0.3,0l-2.6,1.6l-0.3-0.1v0.4l0,0c0,0.1,0,0.1,0.1,0.1l3,1.9
			c0.1,0.1,0.2,0.1,0.3,0l2.9-1.8c0.1,0,0.1-0.1,0.1-0.1l0,0v-0.4L110.6,139.6z"/>
		<path class="st28" d="M114.8,137c-0.1-0.1-0.2-0.1-0.3,0l-2.6,1.6l-0.3-0.1v0.4l0,0c0,0.1,0,0.1,0.1,0.1l3,1.9
			c0.1,0.1,0.2,0.1,0.3,0l2.9-1.8c0.1,0,0.1-0.1,0.1-0.1l0,0v-0.4L114.8,137z"/>
		<path class="st28" d="M119,134.3c-0.1-0.1-0.2-0.1-0.3,0l-2.6,1.6l-0.3-0.1v0.4l0,0c0,0.1,0,0.1,0.1,0.1l3,1.9
			c0.1,0.1,0.2,0.1,0.3,0l2.9-1.8c0.1,0,0.1-0.1,0.1-0.1l0,0V136L119,134.3z"/>
		<path class="st28" d="M140.2,121.3c-0.1-0.1-0.2-0.1-0.3,0l-2.6,1.6l-0.3-0.1v0.4l0,0c0,0.1,0,0.1,0.1,0.1l3,1.9
			c0.1,0.1,0.2,0.1,0.3,0l2.9-1.8c0.1,0,0.1-0.1,0.1-0.1l0,0v-0.4L140.2,121.3z"/>
		<path class="st28" d="M144.5,118.7c-0.1-0.1-0.2-0.1-0.3,0l-2.6,1.6l-0.3-0.1v0.4l0,0c0,0.1,0,0.1,0.1,0.1l3,1.9
			c0.1,0.1,0.2,0.1,0.3,0l2.9-1.8c0.1,0,0.1-0.1,0.1-0.1l0,0v-0.4L144.5,118.7z"/>
		<path class="st28" d="M148.7,116c-0.1-0.1-0.2-0.1-0.3,0l-2.6,1.6l-0.3-0.1v0.4l0,0c0,0.1,0,0.1,0.1,0.1l3,1.9
			c0.1,0.1,0.2,0.1,0.3,0l2.9-1.8c0.1,0,0.1-0.1,0.1-0.1l0,0v-0.4L148.7,116z"/>
		<path class="st28" d="M153,113.4c-0.1-0.1-0.2-0.1-0.3,0l-2.6,1.6l-0.3-0.1v0.4l0,0c0,0.1,0,0.1,0.1,0.1l1.2,0.8
			c0.1,0.1,0.2,0.1,0.3,0l2.9-1.8c0.1,0,0.1-0.1,0.1-0.1l0,0V114L153,113.4z"/>
		<path class="st28" d="M154.7,114.5c-0.1-0.1-0.2-0.1-0.3,0l-2.6,1.6l-0.3-0.1v0.4l0,0c0,0.1,0,0.1,0.1,0.1l1.2,0.8
			c0.1,0.1,0.2,0.1,0.3,0l2.9-1.8c0.1,0,0.1-0.1,0.1-0.1l0,0v-0.4L154.7,114.5z"/>
		<path class="st28" d="M157.2,110.8c-0.1-0.1-0.2-0.1-0.3,0l-2.6,1.6l-0.3-0.1v0.4l0,0c0,0.1,0,0.1,0.1,0.1l3,1.9
			c0.1,0.1,0.2,0.1,0.3,0l2.9-1.8c0.1,0,0.1-0.1,0.1-0.1l0,0v-0.4L157.2,110.8z"/>
		<path class="st28" d="M136,123.9c-0.1-0.1-0.2-0.1-0.3,0l-2.6,1.6l-0.3-0.1v0.4l0,0c0,0.1,0,0.1,0.1,0.1l1.5,0.9l-9.1,5.9l-1.9-1
			c-0.1-0.1-0.2-0.1-0.3,0l-2.6,1.6l-0.3-0.1v0.4l0,0c0,0.1,0,0.1,0.1,0.1l3,1.9c0.1,0.1,0.2,0.1,0.3,0l2.9-1.8c0,0,0,0,0,0l11.3-7
			l0,0l1.4-0.8c0.1,0,0.1-0.1,0.1-0.1l0,0v-0.4L136,123.9z"/>
	</g>
	<g>
		<path class="st10" d="M87.1,128.2l2.9-1.8c0.1-0.1,0.1-0.2,0-0.3l-3-1.9c-0.1-0.1-0.2-0.1-0.3,0l-2.9,1.8c-0.1,0.1-0.1,0.2,0,0.3
			l3,1.9C86.8,128.2,87,128.2,87.1,128.2z"/>
		<path class="st10" d="M91.3,125.6l2.9-1.8c0.1-0.1,0.1-0.2,0-0.3l-3-1.9c-0.1-0.1-0.2-0.1-0.3,0l-2.9,1.8c-0.1,0.1-0.1,0.2,0,0.3
			l3,1.9C91.1,125.6,91.2,125.6,91.3,125.6z"/>
		<path class="st10" d="M95.5,123l2.9-1.8c0.1-0.1,0.1-0.2,0-0.3l-3-1.9c-0.1-0.1-0.2-0.1-0.3,0l-2.9,1.8c-0.1,0.1-0.1,0.2,0,0.3
			l3,1.9C95.3,123,95.4,123,95.5,123z"/>
		<path class="st10" d="M99.8,120.3l2.9-1.8c0.1-0.1,0.1-0.2,0-0.3l-3-1.9c-0.1-0.1-0.2-0.1-0.3,0l-2.9,1.8c-0.1,0.1-0.1,0.2,0,0.3
			l3,1.9C99.6,120.4,99.7,120.4,99.8,120.3z"/>
		<path class="st10" d="M104,117.7l2.9-1.8c0.1-0.1,0.1-0.2,0-0.3l-3-1.9c-0.1-0.1-0.2-0.1-0.3,0l-2.9,1.8c-0.1,0.1-0.1,0.2,0,0.3
			l3,1.9C103.8,117.8,103.9,117.8,104,117.7z"/>
		<path class="st10" d="M108.3,115.1l2.9-1.8c0.1-0.1,0.1-0.2,0-0.3l-3-1.9c-0.1-0.1-0.2-0.1-0.3,0l-2.9,1.8c-0.1,0.1-0.1,0.2,0,0.3
			l3,1.9C108,115.2,108.2,115.2,108.3,115.1z"/>
		<path class="st10" d="M116.7,109.9l2.9-1.8c0.1-0.1,0.1-0.2,0-0.3l-3-1.9c-0.1-0.1-0.2-0.1-0.3,0l-2.9,1.8c-0.1,0.1-0.1,0.2,0,0.3
			l3,1.9C116.5,109.9,116.6,109.9,116.7,109.9z"/>
		<path class="st10" d="M121,107.3l2.9-1.8c0.1-0.1,0.1-0.2,0-0.3l-3-1.9c-0.1-0.1-0.2-0.1-0.3,0l-2.9,1.8c-0.1,0.1-0.1,0.2,0,0.3
			l3,1.9C120.8,107.3,120.9,107.3,121,107.3z"/>
		<path class="st10" d="M125.2,104.7l2.9-1.8c0.1-0.1,0.1-0.2,0-0.3l-3-1.9c-0.1-0.1-0.2-0.1-0.3,0l-2.9,1.8c-0.1,0.1-0.1,0.2,0,0.3
			l3,1.9C125,104.7,125.1,104.7,125.2,104.7z"/>
		<path class="st10" d="M129.5,102l2.9-1.8c0.1-0.1,0.1-0.2,0-0.3l-3-1.9c-0.1-0.1-0.2-0.1-0.3,0l-2.9,1.8c-0.1,0.1-0.1,0.2,0,0.3
			l3,1.9C129.2,102.1,129.4,102.1,129.5,102z"/>
		<path class="st10" d="M133.7,99.4l2.9-1.8c0.1-0.1,0.1-0.2,0-0.3l-3-1.9c-0.1-0.1-0.2-0.1-0.3,0l-2.9,1.8c-0.1,0.1-0.1,0.2,0,0.3
			l3,1.9C133.5,99.5,133.6,99.5,133.7,99.4z"/>
		<path class="st10" d="M91.8,131.2l2.9-1.8c0.1-0.1,0.1-0.2,0-0.3l-3-1.9c-0.1-0.1-0.2-0.1-0.3,0l-2.9,1.8c-0.1,0.1-0.1,0.2,0,0.3
			l3,1.9C91.6,131.2,91.7,131.2,91.8,131.2z"/>
		<path class="st10" d="M96,128.6l2.9-1.8c0.1-0.1,0.1-0.2,0-0.3l-3-1.9c-0.1-0.1-0.2-0.1-0.3,0l-2.9,1.8c-0.1,0.1-0.1,0.2,0,0.3
			l3,1.9C95.8,128.6,95.9,128.6,96,128.6z"/>
		<path class="st10" d="M100.3,125.9l2.9-1.8c0.1-0.1,0.1-0.2,0-0.3l-3-1.9c-0.1-0.1-0.2-0.1-0.3,0l-2.9,1.8c-0.1,0.1-0.1,0.2,0,0.3
			l3,1.9C100.1,126,100.2,126,100.3,125.9z"/>
		<path class="st10" d="M104.5,123.3l2.9-1.8c0.1-0.1,0.1-0.2,0-0.3l-3-1.9c-0.1-0.1-0.2-0.1-0.3,0l-2.9,1.8c-0.1,0.1-0.1,0.2,0,0.3
			l3,1.9C104.3,123.4,104.4,123.4,104.5,123.3z"/>
		<path class="st10" d="M108.7,120.7l2.9-1.8c0.1-0.1,0.1-0.2,0-0.3l-3-1.9c-0.1-0.1-0.2-0.1-0.3,0l-2.9,1.8c-0.1,0.1-0.1,0.2,0,0.3
			l3,1.9C108.5,120.8,108.7,120.8,108.7,120.7z"/>
		<path class="st10" d="M113,118.1l2.9-1.8c0.1-0.1,0.1-0.2,0-0.3l-3-1.9c-0.1-0.1-0.2-0.1-0.3,0l-2.9,1.8c-0.1,0.1-0.1,0.2,0,0.3
			l3,1.9C112.8,118.2,112.9,118.2,113,118.1z"/>
		<path class="st10" d="M117.2,115.5l2.9-1.8c0.1-0.1,0.1-0.2,0-0.3l-3-1.9c-0.1-0.1-0.2-0.1-0.3,0l-2.9,1.8c-0.1,0.1-0.1,0.2,0,0.3
			l3,1.9C117,115.5,117.1,115.5,117.2,115.5z"/>
		<path class="st10" d="M121.5,112.9l2.9-1.8c0.1-0.1,0.1-0.2,0-0.3l-3-1.9c-0.1-0.1-0.2-0.1-0.3,0l-2.9,1.8c-0.1,0.1-0.1,0.2,0,0.3
			l3,1.9C121.2,112.9,121.4,112.9,121.5,112.9z"/>
		<path class="st10" d="M125.7,110.3l2.9-1.8c0.1-0.1,0.1-0.2,0-0.3l-3-1.9c-0.1-0.1-0.2-0.1-0.3,0l-2.9,1.8c-0.1,0.1-0.1,0.2,0,0.3
			l3,1.9C125.5,110.3,125.6,110.3,125.7,110.3z"/>
		<path class="st10" d="M129.9,107.6l2.9-1.8c0.1-0.1,0.1-0.2,0-0.3l-3-1.9c-0.1-0.1-0.2-0.1-0.3,0l-2.9,1.8c-0.1,0.1-0.1,0.2,0,0.3
			l3,1.9C129.7,107.7,129.8,107.7,129.9,107.6z"/>
		<path class="st10" d="M134.2,105l2.9-1.8c0.1-0.1,0.1-0.2,0-0.3l-3-1.9c-0.1-0.1-0.2-0.1-0.3,0l-2.9,1.8c-0.1,0.1-0.1,0.2,0,0.3
			l3,1.9C134,105.1,134.1,105.1,134.2,105z"/>
		<path class="st10" d="M138.4,102.4l2.9-1.8c0.1-0.1,0.1-0.2,0-0.3l-3-1.9c-0.1-0.1-0.2-0.1-0.3,0l-2.9,1.8c-0.1,0.1-0.1,0.2,0,0.3
			l3,1.9C138.2,102.5,138.3,102.5,138.4,102.4z"/>
		<path class="st10" d="M96.5,134.2l2.9-1.8c0.1-0.1,0.1-0.2,0-0.3l-3-1.9c-0.1-0.1-0.2-0.1-0.3,0l-2.9,1.8c-0.1,0.1-0.1,0.2,0,0.3
			l3,1.9C96.3,134.2,96.4,134.2,96.5,134.2z"/>
		<path class="st10" d="M100.8,131.5l2.9-1.8c0.1-0.1,0.1-0.2,0-0.3l-3-1.9c-0.1-0.1-0.2-0.1-0.3,0l-2.9,1.8c-0.1,0.1-0.1,0.2,0,0.3
			l3,1.9C100.5,131.6,100.7,131.6,100.8,131.5z"/>
		<path class="st10" d="M105,128.9l2.9-1.8c0.1-0.1,0.1-0.2,0-0.3l-3-1.9c-0.1-0.1-0.2-0.1-0.3,0l-2.9,1.8c-0.1,0.1-0.1,0.2,0,0.3
			l3,1.9C104.8,129,104.9,129,105,128.9z"/>
		<path class="st10" d="M109.2,126.3l2.9-1.8c0.1-0.1,0.1-0.2,0-0.3l-3-1.9c-0.1-0.1-0.2-0.1-0.3,0l-2.9,1.8c-0.1,0.1-0.1,0.2,0,0.3
			l3,1.9C109,126.4,109.1,126.4,109.2,126.3z"/>
		<path class="st10" d="M113.5,123.7l2.9-1.8c0.1-0.1,0.1-0.2,0-0.3l-3-1.9c-0.1-0.1-0.2-0.1-0.3,0l-2.9,1.8c-0.1,0.1-0.1,0.2,0,0.3
			l3,1.9C113.3,123.8,113.4,123.8,113.5,123.7z"/>
		<path class="st10" d="M117.7,121.1l2.9-1.8c0.1-0.1,0.1-0.2,0-0.3l-3-1.9c-0.1-0.1-0.2-0.1-0.3,0l-2.9,1.8c-0.1,0.1-0.1,0.2,0,0.3
			l3,1.9C117.5,121.1,117.6,121.1,117.7,121.1z"/>
		<path class="st10" d="M122,118.5l2.9-1.8c0.1-0.1,0.1-0.2,0-0.3l-3-1.9c-0.1-0.1-0.2-0.1-0.3,0l-2.9,1.8c-0.1,0.1-0.1,0.2,0,0.3
			l3,1.9C121.7,118.5,121.9,118.5,122,118.5z"/>
		<path class="st10" d="M126.2,115.9l2.9-1.8c0.1-0.1,0.1-0.2,0-0.3l-3-1.9c-0.1-0.1-0.2-0.1-0.3,0l-2.9,1.8c-0.1,0.1-0.1,0.2,0,0.3
			l3,1.9C126,115.9,126.1,115.9,126.2,115.9z"/>
		<path class="st10" d="M130.4,113.2l2.9-1.8c0.1-0.1,0.1-0.2,0-0.3l-3-1.9c-0.1-0.1-0.2-0.1-0.3,0l-2.9,1.8c-0.1,0.1-0.1,0.2,0,0.3
			l3,1.9C130.2,113.3,130.3,113.3,130.4,113.2z"/>
		<path class="st10" d="M134.7,110.6l2.9-1.8c0.1-0.1,0.1-0.2,0-0.3l-3-1.9c-0.1-0.1-0.2-0.1-0.3,0l-2.9,1.8c-0.1,0.1-0.1,0.2,0,0.3
			l3,1.9C134.5,110.7,134.6,110.7,134.7,110.6z"/>
		<path class="st10" d="M138.9,108l2.9-1.8c0.1-0.1,0.1-0.2,0-0.3l-3-1.9c-0.1-0.1-0.2-0.1-0.3,0l-2.9,1.8c-0.1,0.1-0.1,0.2,0,0.3
			l3,1.9C138.7,108.1,138.8,108.1,138.9,108z"/>
		<path class="st10" d="M143.1,105.4l2.9-1.8c0.1-0.1,0.1-0.2,0-0.3l-3-1.9c-0.1-0.1-0.2-0.1-0.3,0l-2.9,1.8c-0.1,0.1-0.1,0.2,0,0.3
			l3,1.9C142.9,105.5,143.1,105.5,143.1,105.4z"/>
		<path class="st10" d="M101.2,137.1l2.9-1.8c0.1-0.1,0.1-0.2,0-0.3l-3-1.9c-0.1-0.1-0.2-0.1-0.3,0l-2.9,1.8c-0.1,0.1-0.1,0.2,0,0.3
			l3,1.9C101,137.2,101.1,137.2,101.2,137.1z"/>
		<path class="st10" d="M105.5,134.5l2.9-1.8c0.1-0.1,0.1-0.2,0-0.3l-3-1.9c-0.1-0.1-0.2-0.1-0.3,0l-2.9,1.8c-0.1,0.1-0.1,0.2,0,0.3
			l3,1.9C105.3,134.6,105.4,134.6,105.5,134.5z"/>
		<path class="st10" d="M109.7,131.9l2.9-1.8c0.1-0.1,0.1-0.2,0-0.3l-3-1.9c-0.1-0.1-0.2-0.1-0.3,0l-2.9,1.8c-0.1,0.1-0.1,0.2,0,0.3
			l3,1.9C109.5,132,109.6,132,109.7,131.9z"/>
		<path class="st10" d="M114,129.3l2.9-1.8c0.1-0.1,0.1-0.2,0-0.3l-3-1.9c-0.1-0.1-0.2-0.1-0.3,0l-2.9,1.8c-0.1,0.1-0.1,0.2,0,0.3
			l3,1.9C113.7,129.4,113.9,129.4,114,129.3z"/>
		<path class="st10" d="M118.2,126.7l2.9-1.8c0.1-0.1,0.1-0.2,0-0.3l-3-1.9c-0.1-0.1-0.2-0.1-0.3,0l-2.9,1.8c-0.1,0.1-0.1,0.2,0,0.3
			l3,1.9C118,126.7,118.1,126.7,118.2,126.7z"/>
		<path class="st10" d="M122.4,124.1l2.9-1.8c0.1-0.1,0.1-0.2,0-0.3l-3-1.9c-0.1-0.1-0.2-0.1-0.3,0l-2.9,1.8c-0.1,0.1-0.1,0.2,0,0.3
			l3,1.9C122.2,124.1,122.3,124.1,122.4,124.1z"/>
		<path class="st10" d="M126.7,121.5l2.9-1.8c0.1-0.1,0.1-0.2,0-0.3l-3-1.9c-0.1-0.1-0.2-0.1-0.3,0l-2.9,1.8c-0.1,0.1-0.1,0.2,0,0.3
			l3,1.9C126.5,121.5,126.6,121.5,126.7,121.5z"/>
		<path class="st10" d="M130.9,118.8l2.9-1.8c0.1-0.1,0.1-0.2,0-0.3l-3-1.9c-0.1-0.1-0.2-0.1-0.3,0l-2.9,1.8c-0.1,0.1-0.1,0.2,0,0.3
			l3,1.9C130.7,118.9,130.8,118.9,130.9,118.8z"/>
		<path class="st10" d="M135.2,116.2l2.9-1.8c0.1-0.1,0.1-0.2,0-0.3l-3-1.9c-0.1-0.1-0.2-0.1-0.3,0l-2.9,1.8c-0.1,0.1-0.1,0.2,0,0.3
			l3,1.9C134.9,116.3,135.1,116.3,135.2,116.2z"/>
		<path class="st10" d="M139.4,113.6l2.9-1.8c0.1-0.1,0.1-0.2,0-0.3l-3-1.9c-0.1-0.1-0.2-0.1-0.3,0l-2.9,1.8c-0.1,0.1-0.1,0.2,0,0.3
			l3,1.9C139.2,113.7,139.3,113.7,139.4,113.6z"/>
		<path class="st10" d="M143.6,111l2.9-1.8c0.1-0.1,0.1-0.2,0-0.3l-3-1.9c-0.1-0.1-0.2-0.1-0.3,0l-2.9,1.8c-0.1,0.1-0.1,0.2,0,0.3
			l3,1.9C143.4,111.1,143.5,111.1,143.6,111z"/>
		<path class="st10" d="M147.9,108.4l2.9-1.8c0.1-0.1,0.1-0.2,0-0.3l-3-1.9c-0.1-0.1-0.2-0.1-0.3,0l-2.9,1.8c-0.1,0.1-0.1,0.2,0,0.3
			l3,1.9C147.7,108.4,147.8,108.4,147.9,108.4z"/>
		<path class="st10" d="M106,140.1l2.9-1.8c0.1-0.1,0.1-0.2,0-0.3l-3-1.9c-0.1-0.1-0.2-0.1-0.3,0l-2.9,1.8c-0.1,0.1-0.1,0.2,0,0.3
			l3,1.9C105.7,140.2,105.9,140.2,106,140.1z"/>
		<path class="st10" d="M110.2,137.5l2.9-1.8c0.1-0.1,0.1-0.2,0-0.3l-3-1.9c-0.1-0.1-0.2-0.1-0.3,0l-2.9,1.8c-0.1,0.1-0.1,0.2,0,0.3
			l3,1.9C110,137.6,110.1,137.6,110.2,137.5z"/>
		<path class="st10" d="M114.4,134.9l2.9-1.8c0.1-0.1,0.1-0.2,0-0.3l-3-1.9c-0.1-0.1-0.2-0.1-0.3,0l-2.9,1.8c-0.1,0.1-0.1,0.2,0,0.3
			l3,1.9C114.2,135,114.3,135,114.4,134.9z"/>
		<path class="st10" d="M118.7,132.3l2.9-1.8c0.1-0.1,0.1-0.2,0-0.3l-3-1.9c-0.1-0.1-0.2-0.1-0.3,0l-2.9,1.8c-0.1,0.1-0.1,0.2,0,0.3
			l3,1.9C118.5,132.3,118.6,132.3,118.7,132.3z"/>
		<path class="st10" d="M122.9,129.7l2.9-1.8c0.1-0.1,0.1-0.2,0-0.3l-3-1.9c-0.1-0.1-0.2-0.1-0.3,0l-2.9,1.8c-0.1,0.1-0.1,0.2,0,0.3
			l3,1.9C122.7,129.7,122.8,129.7,122.9,129.7z"/>
		<path class="st10" d="M127.2,127.1l2.9-1.8c0.1-0.1,0.1-0.2,0-0.3l-3-1.9c-0.1-0.1-0.2-0.1-0.3,0l-2.9,1.8c-0.1,0.1-0.1,0.2,0,0.3
			l3,1.9C126.9,127.1,127.1,127.1,127.2,127.1z"/>
		<path class="st10" d="M131.4,124.4l2.9-1.8c0.1-0.1,0.1-0.2,0-0.3l-3-1.9c-0.1-0.1-0.2-0.1-0.3,0l-2.9,1.8c-0.1,0.1-0.1,0.2,0,0.3
			l3,1.9C131.2,124.5,131.3,124.5,131.4,124.4z"/>
		<path class="st10" d="M135.6,121.8l2.9-1.8c0.1-0.1,0.1-0.2,0-0.3l-3-1.9c-0.1-0.1-0.2-0.1-0.3,0l-2.9,1.8c-0.1,0.1-0.1,0.2,0,0.3
			l3,1.9C135.4,121.9,135.5,121.9,135.6,121.8z"/>
		<path class="st10" d="M139.9,119.2l2.9-1.8c0.1-0.1,0.1-0.2,0-0.3l-3-1.9c-0.1-0.1-0.2-0.1-0.3,0l-2.9,1.8c-0.1,0.1-0.1,0.2,0,0.3
			l3,1.9C139.7,119.3,139.8,119.3,139.9,119.2z"/>
		<path class="st10" d="M144.1,116.6l2.9-1.8c0.1-0.1,0.1-0.2,0-0.3l-3-1.9c-0.1-0.1-0.2-0.1-0.3,0l-2.9,1.8c-0.1,0.1-0.1,0.2,0,0.3
			l3,1.9C143.9,116.7,144,116.7,144.1,116.6z"/>
		<path class="st10" d="M148.4,114l2.9-1.8c0.1-0.1,0.1-0.2,0-0.3l-3-1.9c-0.1-0.1-0.2-0.1-0.3,0l-2.9,1.8c-0.1,0.1-0.1,0.2,0,0.3
			l3,1.9C148.1,114,148.3,114,148.4,114z"/>
		<path class="st10" d="M152.6,111.4l2.9-1.8c0.1-0.1,0.1-0.2,0-0.3l-3-1.9c-0.1-0.1-0.2-0.1-0.3,0l-2.9,1.8c-0.1,0.1-0.1,0.2,0,0.3
			l3,1.9C152.4,111.4,152.5,111.4,152.6,111.4z"/>
		<path class="st10" d="M110.7,143.1l2.9-1.8c0.1-0.1,0.1-0.2,0-0.3l-3-1.9c-0.1-0.1-0.2-0.1-0.3,0l-2.9,1.8c-0.1,0.1-0.1,0.2,0,0.3
			l3,1.9C110.5,143.2,110.6,143.2,110.7,143.1z"/>
		<path class="st10" d="M114.9,140.5l2.9-1.8c0.1-0.1,0.1-0.2,0-0.3l-3-1.9c-0.1-0.1-0.2-0.1-0.3,0l-2.9,1.8c-0.1,0.1-0.1,0.2,0,0.3
			l3,1.9C114.7,140.6,114.8,140.6,114.9,140.5z"/>
		<path class="st10" d="M119.2,137.9l2.9-1.8c0.1-0.1,0.1-0.2,0-0.3l-3-1.9c-0.1-0.1-0.2-0.1-0.3,0l-2.9,1.8c-0.1,0.1-0.1,0.2,0,0.3
			l3,1.9C119,137.9,119.1,137.9,119.2,137.9z"/>
		<path class="st10" d="M140.4,124.8l2.9-1.8c0.1-0.1,0.1-0.2,0-0.3l-3-1.9c-0.1-0.1-0.2-0.1-0.3,0l-2.9,1.8c-0.1,0.1-0.1,0.2,0,0.3
			l3,1.9C140.1,124.9,140.3,124.9,140.4,124.8z"/>
		<path class="st10" d="M144.6,122.2l2.9-1.8c0.1-0.1,0.1-0.2,0-0.3l-3-1.9c-0.1-0.1-0.2-0.1-0.3,0l-2.9,1.8c-0.1,0.1-0.1,0.2,0,0.3
			l3,1.9C144.4,122.3,144.5,122.3,144.6,122.2z"/>
		<path class="st10" d="M148.8,119.6l2.9-1.8c0.1-0.1,0.1-0.2,0-0.3l-3-1.9c-0.1-0.1-0.2-0.1-0.3,0l-2.9,1.8c-0.1,0.1-0.1,0.2,0,0.3
			l3,1.9C148.6,119.6,148.8,119.6,148.8,119.6z"/>
		<path class="st10" d="M151.3,115.9l2.9-1.8c0.1-0.1,0.1-0.2,0-0.3l-1.2-0.8c-0.1-0.1-0.2-0.1-0.3,0l-2.9,1.8
			c-0.1,0.1-0.1,0.2,0,0.3l1.2,0.8C151.1,115.9,151.2,115.9,151.3,115.9z"/>
		<path class="st10" d="M153.1,117l2.9-1.8c0.1-0.1,0.1-0.2,0-0.3l-1.2-0.8c-0.1-0.1-0.2-0.1-0.3,0l-2.9,1.8c-0.1,0.1-0.1,0.2,0,0.3
			l1.2,0.8C152.9,117,153,117,153.1,117z"/>
		<path class="st10" d="M157.3,114.4l2.9-1.8c0.1-0.1,0.1-0.2,0-0.3l-3-1.9c-0.1-0.1-0.2-0.1-0.3,0l-2.9,1.8c-0.1,0.1-0.1,0.2,0,0.3
			l3,1.9C157.1,114.4,157.2,114.4,157.3,114.4z"/>
		<path class="st10" d="M139,125.4l-3-1.9c-0.1-0.1-0.2-0.1-0.3,0l-2.9,1.8c0,0,0,0,0,0l-10.5,6.5l0,0l-2.2,1.4
			c-0.1,0.1-0.1,0.2,0,0.3l3,1.9c0.1,0.1,0.2,0.1,0.3,0l2.9-1.8c0,0,0,0,0,0l11.1-6.9l0,0l1.6-1C139.1,125.6,139.1,125.4,139,125.4z
			"/>
	</g>
</g>
<g>
	<path class="st32" d="M28.5,67v8c0,0.2-0.1,0.4-0.3,0.5c0,0,0,0,0,0l-2.6,1.6l-5.4,3.3c-0.1,0.1-0.2,0.1-0.3,0
		c-0.1,0-0.1-0.1-0.1-0.2v-7.8c0-0.3,0.1-0.5,0.4-0.7l8.1-5c0.1,0,0.1,0,0.2,0c0,0,0,0,0,0C28.5,66.9,28.5,67,28.5,67z"/>
	<path class="st32" d="M85.3,32.1v8c0,0.2-0.1,0.4-0.3,0.5c0,0,0,0,0,0l-2.6,1.6L77,45.6c-0.1,0.1-0.2,0.1-0.3,0
		c-0.1,0-0.1-0.1-0.1-0.2v-7.8c0-0.3,0.1-0.5,0.4-0.7l8.1-5c0.1,0,0.1,0,0.2,0c0,0,0,0,0,0C85.3,31.9,85.3,32,85.3,32.1z"/>
	<path class="st33" d="M102,16.8v12c0,0.3-0.2,0.6-0.4,0.8c0,0,0,0,0,0l-3.9,2.4l-8.1,5c-0.1,0.1-0.3,0.1-0.4,0
		c-0.1-0.1-0.2-0.2-0.2-0.3V25.1c0-0.4,0.2-0.8,0.6-1l12.1-7.4c0.1-0.1,0.2-0.1,0.3,0c0,0,0,0,0.1,0C101.9,16.6,102,16.7,102,16.8z"
		/>
	<path class="st33" d="M46.5,163.4v12c0,0.3-0.2,0.6-0.4,0.8c0,0,0,0,0,0l-3.9,2.4l-8.1,5c-0.1,0.1-0.3,0.1-0.4,0
		c-0.1-0.1-0.2-0.2-0.2-0.3v-11.7c0-0.4,0.2-0.8,0.6-1l12.1-7.4c0.1-0.1,0.2-0.1,0.3,0c0,0,0,0,0.1,0
		C46.5,163.2,46.5,163.2,46.5,163.4z"/>
	<path class="st18" d="M175.5,56.1v13.7c0,0.4-0.2,0.7-0.5,0.9c0,0,0,0,0,0l-4.5,2.8l-9.2,5.7c-0.2,0.1-0.3,0.1-0.5,0
		c-0.1-0.1-0.2-0.2-0.2-0.4V65.5c0-0.5,0.3-0.9,0.7-1.2l13.8-8.5c0.1-0.1,0.2-0.1,0.3,0c0,0,0,0,0.1,0
		C175.5,55.9,175.5,56,175.5,56.1z"/>
	<path class="st18" d="M66.7,19.4v13.7c0,0.4-0.2,0.7-0.5,0.9c0,0,0,0,0,0l-4.5,2.8l-9.2,5.7c-0.2,0.1-0.3,0.1-0.5,0
		c-0.1-0.1-0.2-0.2-0.2-0.4V28.8c0-0.5,0.3-0.9,0.7-1.2l13.8-8.5c0.1-0.1,0.2-0.1,0.3,0c0,0,0,0,0.1,0
		C66.7,19.2,66.7,19.3,66.7,19.4z"/>
	<path class="st18" d="M61.4,54.2v13.7c0,0.4-0.2,0.7-0.5,0.9c0,0,0,0,0,0l-4.5,2.8l-9.2,5.7c-0.2,0.1-0.3,0.1-0.5,0
		c-0.1-0.1-0.2-0.2-0.2-0.4V63.6c0-0.5,0.3-0.9,0.7-1.2l13.8-8.5c0.1-0.1,0.2-0.1,0.3,0c0,0,0,0,0.1,0C61.3,54,61.4,54.1,61.4,54.2z
		"/>
	<path class="st18" d="M69.2,73.4v11.5c0,0.3-0.1,0.6-0.4,0.8c0,0,0,0,0,0L65,88l-7.8,4.8c-0.1,0.1-0.3,0.1-0.4,0
		c-0.1-0.1-0.2-0.2-0.2-0.3V81.2c0-0.4,0.2-0.8,0.6-1l11.5-7.1c0.1-0.1,0.2-0.1,0.3,0c0,0,0,0,0.1,0C69.1,73.2,69.2,73.3,69.2,73.4z
		"/>
</g>
<g>
	<g>
		<g>
			<path class="st26" d="M163.4,53.3v17c0,0.5-0.2,0.9-0.6,1.2c0,0,0,0-0.1,0l-5.6,3.4l-11.5,7.1c-0.2,0.1-0.4,0.1-0.6,0l-2.3-1.4
				c-0.2-0.1-0.3-0.3-0.3-0.6V63.6c0-0.6,0.3-1.2,0.9-1.6l16.9-10.4c0.2-0.1,0.5-0.1,0.7,0l2.1,1.3c0,0,0.1,0,0.1,0
				C163.3,53,163.4,53.2,163.4,53.3z"/>
			<path class="st27" d="M163.4,53.3v17c0,0.5-0.2,0.9-0.6,1.2c0,0,0,0-0.1,0l-5.6,3.4l-11.5,7.1c-0.2,0.1-0.4,0.1-0.6,0
				c-0.1-0.1-0.3-0.3-0.3-0.5V65c0-0.6,0.3-1.2,0.8-1.5L162.7,53c0.1-0.1,0.3-0.1,0.4,0c0,0,0.1,0,0.1,0
				C163.3,53,163.4,53.2,163.4,53.3z"/>
		</g>
		<path class="st10" d="M154.9,63.9l1.1,1.7c0.1,0.1,0.2,0.1,0.3,0.1l2.5-1c0.2-0.1,0.4,0.2,0.3,0.4l-2,3c0,0.1-0.1,0.1,0,0.2
			l0.5,2.7c0,0.2-0.1,0.3-0.3,0.3l-2.6,0c-0.1,0-0.1,0-0.2,0.1l-2.4,2.6c-0.2,0.2-0.5,0-0.4-0.2l0.4-2.7c0-0.1,0-0.2-0.2-0.3
			l-1.9-0.8c-0.2-0.1-0.2-0.3,0-0.5l3-2c0,0,0.1-0.1,0.1-0.1l1.3-3.4C154.6,63.8,154.8,63.8,154.9,63.9z"/>
	</g>
	<g>
		<g>
			<path class="st34" d="M119.2,6.1v11.5c0,0.3-0.1,0.6-0.4,0.8c0,0,0,0,0,0l-3.8,2.3l-7.8,4.8c-0.1,0.1-0.3,0.1-0.4,0l-1.5-0.9
				c-0.1-0.1-0.2-0.2-0.2-0.4V13.1c0-0.4,0.2-0.8,0.6-1.1l11.4-7c0.1-0.1,0.3-0.1,0.5,0l1.4,0.9c0,0,0,0,0.1,0
				C119.2,5.9,119.2,6,119.2,6.1z"/>
			<path class="st35" d="M119.2,6.1v11.5c0,0.3-0.1,0.6-0.4,0.8c0,0,0,0,0,0l-3.8,2.3l-7.8,4.8c-0.1,0.1-0.3,0.1-0.4,0
				c-0.1-0.1-0.2-0.2-0.2-0.3V14c0-0.4,0.2-0.8,0.6-1l11.5-7.1c0.1-0.1,0.2-0.1,0.3,0c0,0,0,0,0.1,0C119.2,5.9,119.2,6,119.2,6.1z"
				/>
		</g>
		<g>
			<path class="st10" d="M114.7,12.6c0,0.9-0.7,2.1-1.6,2.6c-0.9,0.5-1.6,0.3-1.6-0.7c0-0.9,0.7-2.1,1.6-2.6
				C114,11.4,114.7,11.7,114.7,12.6z"/>
			<path class="st10" d="M116.8,17.2l-7.4,4.5c0-2.1,1.7-4.7,3.7-5.9c1-0.6,2-0.8,2.6-0.5C116.4,15.5,116.8,16.1,116.8,17.2z"/>
		</g>
	</g>
	<g>
		<path class="st36" d="M18.1,86.1v11.5c0,0.3-0.1,0.6-0.4,0.8c0,0,0,0,0,0l-3.8,2.3l-7.8,4.8c-0.1,0.1-0.3,0.1-0.4,0l-1.5-0.9
			c-0.1-0.1-0.2-0.2-0.2-0.4V93c0-0.4,0.2-0.8,0.6-1.1l11.4-7c0.1-0.1,0.3-0.1,0.5,0l1.4,0.9c0,0,0,0,0.1,0
			C18,85.9,18.1,86,18.1,86.1z"/>
		<path class="st37" d="M18.1,86.1v11.5c0,0.3-0.1,0.6-0.4,0.8c0,0,0,0,0,0l-3.8,2.3l-7.8,4.8c-0.1,0.1-0.3,0.1-0.4,0
			c-0.1-0.1-0.2-0.2-0.2-0.3V93.9c0-0.4,0.2-0.8,0.6-1l11.5-7.1c0.1-0.1,0.2-0.1,0.3,0c0,0,0,0,0.1,0C18,85.9,18.1,86,18.1,86.1z"/>
		<g>
			<path class="st10" d="M11.5,100.5l-3.4-1.3c-0.3-0.1-0.3-0.6,0-1.1c0.3-0.5,0.8-0.8,1.1-0.7l1.9,0.8l3.7-8.3
				c0.2-0.5,0.7-0.9,1.1-0.9c0.4,0,0.5,0.4,0.3,1L11.5,100.5z"/>
		</g>
	</g>
	<g>
		<path class="st26" d="M48.4,51.5V63c0,0.3-0.1,0.6-0.4,0.8c0,0,0,0,0,0l-3.8,2.3l-7.8,4.8c-0.1,0.1-0.3,0.1-0.4,0l-1.5-0.9
			c-0.1-0.1-0.2-0.2-0.2-0.4V58.4c0-0.4,0.2-0.8,0.6-1.1l11.4-7c0.1-0.1,0.3-0.1,0.5,0l1.4,0.9c0,0,0,0,0.1,0
			C48.3,51.3,48.4,51.4,48.4,51.5z"/>
		<path class="st27" d="M48.4,51.5V63c0,0.3-0.1,0.6-0.4,0.8c0,0,0,0,0,0l-3.8,2.3l-7.8,4.8c-0.1,0.1-0.3,0.1-0.4,0
			c-0.1-0.1-0.2-0.2-0.2-0.3V59.3c0-0.4,0.2-0.8,0.6-1l11.5-7.1c0.1-0.1,0.2-0.1,0.3,0c0,0,0,0,0.1,0C48.3,51.3,48.4,51.4,48.4,51.5
			z"/>
		<path class="st10" d="M40,63.3c-0.1,0.6-0.6,1.1-1.1,1.1c-0.5,0-0.9-0.5-0.8-1.1c0.1-0.6,0.6-1.1,1.1-1.1
			C39.8,62.2,40.1,62.7,40,63.3z"/>
		<path class="st10" d="M43.4,61.4c-0.1,0.6-0.6,1.1-1.1,1.1s-0.9-0.5-0.8-1.1c0.1-0.6,0.6-1.1,1.1-1.1
			C43.2,60.3,43.5,60.8,43.4,61.4z"/>
		<path class="st10" d="M46.8,59.5c-0.1,0.6-0.6,1.1-1.1,1.1s-0.9-0.5-0.8-1.1c0.1-0.6,0.6-1.1,1.1-1.1S46.9,58.9,46.8,59.5z"/>
	</g>
	<g>
		<g>
			<g>
				<path class="st38" d="M77.2,81.5V93c0,0.3-0.1,0.6-0.4,0.8c0,0,0,0,0,0L73,96.1l-7.8,4.8c-0.1,0.1-0.3,0.1-0.4,0l-1.5-0.9
					c-0.1-0.1-0.2-0.2-0.2-0.4V88.5c0-0.4,0.2-0.8,0.6-1.1l11.4-7c0.1-0.1,0.3-0.1,0.5,0l1.4,0.9c0,0,0,0,0.1,0
					C77.1,81.3,77.2,81.4,77.2,81.5z"/>
				<path class="st39" d="M77.2,81.5V93c0,0.3-0.1,0.6-0.4,0.8c0,0,0,0,0,0L73,96.1l-7.8,4.8c-0.1,0.1-0.3,0.1-0.4,0
					c-0.1-0.1-0.2-0.2-0.2-0.3V89.4c0-0.4,0.2-0.8,0.6-1l11.5-7.1c0.1-0.1,0.2-0.1,0.3,0c0,0,0,0,0.1,0
					C77.1,81.3,77.2,81.4,77.2,81.5z"/>
			</g>
		</g>
		<g>
			<polygon class="st10" points="74.9,86.1 74.9,86.9 71.2,91.2 67.5,91.5 67.5,90.7 			"/>
			<polygon class="st10" points="71.2,91.7 74.9,87.3 74.9,91.4 67.5,96.1 67.5,92 			"/>
		</g>
	</g>
	<g>
		<g>
			<path class="st40" d="M165.5,17v17c0,0.5-0.2,0.9-0.6,1.2c0,0,0,0-0.1,0l-9.8,6l-11.5,7.1c-0.2,0.1-0.4,0.1-0.6,0l-2.3-1.4
				c-0.2-0.1-0.3-0.3-0.3-0.6V29.9c0-0.6,0.3-1.2,0.9-1.6l21.2-13c0.2-0.1,0.5-0.1,0.7,0l2.1,1.3c0,0,0.1,0,0.1,0
				C165.4,16.8,165.5,16.9,165.5,17z"/>
			<path class="st8" d="M165.5,17v17c0,0.5-0.2,0.9-0.6,1.2c0,0,0,0-0.1,0l-21.3,13.1c-0.2,0.1-0.4,0.1-0.6,0
				c-0.1-0.1-0.3-0.3-0.3-0.5V31.2c0-0.6,0.3-1.2,0.8-1.5l21.4-13.1c0.1-0.1,0.3-0.1,0.4,0c0,0,0.1,0,0.1,0
				C165.4,16.8,165.5,16.9,165.5,17z"/>
		</g>
		<g>
			<path class="st13" d="M158.7,16.3v3.2c0,0.1,0,0.2-0.1,0.2c0,0,0,0,0,0l-6.9,4.3l-2.2,1.3c0,0-0.1,0-0.1,0l-0.4-0.3
				c0,0-0.1-0.1-0.1-0.1v-3.1c0-0.1,0.1-0.2,0.2-0.3l9.1-5.6c0,0,0.1,0,0.1,0L158.7,16.3C158.6,16.2,158.6,16.2,158.7,16.3
				C158.7,16.2,158.7,16.2,158.7,16.3z"/>
			<path class="st10" d="M158.7,16.3v3.2c0,0.1,0,0.2-0.1,0.2c0,0,0,0,0,0l-9.1,5.6c0,0-0.1,0-0.1,0c0,0,0,0,0-0.1v-3.1
				c0-0.1,0.1-0.2,0.2-0.3l9.1-5.6C158.6,16.2,158.6,16.2,158.7,16.3C158.6,16.2,158.6,16.2,158.7,16.3
				C158.7,16.2,158.7,16.2,158.7,16.3z"/>
		</g>
		<path class="st13" d="M164.2,13.5C164.1,13.5,164.1,13.5,164.2,13.5l-0.4-0.3c0,0-0.1,0-0.1,0l-9.1,5.6c-0.1,0.1-0.2,0.2-0.2,0.3
			v3.3l0.4,0.3v-0.1l0,0c0,0,0.1,0,0.1,0l2.2-1.3l6.9-4.3c0,0,0,0,0,0c0.1,0,0.1-0.1,0.1-0.2L164.2,13.5
			C164.2,13.5,164.2,13.5,164.2,13.5z"/>
		<path class="st40" d="M149.1,20.7l-2.2-1.3l0,0c-0.2-0.1-0.4-0.1-0.6,0l-4.9,3.1c-0.6,0.4-1,1-1,1.8v6.5l6.8-4.3v-3.4l0.2,0.3
			c0,0,0.8,0.2,0.9,0.2c0.1,0,1.3,0.8,1.3,0.8v-3L149.1,20.7z"/>
		<path class="st8" d="M148.6,20.7l-4.9,3.1c-0.6,0.4-1,1-1,1.8v6.5l6.8-4.3v-6.7C149.4,20.7,149,20.5,148.6,20.7z"/>
		<path class="st10" d="M164.2,13.5C164.1,13.5,164.1,13.5,164.2,13.5C164.1,13.4,164.1,13.4,164.2,13.5l-9.2,5.6
			c-0.1,0.1-0.2,0.2-0.2,0.3v3.3l9.4-5.8v-0.6L164.2,13.5C164.2,13.5,164.2,13.5,164.2,13.5z"/>
	</g>
</g>
<g>
	<polygon class="st41" points="97.8,53.6 82.1,63.3 82.1,63.3 79.9,64.7 82.1,65.9 82.1,123.2 130.1,152.5 152.8,138.5 	"/>
	<g>
		<path class="st10" d="M187.3,131.8l-43.4,26.7l-12.4-8.4c-5.5-3.7-8.8-9.9-8.8-16.6v-0.2c0-3.5-0.9-6.9-2.5-9.9
			c-1.7-3.2-4.3-6-7.5-8c-2.1-1.3-4.4-1.2-6.3-0.2l0,0c-0.3,0.1-0.6,0.3-0.8,0.5c-1.5,1.1-2.6,2.9-2.6,5.1v3.1
			c0,3.8-4.2,6.2-7.5,4.1h0c-3.1-2-5-5.4-5-9.1V57.5c0-3-2.1-5.3-4.7-5.9c-2.6,0.7-5.1,1.2-5.1,1.2l42.2-26.1l1.8-1.1
			c0.2-0.1,0.4-0.2,0.6-0.3c0.6-0.3,1.3-0.5,1.9-0.5c3.4-0.3,6.6,2.2,6.6,6v61.6c0,1.9,0.5,3.6,1.4,5.2l13.7-8.5
			c0.3-0.2,0.6-0.4,0.9-0.6l0,0c0.9-0.4,1.9-0.7,2.9-0.7c1.1,0,2.3,0.3,3.3,1c6.2,3.8,10,10.6,10,17.8v0.2c0,6.7,3.3,12.9,8.8,16.6
			L187.3,131.8z"/>
		<path class="st10" d="M140.6,103.4l2.4-1.5C142.4,102.6,141.6,103.1,140.6,103.4z"/>
		<path class="st42" d="M117.1,119.3l-15.9,9.7l-0.1-1c1.1-0.9,1.9-2.2,1.9-3.9V121c0-2.2,1.1-4,2.6-5.1c0.3-0.2,0.5-0.4,0.8-0.5
			l0,0c1.9-1,4.2-1,6.3,0.2C114.1,116.4,115.9,118.2,117.1,119.3z"/>
		<path class="st42" d="M90.5,58.2v-0.7c0-4.7-5.2-7.6-9.2-5.1l0,0c-1.7,1.1-2.7,2.9-2.7,4.9v8.2L90.5,58.2z"/>
		<polygon class="st43" points="187.3,131.8 187.3,133 143.9,159.7 143.9,158.6 		"/>
		<path class="st44" d="M135.2,97.6l-28.8,17.7l0,0c-0.2,0.1-0.4,0.2-0.6,0.4c-0.1,0-0.1,0.1-0.2,0.1c-1.5,1.1-2.6,2.9-2.6,5.1v3.1
			c0,3.8-4.2,6.2-7.5,4.1h0c-3.1-2-5-5.4-5-9.1V57.5c0-3-2.1-5.3-4.7-5.9c-2.6,0.7-5.1,1.2-5.1,1.2l42.2-26.1l1.8-1.1
			c0.2-0.1,0.4-0.2,0.6-0.3c0.6-0.3,1.3-0.5,1.9-0.5c3.4-0.3,6.6,2.2,6.6,6v61.6C133.9,94.2,134.3,96,135.2,97.6z"/>
		<path class="st44" d="M134.1,97.3l-27.6,17c-0.2-0.4-0.3-0.9-0.4-1.3l27.4-16.8C133.6,96.5,133.8,96.9,134.1,97.3z"/>
		<path class="st45" d="M85.8,51.6c2.6,0.6,4.7,2.9,4.7,5.9v61.6c0,3.7,1.9,7.1,5,9.1h0c3.3,2,7.5-0.3,7.5-4.1V121
			c0-2.2,1.1-4,2.6-5.1c0.3-0.2,0.5-0.4,0.8-0.5l0,0c1.9-1,4.2-1,6.3,0.2c3.2,2,5.8,4.8,7.5,8c1.6,3,2.5,6.4,2.5,9.9v0.2
			c0,6.7,3.3,12.9,8.8,16.6l12.4,8.4v1.2l-12.8-8.6c0,0-4.3-3.6-5.5-5.3c-1.3-1.8-2.8-4.9-3.2-7.3c-0.5-2.4-0.5-5.3-0.6-7
			c-0.1-1.7-1-4.9-2.3-7.6c-2.1-4.2-5.1-6.4-7.2-7.7c-1.3-0.8-4.1-1.5-6.2,0.1c0,0-2.2,1.5-2.3,4.6c-0.1,3.2,0.5,5.7-2.2,7.7
			c-2.9,2.2-4.8,1.3-6.2,0.6c-0.4-0.2-2.4-1.4-4.1-4c-2.1-3.3-1.7-6.3-1.7-6.3l-0.1-61.2c0,0,0.3-4.1-3.8-5.3c0,0-3.6-0.8-5.5,2.1
			c0,0-0.7,0.9-0.8,2.7c-0.1,1.7,0.1,7.8,0.1,7.8l-0.9,0.6v-8.4c0,0,0.1-1.5,0.8-2.7C80.1,53,82.3,51,85.8,51.6z"/>
		<path class="st44" d="M103.9,111.2C103.9,111.2,103.9,111.2,103.9,111.2C103.9,111.2,103.9,111.2,103.9,111.2z"/>
	</g>
	<g>
		<path class="st26" d="M109.1,60.8L92.6,70.9c-0.2,0.1-0.6,0-0.6-0.3v-10c0-0.4,0.2-0.7,0.5-0.9l16.6-10.2c0.2-0.1,0.4,0,0.4,0.2
			v10.1C109.6,60.2,109.4,60.5,109.1,60.8z"/>
		<path class="st46" d="M132.4,49.5L92.3,74.2c-0.1,0.1-0.2,0-0.2-0.1v-1.1c0-0.1,0.1-0.2,0.1-0.3L132.3,48c0.1-0.1,0.3,0,0.3,0.1
			v1.1C132.6,49.3,132.5,49.4,132.4,49.5z"/>
		<path class="st46" d="M132.4,46.4L111,59.6c-0.1,0.1-0.2,0-0.2-0.1v-1.1c0-0.1,0.1-0.2,0.1-0.3l21.5-13.2c0.1-0.1,0.3,0,0.3,0.1
			v1.1C132.6,46.3,132.5,46.4,132.4,46.4z"/>
		<path class="st46" d="M132.4,43.2L111,56.4c-0.1,0.1-0.2,0-0.2-0.1v-1.1c0-0.1,0.1-0.2,0.1-0.3l21.5-13.2c0.1-0.1,0.3,0,0.3,0.1
			v1.1C132.6,43,132.5,43.2,132.4,43.2z"/>
		<path class="st46" d="M132.4,40L111,53.2c-0.1,0.1-0.2,0-0.2-0.1v-1.1c0-0.1,0.1-0.2,0.1-0.3l21.5-13.2c0.1-0.1,0.3,0,0.3,0.1v1.1
			C132.6,39.8,132.5,39.9,132.4,40z"/>
		<path class="st26" d="M132.4,36.8L111,49.9c-0.1,0.1-0.2,0-0.2-0.1v-1.1c0-0.1,0.1-0.2,0.1-0.3l21.5-13.2c0.1-0.1,0.3,0,0.3,0.1
			v1.1C132.6,36.6,132.5,36.7,132.4,36.8z"/>
		<path class="st46" d="M110.9,91.7l9.3-5.7c0.1-0.1,0.2,0,0.2,0.1v1.1c0,0.1-0.1,0.3-0.2,0.3l-9.2,5.7c-0.1,0.1-0.2,0-0.2-0.1v-1.1
			C110.7,91.8,110.8,91.8,110.9,91.7z"/>
		<path class="st46" d="M132.6,78.7v1.1c0,0.1-0.1,0.2-0.2,0.3l-10.5,6.5c-0.1,0.1-0.3,0-0.3-0.1v-1.1c0-0.1,0.1-0.2,0.2-0.3
			l10.5-6.4C132.4,78.4,132.6,78.5,132.6,78.7z"/>
		<path class="st46" d="M132.4,76.8l-23.5,14.5c-0.1,0.1-0.2,0-0.2-0.1V90c0-0.1,0.1-0.2,0.1-0.3l23.5-14.5c0.1-0.1,0.3,0,0.3,0.1
			v1.1C132.6,76.6,132.5,76.7,132.4,76.8z"/>
		<path class="st46" d="M132.4,73.6L111,86.7c-0.1,0.1-0.2,0-0.2-0.1v-1.1c0-0.1,0.1-0.2,0.1-0.3l21.5-13.2c0.1-0.1,0.3,0,0.3,0.1
			v1.1C132.6,73.4,132.5,73.5,132.4,73.6z"/>
		<path class="st46" d="M132.4,70.4L111,83.5c-0.1,0.1-0.2,0-0.2-0.1v-1.1c0-0.1,0.1-0.2,0.1-0.3l21.5-13.2c0.1-0.1,0.3,0,0.3,0.1
			v1.1C132.6,70.2,132.5,70.3,132.4,70.4z"/>
		<path class="st46" d="M132.4,92.4L111,105.6c-0.1,0.1-0.2,0-0.2-0.1v-1.1c0-0.1,0.1-0.2,0.1-0.3l21.5-13.2c0.1-0.1,0.3,0,0.3,0.1
			v1.1C132.6,92.3,132.5,92.4,132.4,92.4z"/>
		<path class="st8" d="M132.5,95.3l-26.4,16.2c-0.1,0.1-0.2,0-0.2-0.1c0,0,0,0,0,0c0-0.2,0-0.5,0-0.8v-0.4c0-0.1,0.1-0.2,0.1-0.3
			c0,0,0,0,0,0l26.4-16.2c0.1-0.1,0.2,0,0.2,0.1c0,0.3,0.1,0.6,0.1,0.9C132.8,95,132.7,95.2,132.5,95.3z"/>
		<path class="st46" d="M133.3,97.7l-26.6,16.3c-0.1,0.1-0.3,0-0.4-0.1c-0.1-0.3-0.2-0.5-0.2-0.8c0-0.1,0-0.3,0.2-0.4l26.6-16.4
			c0.1-0.1,0.2,0,0.3,0.1c0.1,0.2,0.2,0.5,0.3,0.7C133.5,97.4,133.4,97.6,133.3,97.7z"/>
		<path class="st46" d="M132.4,89.2L111,102.4c-0.1,0.1-0.2,0-0.2-0.1v-1.1c0-0.1,0.1-0.2,0.1-0.3l21.5-13.2c0.1-0.1,0.3,0,0.3,0.1
			v1.1C132.6,89,132.5,89.1,132.4,89.2z"/>
		<path class="st46" d="M132.4,86L111,99.2c-0.1,0.1-0.2,0-0.2-0.1v-1.1c0-0.1,0.1-0.2,0.1-0.3l21.5-13.2c0.1-0.1,0.3,0,0.3,0.1v1.1
			C132.6,85.8,132.5,85.9,132.4,86z"/>
		<path class="st46" d="M110.9,94.4l12.7-7.8c0.1,0,0.2,0,0.2,0.1V88c0,0.1,0,0.2-0.1,0.2L111,95.9c-0.1,0.1-0.2,0-0.2-0.1v-1.1
			C110.7,94.6,110.8,94.5,110.9,94.4z"/>
		<path class="st24" d="M132.6,81.4v1.1c0,0.1-0.1,0.2-0.2,0.3l-7.2,4.4c-0.1,0.1-0.2,0-0.2-0.1v-1.2c0-0.1,0-0.2,0.1-0.2l7.2-4.4
			C132.4,81.2,132.6,81.3,132.6,81.4z"/>
		<path class="st46" d="M107.5,95.3l-14.9,9.2c-0.1,0.1-0.2,0-0.2-0.1v-1.1c0-0.1,0.1-0.2,0.1-0.3l14.9-9.2c0.1-0.1,0.3,0,0.3,0.1
			V95C107.7,95.1,107.6,95.2,107.5,95.3z"/>
		<path class="st39" d="M107.5,92.1l-14.9,9.2c-0.1,0.1-0.2,0-0.2-0.1V100c0-0.1,0.1-0.2,0.1-0.3l14.9-9.2c0.1-0.1,0.3,0,0.3,0.1
			v1.1C107.7,91.9,107.6,92,107.5,92.1z"/>
		<path class="st39" d="M107.5,89.2l-14.9,9.2c-0.1,0.1-0.2,0-0.2-0.1V93c0-0.1,0.1-0.2,0.1-0.3l14.9-9.2c0.1-0.1,0.3,0,0.3,0.1v5.2
			C107.7,89,107.6,89.1,107.5,89.2z"/>
		<path class="st46" d="M107.5,107.7l-12.8,7.9c-0.1,0.1-0.2,0-0.2-0.1v-1.1c0-0.1,0.1-0.2,0.1-0.3l12.8-7.9c0.1-0.1,0.3,0,0.3,0.1
			v1.1C107.7,107.5,107.6,107.6,107.5,107.7z"/>
		<path class="st46" d="M107.5,104.5l-14.9,9.2c-0.1,0.1-0.2,0-0.2-0.1v-1.1c0-0.1,0.1-0.2,0.1-0.3l14.9-9.2c0.1-0.1,0.3,0,0.3,0.1
			v1.1C107.7,104.3,107.6,104.4,107.5,104.5z"/>
		<path class="st46" d="M107.5,101.2l-14.9,9.2c-0.1,0.1-0.2,0-0.2-0.1v-1.1c0-0.1,0.1-0.2,0.1-0.3l14.9-9.2c0.1-0.1,0.3,0,0.3,0.1
			v1.1C107.7,101.1,107.6,101.2,107.5,101.2z"/>
		<path class="st46" d="M107.5,98l-14.9,9.2c-0.1,0.1-0.2,0-0.2-0.1v-1.1c0-0.1,0.1-0.2,0.1-0.3l14.9-9.2c0.1-0.1,0.3,0,0.3,0.1v1.1
			C107.7,97.8,107.6,98,107.5,98z"/>
		<path class="st46" d="M121.6,59.6L92.3,77.7c-0.1,0.1-0.2,0-0.2-0.1v-1.1c0-0.1,0.1-0.2,0.1-0.3l29.3-18.1c0.1-0.1,0.3,0,0.3,0.1
			v1.1C121.8,59.5,121.7,59.6,121.6,59.6z"/>
		<path class="st46" d="M92.2,79.7l13.4-8.3c0.1-0.1,0.2,0,0.2,0.1v1.1c0,0.1-0.1,0.3-0.2,0.3l-13.3,8.2c-0.1,0.1-0.2,0-0.2-0.1V80
			C92.1,79.9,92.1,79.8,92.2,79.7z"/>
		<path class="st46" d="M132.6,55.1v1.1c0,0.1-0.1,0.2-0.2,0.3l-25,15.4c-0.1,0.1-0.3,0-0.3-0.2v-1c0-0.1,0.1-0.3,0.2-0.3l25-15.4
			C132.4,54.9,132.6,55,132.6,55.1z"/>
		<path class="st46" d="M132.4,60L92.3,84.7c-0.1,0.1-0.2,0-0.2-0.1v-1.1c0-0.1,0.1-0.2,0.1-0.3l40.1-24.7c0.1-0.1,0.3,0,0.3,0.1
			v1.1C132.6,59.9,132.5,60,132.4,60z"/>
		<path class="st46" d="M92.2,86.8l20.2-12.4c0.1-0.1,0.3,0,0.3,0.1v1c0,0.1-0.1,0.2-0.2,0.3L92.3,88.2c-0.1,0.1-0.2,0-0.2-0.1V87
			C92.1,86.9,92.1,86.8,92.2,86.8z"/>
		<path class="st46" d="M132.6,62.2v1.1c0,0.1-0.1,0.2-0.2,0.3l-18.1,11.2c-0.1,0.1-0.3,0-0.3-0.2v-0.9c0-0.1,0.1-0.3,0.2-0.4
			L132.3,62C132.4,62,132.6,62.1,132.6,62.2z"/>
		<path class="st46" d="M132.4,67.1L92.3,91.8c-0.1,0.1-0.2,0-0.2-0.1v-1.1c0-0.1,0.1-0.2,0.1-0.3l40.1-24.7c0.1-0.1,0.3,0,0.3,0.1
			v1.1C132.6,66.9,132.5,67,132.4,67.1z"/>
		<path class="st8" d="M105.4,116c-1.4,1.1-2.4,2.9-2.4,5v1.8c0,0.1,0,0.1-0.1,0.2c-0.7,0.5-5.1,3.1-5.9,3.6c-0.1,0-0.2,0-0.2,0
			c-0.9-0.6-1.7-1.3-2.4-2.1c-0.3-0.3-0.5-0.6-0.7-0.9c0,0,0,0,0,0c-1.3-2.2-1.4-5.3-1.1-5.4l11-6.8c0,0,0.2-0.1,0.3-0.1
			c0.1,0,0.3,0,0.3,0.4c0,0,0,0,0,0.1v0C104.3,113.2,104.7,114.7,105.4,116z"/>
		<path class="st46" d="M103,123.8v0.3c0,0.3,0,0.5-0.1,0.7l-3.8,2.3c-0.4,0.2-0.9,0.3-1.3,0.1c-0.1,0-0.2-0.1-0.2-0.1L103,123.8z"
			/>
		<path class="st27" d="M144.5,113.7l-20.2,12.5c-0.4,0.2-0.9,0.1-1-0.4c-0.4-1.4-0.9-2.7-1.6-3.9c-1.7-3.2-4.3-6-7.5-8
			c-0.5-0.3-1.1-0.6-1.7-0.7c-0.3-0.1-0.4-0.5-0.1-0.7l3.2-2l11-6.8l5.6-3.5c0.4-0.3,0.9-0.4,1.4-0.3c0.7,0.1,1.5,0.4,2.2,0.8
			c3.2,2,5.8,4.8,7.5,8c0.6,1.2,1.2,2.5,1.6,3.8C145.1,113,144.9,113.5,144.5,113.7z"/>
		<path class="st46" d="M154,90.2l-9.8,6l-6.2,3.8c-0.1,0.1-0.3,0.1-0.4,0c-0.1-0.1-0.2-0.2-0.4-0.2c-0.2-0.1-0.4-0.2-0.6-0.3
			c0,0,0,0,0,0c-0.1,0,0-0.1,0-0.1c0,0,0,0,0,0l7.6-4.7l8.3-5.1C153.1,89.7,153.5,89.9,154,90.2C154,90.2,154,90.2,154,90.2z"/>
		<path class="st46" d="M156.3,91.8c0.1,0.1,0.1,0.2,0,0.3l-12,7.4l-3.7,2.3c-0.1,0.1-0.3,0.1-0.4,0c-0.1-0.1-0.3-0.3-0.5-0.4
			c-0.2-0.2-0.2-0.5,0-0.6l4.6-2.9l10.9-6.7c0.1-0.1,0.3-0.1,0.4,0C155.8,91.4,156,91.6,156.3,91.8z"/>
		<path class="st46" d="M158.1,94.2l-15.6,9.6c-0.2,0.1-0.4,0.1-0.5-0.1c-0.1-0.2-0.3-0.3-0.4-0.5c-0.1-0.1-0.1-0.4,0.1-0.5l1.4-0.9
			l14.2-8.8c0.2-0.1,0.4-0.1,0.6,0.1c0.1,0.1,0.2,0.2,0.4,0.4C158.4,93.8,158.3,94.1,158.1,94.2z"/>
		<path class="st46" d="M160,96.3l-15.7,9.7c-0.2,0.1-0.5,0.1-0.6-0.1c-0.1-0.2-0.2-0.3-0.3-0.4c-0.1-0.2-0.1-0.4,0.1-0.5l15.7-9.7
			c0.2-0.1,0.4-0.1,0.6,0.1c0.1,0.2,0.3,0.3,0.4,0.5C160.2,96,160.1,96.2,160,96.3z"/>
		<path class="st46" d="M161.5,98.6C161.5,98.6,161.5,98.6,161.5,98.6l-15.9,9.8c-0.2,0.1-0.4,0-0.5-0.2c-0.1-0.1-0.1-0.3-0.2-0.4
			c0-0.1-0.1-0.1-0.1-0.2c-0.1-0.2,0-0.3,0.1-0.3c0,0,0,0,0,0l16-9.9c0.1-0.1,0.2,0,0.2,0.1c0.2,0.3,0.3,0.5,0.5,0.8c0,0,0,0,0,0
			C161.6,98.4,161.6,98.5,161.5,98.6z"/>
		<path class="st46" d="M162.7,101.1l-16.2,10c-0.1,0-0.2,0-0.2-0.1c-0.1-0.3-0.2-0.7-0.3-1c0-0.1,0-0.2,0.1-0.2l16.2-10
			c0.1-0.1,0.2,0,0.2,0.1c0.1,0.3,0.3,0.6,0.4,1C162.8,101,162.7,101.1,162.7,101.1z"/>
		<path class="st46" d="M163.8,105.6c0,0.2-0.1,0.3-0.2,0.4l-39.2,24.2c-0.1,0.1-0.2,0-0.2-0.1V129c0-0.1,0.1-0.2,0.1-0.3l39.1-24.1
			c0.1-0.1,0.3,0,0.3,0.1C163.8,105.1,163.8,105.3,163.8,105.6z"/>
		<path class="st46" d="M164,109.5c0,0.1-0.1,0.3-0.2,0.3l-39.5,24.3c0,0-0.1,0-0.1,0c-0.1,0-0.2-0.1-0.2-0.2v-1.1
			c0-0.1,0-0.1,0-0.1c0,0,0.1-0.1,0.1-0.1l39.4-24.3c0.1-0.1,0.3,0,0.3,0.2C164,108.9,164,109.2,164,109.5z"/>
		<path class="st46" d="M164.6,113c0,0.2,0,0.3-0.2,0.4l-39.1,24.1c-0.1,0.1-0.3,0-0.3-0.1c-0.1-0.3-0.2-0.6-0.2-0.9
			c0-0.1,0-0.2,0.1-0.3l39.2-24.1c0.1-0.1,0.3,0,0.3,0.1C164.4,112.5,164.5,112.7,164.6,113z"/>
		<path class="st46" d="M165.6,116.1c0.1,0.2,0,0.4-0.2,0.5l-39,24c-0.1,0.1-0.2,0-0.3-0.1c-0.1-0.3-0.2-0.5-0.4-0.8
			c-0.1-0.1,0-0.3,0.1-0.4l39.1-24.1c0.1-0.1,0.3,0,0.4,0.1C165.5,115.7,165.5,115.9,165.6,116.1z"/>
		<path class="st46" d="M167.3,119.2c0.1,0.1,0,0.3-0.1,0.4l-39,24c-0.1,0.1-0.2,0-0.3-0.1c-0.2-0.2-0.3-0.5-0.5-0.7
			c-0.1-0.1,0-0.3,0.1-0.3l39-24c0.1-0.1,0.3,0,0.4,0.1C167,118.7,167.1,118.9,167.3,119.2z"/>
		<path class="st46" d="M169.3,121.8c0.1,0.1,0.1,0.3,0,0.4l-38.9,23.9c-0.1,0.1-0.2,0-0.3,0c-0.2-0.2-0.4-0.4-0.6-0.6
			c-0.1-0.1-0.1-0.3,0.1-0.4l38.8-23.9c0.1-0.1,0.3-0.1,0.4,0.1C169,121.4,169.1,121.6,169.3,121.8z"/>
		<path class="st46" d="M155.5,134.1c0.1,0.1,0.1,0.3,0,0.4l-22.4,13.8c-0.1,0.1-0.2,0-0.3,0c-0.3-0.2-0.5-0.4-0.8-0.6
			c-0.1-0.1-0.1-0.3,0-0.3l22.5-13.8c0.1-0.1,0.3-0.1,0.4,0C155.1,133.8,155.3,133.9,155.5,134.1z"/>
	</g>
</g>
<g>
	<linearGradient id="SVGID_1_" gradientUnits="userSpaceOnUse" x1="157.1525" y1="133.4013" x2="177.6955" y2="136.286">
		<stop  offset="0" style="stop-color:#076D6D"/>
		<stop  offset="1" style="stop-color:#076D6D;stop-opacity:0"/>
	</linearGradient>
	<path class="st47" d="M156.2,133.7l5.1,3l15.6,1.4l6.3-3.9l-13.9-1.7l-13.1,0.7C156.1,133.4,156.1,133.6,156.2,133.7z"/>
	<g>
		<g>
			<g>
				<path class="st8" d="M160.4,125.2l1,1l3.7,3.7l-8.6,3.7c-0.1,0.1-0.3,0-0.3-0.2c0-0.1,0-0.1,0-0.2L160.4,125.2z"/>
				<g>
					<path class="st20" d="M160.4,125.2l1,1l-0.7,1.9l-4.6,5.4c0-0.1,0-0.1,0-0.2L160.4,125.2z"/>
				</g>
			</g>
			<g>
				<path class="st21" d="M209.3,82.4l1.3,1.4l3.4,3.6l-48.1,41.9c0,0,0,0,0,0l0,0c-0.1,0.1-0.2,0.2-0.4,0.3
					c-0.4,0.3-0.8,0.4-1.3,0.4c-0.9,0.1-1.9-0.3-2.8-1.1c-0.3-0.3-0.6-0.6-0.8-0.9c0,0,0,0,0,0c-0.5-0.9-0.7-2-0.3-2.8
					c0.1-0.2,0.2-0.5,0.4-0.6c0,0,0.1-0.1,0.1-0.1l0.1-0.1c0,0,0,0,0.1,0c0,0,0,0,0,0L209.3,82.4z"/>
				<path class="st22" d="M209.3,82.4l1.3,1.4l-1.4,2.1l-48.5,42.2c0,0,0,0,0,0c0,0,0,0,0,0c-0.5-0.9-0.7-2-0.3-2.8
					c0.1-0.2,0.2-0.5,0.4-0.6c0,0,0.1-0.1,0.1-0.1l0.1-0.1c0,0,0,0,0.1,0c0,0,0,0,0,0L209.3,82.4z"/>
				<path class="st9" d="M213.7,82.8c1.4,1.3,1.7,3.3,0.7,4.4l0,0c-0.1,0.1-0.2,0.2-0.4,0.3c-0.4,0.3-0.8,0.4-1.3,0.4
					c-0.9,0.1-1.9-0.3-2.8-1.1c-1.2-1.1-1.6-2.6-1.1-3.7c0.1-0.2,0.2-0.5,0.4-0.6c0,0,0.1-0.1,0.1-0.1l0.1-0.1c0,0,0,0,0.1,0
					C210.7,81.3,212.4,81.6,213.7,82.8z"/>
				<path class="st23" d="M201.1,89.6l4.1-3.6c0,0,0,0,0,0c-0.2,0.2-0.3,0.4-0.4,0.6c-0.4,0.8-0.2,1.9,0.3,2.8
					c0.2,0.3,0.4,0.6,0.7,0.9c0.8,0.8,1.9,1.1,2.8,1.1c0.4,0,0.7-0.1,1-0.3c0.1,0,0.2-0.1,0.3-0.1l-3.9,3.4c0,0-0.2,0.1-0.3,0.2
					c-0.4,0.2-0.8,0.4-1.3,0.4c-0.9,0.1-1.9-0.3-2.8-1.1c-0.3-0.3-0.6-0.6-0.8-0.9c-0.6-0.9-0.7-2-0.3-2.8
					C200.7,90.1,200.8,89.9,201.1,89.6C201,89.6,201.1,89.6,201.1,89.6z"/>
				<path class="st10" d="M205.3,85.9C205.3,85.9,205.2,86,205.3,85.9C205.2,86,205.2,86,205.3,85.9L205.3,85.9z"/>
				<path class="st24" d="M209.3,82.4c-0.2,0.2-0.3,0.4-0.4,0.7c-0.4,0.8-0.2,1.9,0.3,2.8c0.2,0.3,0.5,0.7,0.8,0.9
					c0.8,0.8,1.8,1.1,2.8,1.1c0.5,0,0.9-0.2,1.3-0.4l-3.9,3.4c0,0-0.2,0.2-0.3,0.2c-0.1,0.1-0.2,0.1-0.3,0.1c-0.3,0.2-0.7,0.3-1,0.3
					c-0.9,0.1-1.9-0.3-2.8-1.1c-0.3-0.3-0.6-0.6-0.8-0.9c-0.6-0.9-0.7-2-0.3-2.8c0.1-0.2,0.2-0.5,0.4-0.6c0,0,0,0,0,0l0,0
					c0,0,0,0,0,0l0.1,0L209.3,82.4z"/>
			</g>
		</g>
	</g>
</g>
<g>
	<g>
		<path class="st0" d="M94.7,163.2l-13.1,7.9c-1,0.6-2.2,0.6-3.1,0l-26.1-16c-0.6-0.4-0.6-1.3,0-1.7l13.6-8.3c0.8-0.5,1.9-0.5,2.7,0
			l26,15.9C95.5,161.6,95.5,162.7,94.7,163.2z"/>
		<path class="st13" d="M95.3,156.8v2h0c0,0.4-0.2,0.9-0.6,1.1l-13.1,7.9c-1,0.6-2.2,0.6-3.1,0l-26.1-16c-0.3-0.2-0.4-0.4-0.5-0.7
			l0,0V149c0-0.3,0.2-0.7,0.5-0.9l13.6-8.3c0.8-0.5,1.9-0.5,2.7,0l26,15.9C95.1,156,95.3,156.4,95.3,156.8z"/>
		<path class="st10" d="M95.3,156.8c0,0.4-0.2,0.8-0.6,1.1l-13.1,7.9c-1,0.6-2.2,0.6-3.1,0l-26.1-16c-0.3-0.2-0.5-0.5-0.5-0.9
			c0-0.3,0.2-0.7,0.5-0.9l13.6-8.3c0.8-0.5,1.9-0.5,2.7,0l26,15.9C95.1,156,95.3,156.4,95.3,156.8z"/>
		<path class="st5" d="M92.9,156.4c0,0.4-0.2,0.7-0.5,0.9l-11.6,7c-0.9,0.5-1.9,0.5-2.8,0l-23.2-14.2c-0.3-0.2-0.4-0.5-0.4-0.8
			s0.1-0.6,0.4-0.8l12.1-7.3c0.7-0.4,1.6-0.4,2.4,0l23.1,14.1C92.7,155.6,92.9,156,92.9,156.4z"/>
	</g>
	<g>
		<polygon class="st48" points="83.1,155.7 78.3,158.6 77.1,157.8 81.9,154.9 		"/>
		<polygon class="st48" points="82.8,152.4 73.2,158.2 72,157.5 81.6,151.6 		"/>
		<polygon class="st48" points="79.7,150.4 70.1,156.3 68.9,155.5 78.5,149.7 		"/>
		<path class="st48" d="M72.4,149.6c0,1.2-1.8,2.1-4.1,2.1c-2.3,0-4.1-0.9-4.1-2.1c0-1.2,1.8-2.1,4.1-2.1
			C70.5,147.5,72.4,148.4,72.4,149.6z"/>
	</g>
</g>
</svg>
