<svg xmlns="http://www.w3.org/2000/svg" xmlns:xlink="http://www.w3.org/1999/xlink" viewBox="0 0 1748.6 915.95"><defs><style>.cls-1{fill:#1cb3ff;}.cls-2{fill:url(#未命名的渐变_8);}.cls-3{fill:#fff;}.cls-4{fill:url(#未命名的渐变_8-2);}.cls-5{fill:url(#未命名的渐变_8-3);}.cls-6{fill:url(#未命名的渐变_8-4);}</style><linearGradient id="未命名的渐变_8" x1="1662.37" y1="354.72" x2="1662.37" y2="581.62" gradientTransform="matrix(1.95, 0, 0, -1.95, -2377.42, 1387.75)" gradientUnits="userSpaceOnUse"><stop offset="0" stop-color="#2da7ec"/><stop offset="1" stop-color="#b7e3fc"/></linearGradient><linearGradient id="未命名的渐变_8-2" x1="2050.94" y1="440.97" x2="2050.94" y2="500.17" xlink:href="#未命名的渐变_8"/><linearGradient id="未命名的渐变_8-3" x1="1466.04" y1="244.67" x2="1466.04" y2="303.87" xlink:href="#未命名的渐变_8"/><linearGradient id="未命名的渐变_8-4" x1="1389.99" y1="629.27" x2="1389.99" y2="688.47" xlink:href="#未命名的渐变_8"/></defs><title>green_dot资源 1</title><g id="图层_2" data-name="图层 2"><g id="图层_1-2" data-name="图层 1"><g id="Layer4_0_MEMBER_0_MEMBER_0_FILL" data-name="Layer4 0 MEMBER 0 MEMBER 0 FILL"><path class="cls-1" d="M505.57,491.05a3.22,3.22,0,0,0-1.17-.59.7.7,0,0,0-.29-.1,12.25,12.25,0,0,0-1.86-.58,9.39,9.39,0,0,0-2.34-.3A12,12,0,0,0,488,501.4a9.86,9.86,0,0,0,.29,2.34L413,579H197.89l-36,36a11.61,11.61,0,0,0-12.5,2.73,11.46,11.46,0,0,0-3.52,8.4,10.14,10.14,0,0,0,3.52,8.3,9.89,9.89,0,0,0,3,2.25,11.25,11.25,0,0,0,5.28,1.27,11.46,11.46,0,0,0,8.4-3.52,11.29,11.29,0,0,0,3.42-8.3,11.63,11.63,0,0,0-1.17-5.27l33.21-33.21h215l76.58-76.58,1.56,1a.76.76,0,0,1,.29.09,9,9,0,0,0,1.18.49,12,12,0,0,0,3.81.59,11.46,11.46,0,0,0,8.4-3.52,11.3,11.3,0,0,0,3.41-8.3,11.07,11.07,0,0,0-.58-3.71c-.13-.39-.29-.82-.49-1.27a1.3,1.3,0,0,1-.19-.3,6.48,6.48,0,0,0-.88-1.56c-.39-.52-.82-1-1.27-1.56a9.46,9.46,0,0,0-2.74-1.95M150.42,626.13a7.08,7.08,0,0,1,2.15-5.18,6.74,6.74,0,0,1,5.08-2.14H158a7.56,7.56,0,0,1,4.79,2.14,6.66,6.66,0,0,1,1.85,3.52,7.24,7.24,0,0,1-1.85,6.74,7.3,7.3,0,0,1-5.18,2.15,8.12,8.12,0,0,1-1.76-.2,7.18,7.18,0,0,1-3.32-1.95,6.59,6.59,0,0,1-2.15-4.69v-.39M523,436.64A12,12,0,0,0,511,448.56a12,12,0,0,0,.78,4.29.86.86,0,0,0,.1.3l.59,1.17L409.36,557.47h-215l-18.07,18a4,4,0,0,1-.79-.3h-.29a9.51,9.51,0,0,0-3.91-.78,12,12,0,0,0-11.91,11.92,14.21,14.21,0,0,0,.58,4.1c.07,0,.13.07.2.2a4.9,4.9,0,0,0,.29.68,12.94,12.94,0,0,0,2.44,3.32,12.23,12.23,0,0,0,2.84,2.15.37.37,0,0,0,.29.1,2.93,2.93,0,0,0,.68.39,12,12,0,0,0,4.59.88,11.43,11.43,0,0,0,8.4-3.52,11.29,11.29,0,0,0,3.42-8.3,11,11,0,0,0-1-4.59l15.72-15.63h215L519.15,459.79a12,12,0,0,0,3.81.59,11.5,11.5,0,0,0,8.4-3.52,11.31,11.31,0,0,0,3.42-8.3,11.17,11.17,0,0,0-.59-3.72c-.13-.39-.29-.81-.49-1.27a1,1,0,0,1-.19-.29,10.3,10.3,0,0,0-2.15-3.12,9.7,9.7,0,0,0-2.74-2,3.21,3.21,0,0,0-1.17-.58,1,1,0,0,1-.29-.2,11.2,11.2,0,0,0-4.2-.78m-33.51,19.24a2.87,2.87,0,0,0-.68-1,4.53,4.53,0,0,0-.78-1,7.26,7.26,0,0,0-1.66-1.27,2,2,0,0,0-.78-.39.28.28,0,0,1-.2-.1c-.45-.13-.84-.23-1.17-.29a3,3,0,0,0-.78-.1,2.42,2.42,0,0,0-.78-.1A7.68,7.68,0,0,0,475,459.3v.88l-82.15,82.24H177.77l-38.19,38.1a10.63,10.63,0,0,0-3.91-.69,11.31,11.31,0,0,0-8.3,3.42,11.5,11.5,0,0,0-3.52,8.4,14.21,14.21,0,0,0,.59,4.1l.1.2a13.5,13.5,0,0,0,2.83,4,12.83,12.83,0,0,0,2.73,2.15,1.29,1.29,0,0,1,.3.2,12,12,0,0,0,5.27,1.17,11.43,11.43,0,0,0,8.4-3.52,11.27,11.27,0,0,0,3.42-8.3,11.63,11.63,0,0,0-1.17-5.27l-.2-.2L181.38,551h215l84.29-84.3a10,10,0,0,0,2,.2,7.68,7.68,0,0,0,7.62-7.62,6,6,0,0,0-.3-1.95.92.92,0,0,0-.09-.39,4.17,4.17,0,0,0-.3-.78.45.45,0,0,1-.1-.3m-20.7-18.95a3.61,3.61,0,0,0,.19.49l-86.15,86.25H167.71L135.28,556.1a11.43,11.43,0,0,0-5.37-1.27,11.15,11.15,0,0,0-8.3,3.51,11.46,11.46,0,0,0-3.52,8.4,12.07,12.07,0,0,0,1.17,5.28,11.46,11.46,0,0,0,2.35,3,13.23,13.23,0,0,0,4.1,2.83,12.5,12.5,0,0,0,4.2.68,11.48,11.48,0,0,0,8.4-3.51,11.31,11.31,0,0,0,3.42-8.31,12,12,0,0,0-.78-4.29l30.37-30.19h215l88.88-88.88a12,12,0,0,0,4.59.88,11.43,11.43,0,0,0,8.4-3.52,11.61,11.61,0,0,0,3.42-8.4,11.21,11.21,0,0,0-.88-4.49l-.19-.39a.7.7,0,0,1-.1-.29,13.21,13.21,0,0,0-2.25-3.23,11.23,11.23,0,0,0-3.51-2.24.57.57,0,0,0-.39-.2,1.58,1.58,0,0,0-.29-.2,11.29,11.29,0,0,0-4.21-.78,11.65,11.65,0,0,0-8.4,3.42,11.94,11.94,0,0,0-2.73,12.7.89.89,0,0,1,.1.29M124.83,561.57a6.75,6.75,0,0,1,5.08-2.15,5.11,5.11,0,0,1,1.76.29,6.58,6.58,0,0,1,3.42,1.86,6.89,6.89,0,0,1,2,4.78v.39a6.91,6.91,0,0,1-2,5.08,7.26,7.26,0,0,1-5.18,2.15h-.39a6.57,6.57,0,0,1-4.69-2.15,7.12,7.12,0,0,1-2-3.41,7,7,0,0,1-.2-1.67A7.06,7.06,0,0,1,124.83,561.57Z"/></g><g id="Layer4_0_MEMBER_0_MEMBER_1_FILL" data-name="Layer4 0 MEMBER 0 MEMBER 1 FILL"><path class="cls-1" d="M1086,156.11a11.31,11.31,0,0,0-8.3,3.42,11.5,11.5,0,0,0-3.52,8.4,12,12,0,0,0,.59,3.81,8.32,8.32,0,0,0,.49,1.17.86.86,0,0,1,.1.3l1,1.56-76.58,76.58v215L966.5,499.54a11.63,11.63,0,0,0-5.27-1.17,11.29,11.29,0,0,0-8.3,3.42,11.43,11.43,0,0,0-3.52,8.4,11.18,11.18,0,0,0,1.27,5.27,9.8,9.8,0,0,0,2.25,3,13.86,13.86,0,0,0,4,2.84,13.68,13.68,0,0,0,4.3.68,11.43,11.43,0,0,0,8.4-3.52,11.59,11.59,0,0,0,2.74-12.5l36-36V254.86l75.21-75.3a9.86,9.86,0,0,0,2.34.29,12,12,0,0,0,11.92-11.92,9.86,9.86,0,0,0-.29-2.34,12,12,0,0,0-.59-1.86.7.7,0,0,0-.1-.29,3.21,3.21,0,0,0-.58-1.17,9.7,9.7,0,0,0-2-2.74c-.52-.45-1-.88-1.56-1.27a6.48,6.48,0,0,0-1.56-.88,1.3,1.3,0,0,1-.3-.19c-.45-.2-.88-.36-1.27-.49a11.06,11.06,0,0,0-3.71-.59M962.89,503.16a6.66,6.66,0,0,1,3.52,1.85,7.58,7.58,0,0,1,2.15,4.79v.39a6.75,6.75,0,0,1-2.15,5.08,7.08,7.08,0,0,1-5.18,2.15h-.39a6.61,6.61,0,0,1-4.69-2.15A7.18,7.18,0,0,1,954.2,512a8.12,8.12,0,0,1-.2-1.76,7.3,7.3,0,0,1,2.15-5.18,6.93,6.93,0,0,1,5.08-2.05,6.8,6.8,0,0,1,1.66.2m169.57-324.09a2.94,2.94,0,0,0-1-.69.4.4,0,0,1-.29-.09,4.17,4.17,0,0,0-.78-.3,1,1,0,0,0-.4-.09,6,6,0,0,0-2-.3,7.68,7.68,0,0,0-7.62,7.62,10.11,10.11,0,0,0,.2,2l-84.3,84.29v215l-35.16,35.27-.2-.2a11.63,11.63,0,0,0-5.27-1.17,11.29,11.29,0,0,0-8.3,3.42,11.43,11.43,0,0,0-3.52,8.4,12,12,0,0,0,1.17,5.27,1.21,1.21,0,0,1,.2.29,12.94,12.94,0,0,0,2.15,2.74,13.5,13.5,0,0,0,4,2.83l.2.1a14.21,14.21,0,0,0,4.1.59,11.47,11.47,0,0,0,8.4-3.52,11.31,11.31,0,0,0,3.42-8.3,10.59,10.59,0,0,0-.69-3.91l38.1-38.19V275l82.24-82.15h.88a7.68,7.68,0,0,0,7.62-7.62,2.42,2.42,0,0,0-.1-.78,3,3,0,0,0-.1-.78c-.06-.33-.16-.72-.29-1.17a.32.32,0,0,1-.1-.2,2,2,0,0,0-.39-.78,7.26,7.26,0,0,0-1.27-1.66,4.74,4.74,0,0,0-1-.78m27.74-1.66a.69.69,0,0,1-.3-.1l-.39-.2a11.34,11.34,0,0,0-4.49-.87,11.64,11.64,0,0,0-8.4,3.41,11.5,11.5,0,0,0-3.52,8.4,12.19,12.19,0,0,0,.88,4.6l-88.88,88.88v215l-30.19,30.37a12,12,0,0,0-4.29-.78,11.31,11.31,0,0,0-8.31,3.42,11.46,11.46,0,0,0-3.51,8.4,12.76,12.76,0,0,0,.68,4.2,13.23,13.23,0,0,0,2.83,4.1,11.79,11.79,0,0,0,3,2.35,12.07,12.07,0,0,0,5.28,1.17,11.46,11.46,0,0,0,8.4-3.52,11.15,11.15,0,0,0,3.51-8.3,11.43,11.43,0,0,0-1.27-5.37l32.43-32.43V285.05l86.25-86.15a3.61,3.61,0,0,0,.49.19.7.7,0,0,1,.29.1,11.86,11.86,0,0,0,16.12-11.14,11.28,11.28,0,0,0-.78-4.2,1.21,1.21,0,0,0-.2-.29.55.55,0,0,0-.19-.39,11.24,11.24,0,0,0-2.25-3.52,13.59,13.59,0,0,0-3.22-2.24M1013.39,538.32v-.39a7.3,7.3,0,0,1,2.15-5.18,6.93,6.93,0,0,1,5.08-2h.39a6.87,6.87,0,0,1,4.78,2,6.58,6.58,0,0,1,1.86,3.42,4.89,4.89,0,0,1,.29,1.76,6.72,6.72,0,0,1-2.15,5.08,7,7,0,0,1-5.17,2.15,6.8,6.8,0,0,1-1.66-.2,7.1,7.1,0,0,1-3.42-2,6.57,6.57,0,0,1-2.15-4.69m130.69-404a1,1,0,0,1-.29-.19c-.46-.2-.88-.36-1.27-.49a11.15,11.15,0,0,0-3.71-.59,11.31,11.31,0,0,0-8.31,3.42,11.49,11.49,0,0,0-3.51,8.4,12,12,0,0,0,.58,3.81L1021.3,255V470l-15.63,15.72a11,11,0,0,0-4.59-1,11.31,11.31,0,0,0-8.3,3.42,11.47,11.47,0,0,0-3.52,8.4,12.18,12.18,0,0,0,.88,4.59,2.93,2.93,0,0,0,.39.68.4.4,0,0,0,.1.29,12.23,12.23,0,0,0,2.15,2.84,12.94,12.94,0,0,0,3.32,2.44,4.9,4.9,0,0,0,.68.29c.13.07.2.13.2.2a14.21,14.21,0,0,0,4.1.58A12,12,0,0,0,1013,496.52a9.51,9.51,0,0,0-.78-3.91v-.29a4.54,4.54,0,0,1-.3-.79l18-18.07v-215L1133,155.33l1.17.59a.86.86,0,0,0,.3.1,12,12,0,0,0,4.3.78,12,12,0,0,0,11.91-11.92,11.2,11.2,0,0,0-.78-4.2,1,1,0,0,1-.19-.29,3.39,3.39,0,0,0-.59-1.17,9.86,9.86,0,0,0-2-2.74A10.47,10.47,0,0,0,1144.08,134.33Z"/></g><g id="Layer4_0_MEMBER_0_MEMBER_2_FILL" data-name="Layer4 0 MEMBER 0 MEMBER 2 FILL"><path class="cls-1" d="M795,510.58a9.52,9.52,0,0,0-2-2.73c-.52-.46-1-.88-1.56-1.27a6.16,6.16,0,0,0-1.56-.88,1.29,1.29,0,0,1-.3-.2c-.45-.19-.88-.36-1.27-.49a11.07,11.07,0,0,0-3.71-.58,11.31,11.31,0,0,0-8.3,3.42,11.47,11.47,0,0,0-3.52,8.4,12.07,12.07,0,0,0,.59,3.81,8.32,8.32,0,0,0,.49,1.17.89.89,0,0,1,.1.29l1,1.56-76.58,76.58v215l-33.21,33.21a11.51,11.51,0,0,0-5.27-1.18,11.29,11.29,0,0,0-8.3,3.42,11.46,11.46,0,0,0-3.52,8.4,11.25,11.25,0,0,0,1.27,5.28,10,10,0,0,0,2.25,3,10.17,10.17,0,0,0,8.3,3.51,11.46,11.46,0,0,0,8.4-3.51A11.57,11.57,0,0,0,671,854.3l36.05-36V603.18l75.21-75.31a9.86,9.86,0,0,0,2.34.29,12,12,0,0,0,11.92-11.91,9.88,9.88,0,0,0-.29-2.35,12.25,12.25,0,0,0-.59-1.85.69.69,0,0,0-.1-.3,3.38,3.38,0,0,0-.58-1.17M661.56,851.47a6.61,6.61,0,0,1,3.52,1.86,7.53,7.53,0,0,1,2.15,4.78v.39a6.75,6.75,0,0,1-2.15,5.08,7.08,7.08,0,0,1-5.18,2.15h-.39a6.57,6.57,0,0,1-4.69-2.15,7.13,7.13,0,0,1-2-3.32,8.05,8.05,0,0,1-.2-1.76,7.26,7.26,0,0,1,2.15-5.17,6.9,6.9,0,0,1,5.08-2.06,6.8,6.8,0,0,1,1.66.2M829.07,526.31a.81.81,0,0,0-.39-.1,6,6,0,0,0-1.95-.29,7.67,7.67,0,0,0-7.62,7.61,10,10,0,0,0,.2,2L735,619.78v215L699.85,870l-.2-.2a11.63,11.63,0,0,0-5.27-1.17,11.29,11.29,0,0,0-8.3,3.42,11.43,11.43,0,0,0-3.52,8.4,12,12,0,0,0,1.17,5.27,1.29,1.29,0,0,1,.2.3,13.16,13.16,0,0,0,2.15,2.73,13.73,13.73,0,0,0,4,2.84l.2.09a14.21,14.21,0,0,0,4.1.59,11.45,11.45,0,0,0,8.4-3.52,11.29,11.29,0,0,0,3.42-8.3,10.67,10.67,0,0,0-.69-3.91l38.1-38.19V623.3l82.24-82.15h.88a7.67,7.67,0,0,0,7.62-7.62,2.42,2.42,0,0,0-.1-.78,3,3,0,0,0-.1-.78c-.06-.32-.16-.71-.29-1.17a.32.32,0,0,1-.1-.2,2,2,0,0,0-.39-.78,7.49,7.49,0,0,0-1.27-1.66,5.53,5.53,0,0,0-1-.78,3.16,3.16,0,0,0-1-.68.4.4,0,0,1-.29-.1,3.43,3.43,0,0,0-.79-.29m33,1.66a13.93,13.93,0,0,0-3.22-2.25.69.69,0,0,1-.3-.1l-.39-.19a11.21,11.21,0,0,0-4.49-.88,11.61,11.61,0,0,0-8.4,3.42,11.43,11.43,0,0,0-3.52,8.4,12.1,12.1,0,0,0,.88,4.59l-88.88,88.88v215l-30.19,30.38a11.74,11.74,0,0,0-4.29-.79,11.31,11.31,0,0,0-8.31,3.42,11.49,11.49,0,0,0-3.51,8.4,12.76,12.76,0,0,0,.68,4.2,13.39,13.39,0,0,0,2.83,4.11,10.6,10.6,0,0,0,8.31,3.51,11.49,11.49,0,0,0,8.4-3.51,11.17,11.17,0,0,0,3.51-8.31,11.43,11.43,0,0,0-1.27-5.37l32.43-32.43V633.36l86.25-86.15a3.61,3.61,0,0,0,.49.19.89.89,0,0,1,.29.1,11.94,11.94,0,0,0,12.7-2.73,11.65,11.65,0,0,0,3.42-8.4,11.2,11.2,0,0,0-.78-4.2,1.29,1.29,0,0,0-.2-.3.55.55,0,0,0-.19-.39,11.26,11.26,0,0,0-2.25-3.51M719.29,879h.39a6.84,6.84,0,0,1,4.78,2.06,6.51,6.51,0,0,1,1.86,3.41,5.16,5.16,0,0,1,.29,1.76,6.72,6.72,0,0,1-2.15,5.08,7,7,0,0,1-5.17,2.15,6.81,6.81,0,0,1-1.66-.19,7.2,7.2,0,0,1-3.42-2,6.55,6.55,0,0,1-2.15-4.69v-.39a7.22,7.22,0,0,1,2.15-5.17,6.92,6.92,0,0,1,5.08-2.06M829.17,484.79a11.49,11.49,0,0,0-3.51,8.4,12,12,0,0,0,.58,3.81L720,603.28v215L704.34,834a10.81,10.81,0,0,0-4.59-1,11.31,11.31,0,0,0-8.3,3.42,11.43,11.43,0,0,0-3.52,8.4,12.1,12.1,0,0,0,.88,4.59,2.93,2.93,0,0,0,.39.68.4.4,0,0,0,.1.3,12.19,12.19,0,0,0,2.15,2.83,12.94,12.94,0,0,0,3.32,2.44,4.9,4.9,0,0,0,.68.29c.13.07.2.13.2.2a14.21,14.21,0,0,0,4.1.58,12,12,0,0,0,11.92-11.91,9.55,9.55,0,0,0-.78-3.91v-.29a4.17,4.17,0,0,1-.3-.78l18-18.07v-215L831.71,503.65l1.17.58a.69.69,0,0,0,.3.1,12,12,0,0,0,4.29.78,12,12,0,0,0,11.92-11.92,11.28,11.28,0,0,0-.78-4.2,1,1,0,0,1-.2-.29,3.29,3.29,0,0,0-.58-1.17,9.7,9.7,0,0,0-2-2.74,10.27,10.27,0,0,0-3.12-2.14,1,1,0,0,1-.29-.2c-.46-.2-.88-.36-1.27-.49a11.17,11.17,0,0,0-3.72-.58A11.34,11.34,0,0,0,829.17,484.79Z"/></g><g id="Layer4_0_MEMBER_0_MEMBER_3_MEMBER_0_FILL" data-name="Layer4 0 MEMBER 0 MEMBER 3 MEMBER 0 FILL"><path class="cls-2" d="M591.23,342.38h-5.08Q512,344.54,460.74,398.45q-50.6,54.49-48.45,128.83a191.22,191.22,0,0,0,6.94,46.11q12.69,45,49.32,79.31,54.51,51,128.64,48.84a196.71,196.71,0,0,0,46.4-7q241.06,54.42,462.88-14.35,28.62,10.54,61.54,9.47,68.17-1.86,115.06-51.77,44.55-47.46,44.84-111.35v-6.74q-.3-3.51-.3-6.74a213.16,213.16,0,0,0-6.25-36.43q-12.4-40.92-45.52-72.18-35.35-33.21-80.09-41.32a180.26,180.26,0,0,0-10-18.27,205.2,205.2,0,0,0-36.14-44.54q-44.75-41.8-101.1-51.47l-4.88-.59c-.33-1.56-.68-3-1.08-4.3q-15.91-55-60.65-97Q916.39,85.1,825.85,87.84T673,156.31q-61.74,66-59.1,156.67a46.35,46.35,0,0,0,.59,7.23A188,188,0,0,0,616.92,344,208.46,208.46,0,0,0,591.23,342.38Z"/></g><g id="Layer4_0_MEMBER_0_MEMBER_3_MEMBER_1_FILL" data-name="Layer4 0 MEMBER 0 MEMBER 3 MEMBER 1 FILL"><path class="cls-3" d="M890.42,264.14q-30.09-30.07-72.58-30.08t-72.57,30.08q-30.09,30.09-30.09,72.58t30.09,72.57q30.08,30.09,72.57,30.08t72.58-30.08q30.08-30.09,30.08-72.57t-30.08-72.58m-64.28-18.55q2.45.19,4.89.48a224.78,224.78,0,0,1,13.38,33.41H826.14V245.59m0,46.59h21.79a197,197,0,0,1,5,36.23H826.14V292.18m63.1-12.7H862.38a241.68,241.68,0,0,0-13.18-29,90.22,90.22,0,0,1,33.3,21.59q3.62,3.62,6.74,7.42m-22.66,12.7H898a87.14,87.14,0,0,1,11,36.23H873.13a174.67,174.67,0,0,0-6.55-36.23M802.7,246.37c1.63-.26,3.26-.46,4.89-.59v33.7H789.22a245.85,245.85,0,0,1,13.48-33.11m-29.89,33.11H746.44q3.12-3.81,6.74-7.42a89.67,89.67,0,0,1,31.94-21,227.35,227.35,0,0,0-12.31,28.42m-35.06,12.7h31.06a169.36,169.36,0,0,0-6.25,36.23H726.81a86.16,86.16,0,0,1,10.94-36.23m47.76,0h22.08v36.23H779.85a186.33,186.33,0,0,1,5.66-36.23m-6,49.42h28v34.68H783.66a173.63,173.63,0,0,1-4.11-34.68m-12.79,34.68H735.11a88.3,88.3,0,0,1-8.6-34.68h35.75a157,157,0,0,0,4.5,34.68M744.19,391h26.86a188.3,188.3,0,0,0,14.07,31.35,89.93,89.93,0,0,1-31.94-21,94.85,94.85,0,0,1-9-10.35m43.37,0h20v36.62l-4.89-.58a201.34,201.34,0,0,1-15.14-36M909.27,341.6a88.13,88.13,0,0,1-8.6,34.68H868.73a156.7,156.7,0,0,0,4.69-34.68h35.85m-45,49.43h27.35a104.24,104.24,0,0,1-9.09,10.35A90.35,90.35,0,0,1,849.2,423a189.37,189.37,0,0,0,15-31.94M852.91,341.6a198.29,198.29,0,0,1-4.3,34.68H826.14V341.6h26.77M826.14,391H844.9A246.36,246.36,0,0,1,831,427.26l-4.89.59Z"/></g><g id="Layer4_0_MEMBER_0_MEMBER_3_MEMBER_2_FILL" data-name="Layer4 0 MEMBER 0 MEMBER 3 MEMBER 2 FILL"><path class="cls-3" d="M697.31,459.5q-10.74,0-10.74,10.74V664.91q0,10.74,10.74,10.74h244q10.76,0,10.75-10.74V470.24q0-10.74-10.75-10.74h-244m16.21,16.7a9.8,9.8,0,0,1,1.47-.1H923.62a15.4,15.4,0,0,1,2.54.2L823.7,571.14q-9.37,5.86-20.51-4.88L713.52,476.2M926,659.05a13.24,13.24,0,0,1-2.35.19H715q-6.35,0-8.3-4.39l87.12-74.14a57,57,0,0,0,8.7,6.74q19,11.53,38-4.59L926,659.05m6.93-163.9V640.49l-77.65-70.82,77.65-74.52m-227.09-1.08L779,568l-73.16,62.42Z"/></g><g id="Layer4_0_MEMBER_0_MEMBER_3_MEMBER_3_FILL" data-name="Layer4 0 MEMBER 0 MEMBER 3 MEMBER 3 FILL"><path class="cls-3" d="M1066.33,375.2c-.46-.52-.91-1-1.37-1.46a27.9,27.9,0,1,0-39.46,39.46,29,29,0,0,0,5.57,4.39L1001,584.72h94.16l-39-165.47a27.87,27.87,0,0,0,8.79-6.05,26.91,26.91,0,0,0,8.21-19.73,26.64,26.64,0,0,0-6.84-18.27m24.61-27.45q19.05,19,19,45.72t-19,45.71a66.36,66.36,0,0,1-17.77,12.89l4.78,19.64a84.13,84.13,0,0,0,27-18.47q24.81-24.8,24.81-59.68t-24.81-59.68a86.43,86.43,0,0,0-7.32-6.54q-22.47-18.27-52.36-18.26-34.87,0-59.68,24.8t-24.81,59.68q0,34.88,24.81,59.68a84.42,84.42,0,0,0,27.25,18.56l4.11-19.92a65.49,65.49,0,0,1-17.49-12.7q-18.95-19.05-18.95-45.71t18.95-45.72q19.05-19,45.81-19a61.87,61.87,0,0,1,39.37,13.38,72.8,72.8,0,0,1,6.34,5.66M965.63,314q-33,33-33,79.6t33,79.61q18.55,18.46,41.21,26.67l3.23-14.95a98.41,98.41,0,0,1-33.8-22.37q-28.62-28.71-28.62-69t28.62-68.95q28.72-28.73,69-28.72,35,0,61.24,21.68,3.91,3.23,7.72,7,28.72,28.61,28.72,68.95t-28.72,69a96.65,96.65,0,0,1-33,22.08l3.61,14.85a110.47,110.47,0,0,0,40-26.28q33.21-33.1,33.21-79.61T1124.84,314q-4.2-4.2-8.6-7.91-30.37-25.2-71-25.2Q998.83,280.85,965.63,314Z"/></g><g id="Layer4_0_MEMBER_0_MEMBER_3_MEMBER_4_FILL" data-name="Layer4 0 MEMBER 0 MEMBER 3 MEMBER 4 FILL"><path class="cls-3" d="M646.71,384.58a10.55,10.55,0,0,0,2.54,2.05l-13.87,77.16h43.47l-18-76.38a13.63,13.63,0,0,0,4-2.83,12.41,12.41,0,0,0,3.81-9.09,12.54,12.54,0,0,0-3.13-8.49,5.89,5.89,0,0,0-.68-.59,12.18,12.18,0,0,0-9.08-3.81,12.41,12.41,0,0,0-9.09,3.81,12.2,12.2,0,0,0-3.81,9.08,12.41,12.41,0,0,0,3.81,9.09m-27.64-45.81a52,52,0,0,0,0,73.55,51.67,51.67,0,0,0,19,12.31l1.46-6.94A44.82,44.82,0,0,1,624,407.34a45.05,45.05,0,0,1,60.17-66.91q1.77,1.47,3.52,3.22a44.82,44.82,0,0,1,0,63.69,45.19,45.19,0,0,1-15.24,10.25l1.66,6.84a50.56,50.56,0,0,0,18.46-12.11Q708,397,708,375.49a49.74,49.74,0,0,0-15.44-36.72,52.58,52.58,0,0,0-3.9-3.71,50,50,0,0,0-32.82-11.63q-21.39,0-36.73,15.34m9.18,9.18a39.28,39.28,0,0,0,12.6,63.68l1.86-9.18a32.13,32.13,0,0,1-8.11-5.86,29.89,29.89,0,0,1,21.2-51A28.5,28.5,0,0,1,674,351.76a35,35,0,0,1,2.94,2.64,29.71,29.71,0,0,1,0,42.19,30.63,30.63,0,0,1-8.21,6l2.25,9.08a38,38,0,0,0,12.4-8.59,38.67,38.67,0,0,0,0-55.09,28.66,28.66,0,0,0-3.32-3,39,39,0,0,0-51.77,3Z"/></g><g id="Layer4_0_MEMBER_0_MEMBER_3_MEMBER_5_FILL" data-name="Layer4 0 MEMBER 0 MEMBER 3 MEMBER 5 FILL"><path class="cls-3" d="M958.3,183.66q0-18.85-18.85-32.23t-45.52-13.29q-26.67,0-45.52,13.29t-18.85,32.23q0,18.85,18.85,32.13t45.52,13.39a87,87,0,0,0,24.62-3.33l35.94,26.28L940.62,215Q958.31,201.93,958.3,183.66Z"/></g><g id="Layer4_0_MEMBER_0_MEMBER_3_MEMBER_6_FILL" data-name="Layer4 0 MEMBER 0 MEMBER 3 MEMBER 6 FILL"><path class="cls-3" d="M661.56,665.1a40.43,40.43,0,0,0,0-57.33,43.05,43.05,0,0,0-6.64-5.47A40.61,40.61,0,1,0,623.27,676a42.71,42.71,0,0,0,9.67,1.07,38.8,38.8,0,0,0,28.62-11.92m2.73-28.61a31.34,31.34,0,0,1-31.35,31.35,32.43,32.43,0,0,1-7.72-.88,31.41,31.41,0,1,1,22.27-58.31,31.17,31.17,0,0,1,7.62,5.66,30.21,30.21,0,0,1,9.18,22.18m-29.49,1.07a3.47,3.47,0,0,0-2.54-1.07H611.65A3.67,3.67,0,0,0,608,640.1v.1a3.67,3.67,0,0,0,3.62,3.61h20.61a3.65,3.65,0,0,0,3.61-3.61v-.1a3.49,3.49,0,0,0-1.07-2.54M638.31,613a3.91,3.91,0,0,0-7.81,0v17.67a3.91,3.91,0,0,0,7.81,0Z"/></g><g id="Layer4_0_MEMBER_0_MEMBER_3_MEMBER_7_FILL" data-name="Layer4 0 MEMBER 0 MEMBER 3 MEMBER 7 FILL"><path class="cls-3" d="M472.46,459a20,20,0,0,0,6.06,14.65,20.55,20.55,0,0,0,27.15,1.76L518.76,485a17.09,17.09,0,0,0-.49,14.46L490,520.06a12.33,12.33,0,0,0-15.14,1.66,11.72,11.72,0,0,0-3.61,8.59,11.54,11.54,0,0,0,3.61,8.6,11.75,11.75,0,0,0,8.6,3.61,12.34,12.34,0,0,0,12.21-12.21,11.35,11.35,0,0,0-.79-4.3l27.94-20.61a15.91,15.91,0,0,0,10.45,3.72A16.14,16.14,0,0,0,545,504.33a16.52,16.52,0,0,0-17.87-27l-14.85-10.74a20.92,20.92,0,0,0,1.37-7.62,20.5,20.5,0,0,0-20.61-20.61,19.65,19.65,0,0,0-14.55,6.05A19.85,19.85,0,0,0,472.46,459Z"/></g><g id="Layer4_0_MEMBER_0_MEMBER_3_MEMBER_8_FILL" data-name="Layer4 0 MEMBER 0 MEMBER 3 MEMBER 8 FILL"><path class="cls-3" d="M1130.5,571V556.29h-11.72v60.56a35.15,35.15,0,0,0-17.87-4.39q-12.32,0-21,6.35t-8.6,15.43q0,9,8.6,15.33t21,6.45q12.3,0,20.9-6.45t8.69-15.33V598q16.9-2.14,22.18,20.9Q1161.47,574.17,1130.5,571Z"/></g><g id="Layer4_0_MEMBER_0_MEMBER_3_MEMBER_9_FILL" data-name="Layer4 0 MEMBER 0 MEMBER 3 MEMBER 9 FILL"><path class="cls-3" d="M739,175.84V161.1H727.3v60.55a35.16,35.16,0,0,0-17.88-4.39q-12.3,0-21,6.35T679.83,239q0,9,8.59,15.34t21,6.44q12.32,0,20.9-6.44T739,239V202.8q16.89-2.15,22.17,20.91Q770,179,739,175.84Z"/></g><g id="Layer4_0_MEMBER_0_MEMBER_3_MEMBER_10_FILL" data-name="Layer4 0 MEMBER 0 MEMBER 3 MEMBER 10 FILL"><path class="cls-3" d="M633.33,480H621.61v60.56a35.15,35.15,0,0,0-17.87-4.4q-12.32,0-21,6.35T574.14,558q0,9,8.6,15.34t21,6.45q12.3,0,20.9-6.45T633.33,558V521.72q16.9-2.16,22.17,20.9,8.79-44.75-22.17-47.86Z"/></g><g id="Layer4_0_MEMBER_0_MEMBER_3_MEMBER_11_FILL" data-name="Layer4 0 MEMBER 0 MEMBER 3 MEMBER 11 FILL"><path class="cls-3" d="M1170.35,459.4q-4.87,0-4.88,5v88.89q0,4.88,4.88,4.88H1281.8q5,0,5-4.88V464.38q0-5-5-5H1170.35m7.43,7.62h96a7.81,7.81,0,0,1,1.18.09l-46.89,43.37q-4.2,2.64-9.38-2.34L1177.78,467m58,48.74,39.07,34.87h-96.41c-2,0-3.22-.65-3.81-2l39.85-33.89a28.06,28.06,0,0,0,3.91,3.13q8.7,5.26,17.39-2.15M1278,542.13l-35.45-32.43,35.45-34v66.42M1207.67,509l-33.41,28.52V475.22Z"/></g><g id="Layer4_0_MEMBER_0_MEMBER_3_MEMBER_12_FILL" data-name="Layer4 0 MEMBER 0 MEMBER 3 MEMBER 12 FILL"><path class="cls-3" d="M1237.85,582.76a40.61,40.61,0,1,0-31.65,73.65,42.14,42.14,0,0,0,9.67,1.08,40.55,40.55,0,0,0,28.62-69.26,44.24,44.24,0,0,0-6.64-5.47m-22,2.84a30.34,30.34,0,0,1,14.56,3.51,31.1,31.1,0,0,1,7.61,5.67,31.35,31.35,0,0,1-22.17,53.52,32.28,32.28,0,0,1-7.71-.88,31.39,31.39,0,0,1,7.71-61.82m5.37,25.49V593.41a3.91,3.91,0,0,0-7.81,0v17.68a3.91,3.91,0,0,0,7.81,0M1192,623.2a3.47,3.47,0,0,0,2.54,1.08h20.61a3.67,3.67,0,0,0,3.61-3.62v-.1a3.65,3.65,0,0,0-3.61-3.61h-20.61a3.67,3.67,0,0,0-3.62,3.61v.1A3.47,3.47,0,0,0,1192,623.2Z"/></g><g id="Layer4_0_MEMBER_0_MEMBER_3_MEMBER_13_FILL" data-name="Layer4 0 MEMBER 0 MEMBER 3 MEMBER 13 FILL"><path class="cls-3" d="M553.63,577.68q-13.1-9.18-31.45-9.18t-31.55,9.18q-13,9.29-13,22.27t13,22.18q13.08,9.27,31.55,9.28a61.19,61.19,0,0,0,17-2.25L564,647.23l-9.57-25.59q12.21-9.09,12.21-21.69Q566.62,587,553.63,577.68Z"/></g><g id="Layer4_0_MEMBER_0_MEMBER_3_MEMBER_14_FILL" data-name="Layer4 0 MEMBER 0 MEMBER 3 MEMBER 14 FILL"><path class="cls-3" d="M1034,636a32.18,32.18,0,1,0-9.48,22.76A31,31,0,0,0,1034,636m-9.77-17.88h-8.4a86,86,0,0,0-4.2-9.08,27.91,27.91,0,0,1,10.45,6.74,18.36,18.36,0,0,1,2.15,2.34m-13,3.91a56.57,56.57,0,0,1,1.56,11.33h-8.4V622h6.84m7.91,11.33a54.47,54.47,0,0,0-2-11.33H1027a27,27,0,0,1,3.41,11.33h-11.23m.1,4.2h11.23a27.32,27.32,0,0,1-2.73,10.84h-10a47,47,0,0,0,1.47-10.84m-14.85-30.08,1.57.19a75.53,75.53,0,0,1,4.2,10.45h-5.77V607.48m-7.32.29a6.42,6.42,0,0,1,1.56-.2v10.55h-5.76a74.89,74.89,0,0,1,4.2-10.35M979.5,618.12a18.28,18.28,0,0,1,2.14-2.34,27.9,27.9,0,0,1,10-6.55,61.82,61.82,0,0,0-3.91,8.89h-8.2M976.76,622h9.77a50.54,50.54,0,0,0-2,11.33H973.34A27.18,27.18,0,0,1,976.76,622m-3.52,15.53h11.24a51,51,0,0,0,1.36,10.84H976a27.5,27.5,0,0,1-2.74-10.84M998.64,622v11.33H990A57.74,57.74,0,0,1,991.71,622h6.93m-8.79,15.53h8.79V648.4h-7.52a55,55,0,0,1-1.27-10.84M992.39,653h6.25v11.53l-1.56-.2A68.42,68.42,0,0,1,992.39,653m-10.75,3.23a33.72,33.72,0,0,1-2.83-3.23h8.4a57.18,57.18,0,0,0,4.4,9.87,29.14,29.14,0,0,1-10-6.64m24.33,8.1-1.57.2V653h6a74,74,0,0,1-4.39,11.33m16.11-8.1a28,28,0,0,1-10.45,6.74,53.3,53.3,0,0,0,4.69-10h8.59a32.39,32.39,0,0,1-2.83,3.23m-10.64-7.82h-7V637.56h8.4A62.52,62.52,0,0,1,1011.44,648.4Z"/></g><g id="Layer4_0_MEMBER_0_MEMBER_4_FILL" data-name="Layer4 0 MEMBER 0 MEMBER 4 FILL"><path class="cls-1" d="M513,312.3a15.26,15.26,0,0,0-5.76,1.07l-49-49H165.66L63.29,162a17,17,0,0,0,.3-3.22,15.6,15.6,0,0,0-4.79-11.43,15.45,15.45,0,0,0-11.33-4.69,17,17,0,0,0-3.22.3,17.23,17.23,0,0,0-2.54.78l-.39.19a7.67,7.67,0,0,0-1.66.79A13.94,13.94,0,0,0,36,147.32c-.65.72-1.23,1.44-1.76,2.15A12.73,12.73,0,0,0,33,151.62l-.19.39a18.18,18.18,0,0,0-.68,1.76,14.87,14.87,0,0,0-.79,5A15.45,15.45,0,0,0,36,170.08a15.6,15.6,0,0,0,11.43,4.79,16,16,0,0,0,5.08-.78c.52-.2,1.07-.43,1.66-.69l.39-.19c.72-.39,1.43-.82,2.15-1.27L160.87,276.06H453.31l45.23,45.22a16.09,16.09,0,0,0,3,18.47A15.59,15.59,0,0,0,513,344.53a15.33,15.33,0,0,0,7.14-1.66,17.48,17.48,0,0,0,4.2-3.12,17.73,17.73,0,0,0,3.8-5.47,17.14,17.14,0,0,0,1-5.87A16.17,16.17,0,0,0,513,312.3m-.58,6.25H513a9.43,9.43,0,0,1,6.94,2.83,9.62,9.62,0,0,1,2.93,7V329a9.22,9.22,0,0,1-2.93,6.35,10.13,10.13,0,0,1-4.59,2.73,14.25,14.25,0,0,1-2.35.2,9.81,9.81,0,0,1-7-2.93,9.43,9.43,0,0,1-2.83-6.94,8.65,8.65,0,0,1,.29-2.24,8.85,8.85,0,0,1,2.54-4.79,10,10,0,0,1,6.45-2.83m-1.86-44.35a16.17,16.17,0,0,0-16.11-16.11,14.39,14.39,0,0,0-5.38,1,.94.94,0,0,0-.39.1c-.32.13-.68.26-1.07.39L463.08,235H170.54L30.28,94.77c.26-.58.52-1.14.78-1.66l.2-.39a17.28,17.28,0,0,0,1-5.86,15.6,15.6,0,0,0-4.78-11.43,15.47,15.47,0,0,0-11.33-4.68,15.08,15.08,0,0,0-5.77,1.07L10,72a7.39,7.39,0,0,0-1.66.78,14.07,14.07,0,0,0-3.61,2.63,15,15,0,0,0-3,4.3l-.19.39a18.29,18.29,0,0,0-.69,1.76,15.12,15.12,0,0,0-.78,5A15.41,15.41,0,0,0,4.69,98.19,15.6,15.6,0,0,0,16.12,103a16,16,0,0,0,5.08-.78L165.76,246.76H458.2l21.39,21.29a14.82,14.82,0,0,0-1.27,6.15A15.41,15.41,0,0,0,483,285.53a15.57,15.57,0,0,0,11.43,4.79,16,16,0,0,0,6.15-1.17,6.4,6.4,0,0,0,1-.49l.39-.19a18.84,18.84,0,0,0,7.13-7.43,7.36,7.36,0,0,0,.49-1,1.11,1.11,0,0,1,.19-.3,19.53,19.53,0,0,0,.78-5.57m18.07-.09a1,1,0,0,0-.19.29,16.07,16.07,0,0,0,3,18.46,15.6,15.6,0,0,0,11.42,4.79A15.38,15.38,0,0,0,550,296l.39-.2a16.77,16.77,0,0,0,3.81-2.93,17.48,17.48,0,0,0,3.81-5.47,1,1,0,0,1,.2-.29,19.58,19.58,0,0,0,.78-5.57,15.6,15.6,0,0,0-4.79-11.43,15.45,15.45,0,0,0-11.33-4.69,14.37,14.37,0,0,0-5.37,1l-51.86-51.87H193.11L81.27,102.69v-1.18A10.35,10.35,0,0,0,70.91,91.16a5.06,5.06,0,0,0-1.07.1,5.41,5.41,0,0,0-1,.09c-.52.14-1.07.3-1.66.49a.26.26,0,0,1-.19.1,3.56,3.56,0,0,0-1.08.59,7.9,7.9,0,0,0-2.34,1.66c-.39.45-.75.91-1.08,1.36a5.74,5.74,0,0,0-.88,1.37.45.45,0,0,1-.09.3c-.2.39-.36.74-.49,1.07a1.74,1.74,0,0,0-.1.59,8.31,8.31,0,0,0-.39,2.63,10,10,0,0,0,3,7.33,10.17,10.17,0,0,0,7.32,3,12.78,12.78,0,0,0,2.74-.3L188.32,226.25H480.76l47.86,47.86m22.08-42.59a15.88,15.88,0,0,0-7.23,1.66L499.32,189H206.78L89.47,71.72a2.25,2.25,0,0,0,.29-.58l.2-.39a17.38,17.38,0,0,0,1-5.87,15.6,15.6,0,0,0-4.79-11.42,15.42,15.42,0,0,0-11.33-4.69,15.22,15.22,0,0,0-5.76,1.07l-.39.2a2.3,2.3,0,0,0-.59.29,14.14,14.14,0,0,0-4.69,3.13,14.85,14.85,0,0,0-3,4.29l-.19.4c-.07.19-.13.39-.2.58a15,15,0,0,0-1.27,6.15A16.17,16.17,0,0,0,74.82,81,16,16,0,0,0,81,79.83L202,200.75H494.44l41.22,41.12a15.61,15.61,0,0,0-1.08,5.77A15.44,15.44,0,0,0,539.27,259a15.6,15.6,0,0,0,11.43,4.78,16.5,16.5,0,0,0,5.76-1A17.52,17.52,0,0,0,562,259a15.64,15.64,0,0,0,3.12-4.11,15.86,15.86,0,0,0,1.66-7.22A15.6,15.6,0,0,0,562,236.21a15.42,15.42,0,0,0-11.33-4.69m-9.87,16.12v-.49a9.54,9.54,0,0,1,7.52-9.09,9.17,9.17,0,0,1,2.35-.29,9.46,9.46,0,0,1,6.93,2.83,9.58,9.58,0,0,1,2.93,7,8.72,8.72,0,0,1-.29,2.34,8.86,8.86,0,0,1-2.64,4.59,9.18,9.18,0,0,1-6.35,2.93h-.58a9.8,9.8,0,0,1-7-2.93A9.46,9.46,0,0,1,540.83,247.64Z"/></g><g id="Layer4_0_MEMBER_0_MEMBER_5_FILL" data-name="Layer4 0 MEMBER 0 MEMBER 5 FILL"><path class="cls-1" d="M1595,662c-.13-.39-.29-.82-.49-1.27a1.21,1.21,0,0,1-.19-.29,6.35,6.35,0,0,0-.88-1.57c-.39-.52-.81-1-1.27-1.56a9.56,9.56,0,0,0-2.73-1.95,3.36,3.36,0,0,0-1.18-.59.89.89,0,0,0-.29-.1,11.91,11.91,0,0,0-1.86-.58,9.39,9.39,0,0,0-2.34-.3,12,12,0,0,0-11.92,11.92,9.39,9.39,0,0,0,.3,2.34l-75.31,75.22H1281.71l-36,36a11.61,11.61,0,0,0-12.5,2.73,11.5,11.5,0,0,0-3.52,8.4,13.4,13.4,0,0,0,.69,4.3,13.67,13.67,0,0,0,2.83,4,9.93,9.93,0,0,0,3,2.24,11.21,11.21,0,0,0,5.27,1.27,11.46,11.46,0,0,0,8.4-3.51,11.31,11.31,0,0,0,3.42-8.31,11.63,11.63,0,0,0-1.17-5.27l33.21-33.21h215l76.58-76.58,1.57,1a.81.81,0,0,1,.29.09,8.32,8.32,0,0,0,1.17.49,12,12,0,0,0,3.81.59,11.43,11.43,0,0,0,8.4-3.52,11.29,11.29,0,0,0,3.42-8.3A11.11,11.11,0,0,0,1595,662M1241.46,783.1h.39a7.5,7.5,0,0,1,4.79,2.15,6.54,6.54,0,0,1,1.86,3.51,7.33,7.33,0,0,1-1.86,6.74,7.28,7.28,0,0,1-5.18,2.15,8.17,8.17,0,0,1-1.76-.19,7.34,7.34,0,0,1-3.32-2,6.63,6.63,0,0,1-2.15-4.69v-.39a7,7,0,0,1,2.15-5.17,6.72,6.72,0,0,1,5.08-2.15m327.9-166.54a.26.26,0,0,1-.19-.1c-.46-.13-.85-.23-1.18-.29a3,3,0,0,0-.78-.1,2.64,2.64,0,0,0-.78-.1,7.68,7.68,0,0,0-7.62,7.62v.88l-82.14,82.24H1261.58l-38.19,38.1a10.58,10.58,0,0,0-3.9-.69,11.31,11.31,0,0,0-8.31,3.42,11.49,11.49,0,0,0-3.51,8.4,14.28,14.28,0,0,0,.58,4.11l.1.19a13.86,13.86,0,0,0,2.83,4,13.13,13.13,0,0,0,2.74,2.14,1,1,0,0,1,.29.2,12.07,12.07,0,0,0,5.28,1.17,11.49,11.49,0,0,0,8.4-3.51,11.34,11.34,0,0,0,3.41-8.31,11.63,11.63,0,0,0-1.17-5.27l-.19-.2,35.26-35.16h215l84.3-84.29a9.91,9.91,0,0,0,2,.19,7.68,7.68,0,0,0,7.62-7.62,6.29,6.29,0,0,0-.29-2,.94.94,0,0,0-.1-.39,4.11,4.11,0,0,0-.29-.78.4.4,0,0,1-.1-.3,2.91,2.91,0,0,0-.69-1,4.78,4.78,0,0,0-.78-1,7.56,7.56,0,0,0-1.66-1.27,2,2,0,0,0-.78-.39m29-12.11a11.47,11.47,0,0,0-3.52,8.4,12,12,0,0,0,.79,4.3.81.81,0,0,0,.09.29l.59,1.17L1493.17,721.76h-215l-18.07,18a4.11,4.11,0,0,1-.78-.29h-.3a9.34,9.34,0,0,0-3.9-.79,12,12,0,0,0-11.92,11.92,14.21,14.21,0,0,0,.59,4.1c.06,0,.13.07.19.2a6.86,6.86,0,0,0,.3.68,12.71,12.71,0,0,0,2.44,3.32,11.72,11.72,0,0,0,2.83,2.15.38.38,0,0,0,.29.1,2.26,2.26,0,0,0,.69.39,11.91,11.91,0,0,0,4.59.88,11.46,11.46,0,0,0,8.4-3.52,11.29,11.29,0,0,0,3.42-8.3,11,11,0,0,0-1-4.59l15.73-15.63h215L1603,624.08a12,12,0,0,0,3.81.59,11.47,11.47,0,0,0,8.4-3.52,11.31,11.31,0,0,0,3.42-8.3,11.06,11.06,0,0,0-.59-3.71c-.13-.39-.29-.82-.48-1.27a1.29,1.29,0,0,1-.2-.3,10.3,10.3,0,0,0-2.15-3.12,9.66,9.66,0,0,0-2.73-2,3.34,3.34,0,0,0-1.18-.58,1.21,1.21,0,0,1-.29-.2,11.2,11.2,0,0,0-4.2-.78,11.46,11.46,0,0,0-8.4,3.52m-34.77-19.64a11.61,11.61,0,0,0-8.4,3.42,11.92,11.92,0,0,0-2.74,12.7.7.7,0,0,1,.1.29,3.5,3.5,0,0,0,.2.49L1466.61,688H1251.52l-32.42,32.43a11.45,11.45,0,0,0-5.38-1.27,11.13,11.13,0,0,0-8.3,3.52,11.47,11.47,0,0,0-3.52,8.4,11.93,11.93,0,0,0,1.18,5.27,11.21,11.21,0,0,0,2.34,3,13.18,13.18,0,0,0,4.1,2.83,12.58,12.58,0,0,0,4.2.68,11.46,11.46,0,0,0,8.4-3.51,11.31,11.31,0,0,0,3.42-8.3,12,12,0,0,0-.78-4.3l30.38-30.18h215L1559,607.67a11.91,11.91,0,0,0,4.59.88A11.46,11.46,0,0,0,1572,605a11.61,11.61,0,0,0,3.42-8.4,11.42,11.42,0,0,0-.88-4.49l-.2-.39a.81.81,0,0,1-.09-.29,13.78,13.78,0,0,0-2.25-3.23,11.27,11.27,0,0,0-3.52-2.24.57.57,0,0,0-.39-.2,1,1,0,0,0-.29-.19,11.21,11.21,0,0,0-4.2-.79m-349.88,138.9a5.11,5.11,0,0,1,1.76.29,6.58,6.58,0,0,1,3.42,1.86,6.85,6.85,0,0,1,2,4.78v.4a6.87,6.87,0,0,1-2,5.07,7.24,7.24,0,0,1-5.18,2.15h-.39a6.58,6.58,0,0,1-4.69-2.15,7.28,7.28,0,0,1-2-3.41,6.86,6.86,0,0,1-.2-1.66,7.07,7.07,0,0,1,2.15-5.18A6.75,6.75,0,0,1,1213.72,723.71Z"/></g><g id="Layer4_0_MEMBER_0_MEMBER_6_FILL" data-name="Layer4 0 MEMBER 0 MEMBER 6 FILL"><path class="cls-1" d="M1504.5,118.61a11.91,11.91,0,0,0-.58-1.86.7.7,0,0,0-.1-.29,3.08,3.08,0,0,0-.59-1.17,9.46,9.46,0,0,0-2-2.74c-.52-.46-1-.88-1.56-1.27a6.48,6.48,0,0,0-1.56-.88,1.3,1.3,0,0,1-.3-.19c-.45-.2-.88-.36-1.27-.49a11.06,11.06,0,0,0-3.71-.59,11.31,11.31,0,0,0-8.3,3.42,11.43,11.43,0,0,0-3.52,8.4,12,12,0,0,0,.59,3.81,8.32,8.32,0,0,0,.49,1.17.79.79,0,0,1,.09.3c.33.52.66,1,1,1.56l-76.58,76.58v215l-33.21,33.21a11.63,11.63,0,0,0-5.27-1.17,11.29,11.29,0,0,0-8.3,3.42,11.43,11.43,0,0,0-3.52,8.4,11.21,11.21,0,0,0,1.27,5.27,9.8,9.8,0,0,0,2.25,3,10.22,10.22,0,0,0,8.3,3.52,11.5,11.5,0,0,0,8.4-3.52,11.55,11.55,0,0,0,2.73-12.5l36-36V207.88l75.21-75.31a9.39,9.39,0,0,0,2.34.3A12,12,0,0,0,1504.8,121a9.39,9.39,0,0,0-.3-2.34m-143.58,344.6a7.28,7.28,0,0,1,2.15-5.18,6.89,6.89,0,0,1,5.08-2,6.35,6.35,0,0,1,1.66.2,6.59,6.59,0,0,1,3.52,1.85,7.54,7.54,0,0,1,2.14,4.79v.39a6.74,6.74,0,0,1-2.14,5.08,7.08,7.08,0,0,1-5.18,2.15h-.39a6.63,6.63,0,0,1-4.69-2.15,7.23,7.23,0,0,1-2-3.32,8.19,8.19,0,0,1-.2-1.76M1542.4,136.68c-.06-.33-.16-.72-.29-1.18a.26.26,0,0,1-.1-.19,2,2,0,0,0-.39-.78,7.26,7.26,0,0,0-1.27-1.66,4.74,4.74,0,0,0-1-.78,3,3,0,0,0-1-.69.37.37,0,0,1-.29-.1,4.47,4.47,0,0,0-.79-.29.94.94,0,0,0-.39-.1,6.24,6.24,0,0,0-2-.29,7.68,7.68,0,0,0-7.62,7.62,9.93,9.93,0,0,0,.2,1.95l-84.3,84.3v215l-35.16,35.26-.2-.19a11.63,11.63,0,0,0-5.27-1.17,11.32,11.32,0,0,0-8.3,3.41,11.46,11.46,0,0,0-3.52,8.4,12.07,12.07,0,0,0,1.17,5.28,1,1,0,0,1,.2.29,12.87,12.87,0,0,0,2.15,2.74,13.69,13.69,0,0,0,4,2.83l.2.1a14.21,14.21,0,0,0,4.1.58,11.49,11.49,0,0,0,8.4-3.51,11.31,11.31,0,0,0,3.42-8.31,10.58,10.58,0,0,0-.69-3.9l38.1-38.19V228l82.24-82.14h.88a7.68,7.68,0,0,0,7.62-7.62,2.34,2.34,0,0,0-.1-.78,3,3,0,0,0-.1-.78m31.36,4.39a11.2,11.2,0,0,0-.78-4.2,1,1,0,0,0-.2-.29.53.53,0,0,0-.2-.39,11.1,11.1,0,0,0-2.24-3.52,13.59,13.59,0,0,0-3.22-2.24.86.86,0,0,1-.3-.1l-.39-.2a11.38,11.38,0,0,0-4.49-.88,11.61,11.61,0,0,0-8.4,3.42,11.46,11.46,0,0,0-3.52,8.4,11.91,11.91,0,0,0,.88,4.59L1462,234.55v215l-30.19,30.38a12,12,0,0,0-4.29-.78,11.31,11.31,0,0,0-8.31,3.42,11.46,11.46,0,0,0-3.51,8.4,12.76,12.76,0,0,0,.68,4.2,13.35,13.35,0,0,0,2.83,4.1,11.21,11.21,0,0,0,3,2.34,11.94,11.94,0,0,0,5.28,1.18,11.5,11.5,0,0,0,8.4-3.52,11.16,11.16,0,0,0,3.51-8.3,11.38,11.38,0,0,0-1.27-5.37l32.43-32.43V238.06l86.25-86.15a3.5,3.5,0,0,0,.49.2.7.7,0,0,1,.29.1,11.86,11.86,0,0,0,16.12-11.14M1420.31,491a7.24,7.24,0,0,1,2.15-5.18,6.88,6.88,0,0,1,5.08-2h.39a6.83,6.83,0,0,1,4.78,2,6.58,6.58,0,0,1,1.86,3.42,5.11,5.11,0,0,1,.29,1.76,6.72,6.72,0,0,1-2.15,5.08,7.06,7.06,0,0,1-5.17,2.15,6.8,6.8,0,0,1-1.66-.2,7.27,7.27,0,0,1-3.42-2,6.58,6.58,0,0,1-2.15-4.69V491M1537.42,89.5a11.46,11.46,0,0,0-3.51,8.4,12,12,0,0,0,.58,3.81L1428.22,208V423l-15.63,15.72a11,11,0,0,0-4.59-1,11.29,11.29,0,0,0-8.3,3.42,11.46,11.46,0,0,0-3.52,8.4,11.91,11.91,0,0,0,.88,4.59,2.78,2.78,0,0,0,.39.69.37.37,0,0,0,.1.29,12,12,0,0,0,2.15,2.83,12.76,12.76,0,0,0,3.32,2.45,6.52,6.52,0,0,0,.68.29c.13.06.2.13.2.19a14.21,14.21,0,0,0,4.1.59,12,12,0,0,0,11.92-11.92,9.5,9.5,0,0,0-.78-3.9v-.3a4.17,4.17,0,0,1-.3-.78l18-18.07v-215L1540,108.35l1.17.59a.79.79,0,0,0,.3.09,11.74,11.74,0,0,0,4.29.79,12,12,0,0,0,11.92-11.92,11.2,11.2,0,0,0-.78-4.2,1.21,1.21,0,0,1-.2-.29,3.34,3.34,0,0,0-.58-1.18,9.8,9.8,0,0,0-2-2.73,10.3,10.3,0,0,0-3.12-2.15.86.86,0,0,1-.29-.2c-.46-.19-.88-.35-1.27-.48a11.17,11.17,0,0,0-3.72-.59A11.31,11.31,0,0,0,1537.42,89.5Z"/></g><g id="Layer4_0_MEMBER_1_FILL" data-name="Layer4 0 MEMBER 1 FILL"><path class="cls-4" d="M1658.34,383.31a54.81,54.81,0,0,0-40.73-15.43,56.88,56.88,0,0,0-55.28,58.8,9.45,9.45,0,0,0,.19,1.85,48.34,48.34,0,0,0,.59,6.25,46.35,46.35,0,0,0-6.64-.48h-1.37A45.44,45.44,0,0,0,1522.38,449a46.05,46.05,0,0,0-12.7,33.6,56.41,56.41,0,0,0,1.86,12.11,44.29,44.29,0,0,0,12.89,20.61,45.63,45.63,0,0,0,33.6,12.79,54.41,54.41,0,0,0,12-1.85q62.9,14.16,120.82-3.71a42,42,0,0,0,16,2.44,42.84,42.84,0,0,0,41.71-42.59v-3.51a62,62,0,0,0-1.66-9.48A41.93,41.93,0,0,0,1735,450.51a39.83,39.83,0,0,0-20.8-10.74c-.85-1.7-1.73-3.29-2.64-4.79a52.51,52.51,0,0,0-9.48-11.62,50.3,50.3,0,0,0-26.37-13.48,10,10,0,0,1-1.27-.1,4.76,4.76,0,0,0-.29-1.17A54.79,54.79,0,0,0,1658.34,383.31Z"/></g><g id="Layer4_0_MEMBER_2_FILL" data-name="Layer4 0 MEMBER 2 FILL"><path class="cls-5" d="M475,751.35a56.91,56.91,0,0,0-55.29,58.8,9.51,9.51,0,0,0,.2,1.86,46.79,46.79,0,0,0,.59,6.25,45.09,45.09,0,0,0-6.65-.49h-1.36a45.5,45.5,0,0,0-32.73,14.65A46,46,0,0,0,367.07,866a55.88,55.88,0,0,0,1.85,12.12,44.32,44.32,0,0,0,12.9,20.61,45.67,45.67,0,0,0,33.6,12.79,54.32,54.32,0,0,0,12-1.85q62.91,14.16,120.83-3.72a43.71,43.71,0,0,0,46.1-11A41.2,41.2,0,0,0,606,865.83v-3.52a60.48,60.48,0,0,0-1.66-9.47A41.94,41.94,0,0,0,592.41,834a39.94,39.94,0,0,0-20.81-10.75c-.85-1.69-1.73-3.29-2.64-4.78a52.5,52.5,0,0,0-9.47-11.63,50.45,50.45,0,0,0-26.37-13.48,9.71,9.71,0,0,1-1.27-.09,5.47,5.47,0,0,0-.3-1.18A57.62,57.62,0,0,0,475,751.35Z"/></g><g id="Layer4_0_MEMBER_3_FILL" data-name="Layer4 0 MEMBER 3 FILL"><path class="cls-6" d="M410.92,55.51A50.3,50.3,0,0,0,384.55,42a8.41,8.41,0,0,1-1.27-.1,4.88,4.88,0,0,0-.29-1.17,54.84,54.84,0,0,0-15.83-25.3A54.85,54.85,0,0,0,326.43,0,55.49,55.49,0,0,0,286.58,17.9a55.52,55.52,0,0,0-15.43,40.93,9.45,9.45,0,0,0,.19,1.85,48.66,48.66,0,0,0,.59,6.26,45,45,0,0,0-6.64-.49h-1.37A45.44,45.44,0,0,0,231.2,81.1a46.08,46.08,0,0,0-12.7,33.6,56.41,56.41,0,0,0,1.86,12.11,44.2,44.2,0,0,0,12.89,20.61,45.67,45.67,0,0,0,33.6,12.8,55,55,0,0,0,12-1.86q62.89,14.16,120.82-3.71a41.77,41.77,0,0,0,16,2.44,42.84,42.84,0,0,0,41.71-42.59V111a62,62,0,0,0-1.66-9.48,42,42,0,0,0-11.92-18.85A39.89,39.89,0,0,0,423,71.92c-.84-1.7-1.72-3.29-2.63-4.79A52.51,52.51,0,0,0,410.92,55.51Z"/></g></g></g></svg>