<svg xmlns="http://www.w3.org/2000/svg" xmlns:xlink="http://www.w3.org/1999/xlink" viewBox="0 0 764.33 607.39"><defs><style>.cls-1{fill:url(#铃琨眄_沭噤桢眚_20);}.cls-2{fill:url(#铃琨眄_沭噤桢眚_20-2);}.cls-3{fill:url(#铃琨眄_沭噤桢眚_20-3);}.cls-4{fill:url(#铃琨眄_沭噤桢眚_20-4);}.cls-5{fill:url(#铃琨眄_沭噤桢眚_20-5);}.cls-6{fill:url(#铃琨眄_沭噤桢眚_20-6);}.cls-7{fill:url(#铃琨眄_沭噤桢眚_20-7);}.cls-8{fill:url(#铃琨眄_沭噤桢眚_20-8);}.cls-9{fill:url(#铃琨眄_沭噤桢眚_20-9);}.cls-10{fill:url(#铃琨眄_沭噤桢眚_20-10);}.cls-11{fill:url(#铃琨眄_沭噤桢眚_20-11);}.cls-12{fill:url(#铃琨眄_沭噤桢眚_20-12);}.cls-13{fill:url(#铃琨眄_沭噤桢眚_20-13);}.cls-14{isolation:isolate;}.cls-15{opacity:0.75;}.cls-128,.cls-130,.cls-16,.cls-18,.cls-19,.cls-21,.cls-24{opacity:0.57;}.cls-16{fill:url(#铃琨眄_沭噤桢眚_20-14);}.cls-17{fill:url(#铃琨眄_沭噤桢眚_20-15);}.cls-18{fill:url(#铃琨眄_沭噤桢眚_20-16);}.cls-19{fill:url(#铃琨眄_沭噤桢眚_20-17);}.cls-20{fill:url(#铃琨眄_沭噤桢眚_20-18);}.cls-21{fill:url(#铃琨眄_沭噤桢眚_20-19);}.cls-22,.cls-23{opacity:0.74;}.cls-22{fill:url(#铃琨眄_沭噤桢眚_13);}.cls-23{fill:url(#铃琨眄_沭噤桢眚_13-2);}.cls-24{fill:url(#铃琨眄_沭噤桢眚_20-20);}.cls-25{opacity:0.5;}.cls-26,.cls-27,.cls-28,.cls-29,.cls-30,.cls-31,.cls-32,.cls-33,.cls-34,.cls-35,.cls-36,.cls-37,.cls-38,.cls-39,.cls-40{opacity:0.2;mix-blend-mode:lighten;}.cls-26{fill:url(#铃琨眄_沭噤桢眚_323);}.cls-27{fill:url(#铃琨眄_沭噤桢眚_323-2);}.cls-28{fill:url(#铃琨眄_沭噤桢眚_323-3);}.cls-29{fill:url(#铃琨眄_沭噤桢眚_323-4);}.cls-30{fill:url(#铃琨眄_沭噤桢眚_323-5);}.cls-31{fill:url(#铃琨眄_沭噤桢眚_323-6);}.cls-32{fill:url(#铃琨眄_沭噤桢眚_323-7);}.cls-33{fill:url(#铃琨眄_沭噤桢眚_323-8);}.cls-34{fill:url(#铃琨眄_沭噤桢眚_323-9);}.cls-35{fill:url(#铃琨眄_沭噤桢眚_323-10);}.cls-36{fill:url(#铃琨眄_沭噤桢眚_323-11);}.cls-37{fill:url(#铃琨眄_沭噤桢眚_323-12);}.cls-38{fill:url(#铃琨眄_沭噤桢眚_323-13);}.cls-39{fill:url(#铃琨眄_沭噤桢眚_323-14);}.cls-40{fill:url(#铃琨眄_沭噤桢眚_323-15);}.cls-41{opacity:0.3;}.cls-42{fill:url(#铃琨眄_沭噤桢眚_20-21);}.cls-43{fill:url(#铃琨眄_沭噤桢眚_20-22);}.cls-44{fill:url(#铃琨眄_沭噤桢眚_20-23);}.cls-45{fill:url(#铃琨眄_沭噤桢眚_20-24);}.cls-46{fill:url(#铃琨眄_沭噤桢眚_20-25);}.cls-47{clip-path:url(#clip-path);}.cls-48{clip-path:url(#clip-path-2);}.cls-49{clip-path:url(#clip-path-3);}.cls-50{clip-path:url(#clip-path-4);}.cls-51{fill:url(#铃琨眄_沭噤桢眚_20-33);}.cls-52{fill:url(#铃琨眄_沭噤桢眚_20-34);}.cls-53{fill:url(#铃琨眄_沭噤桢眚_20-35);}.cls-54{fill:url(#铃琨眄_沭噤桢眚_20-36);}.cls-55{fill:url(#铃琨眄_沭噤桢眚_20-37);}.cls-56{clip-path:url(#clip-path-5);}.cls-57{clip-path:url(#clip-path-6);}.cls-58{fill:url(#铃琨眄_沭噤桢眚_20-41);}.cls-59{fill:url(#铃琨眄_沭噤桢眚_20-42);}.cls-60{fill:url(#铃琨眄_沭噤桢眚_20-43);}.cls-61{fill:url(#铃琨眄_沭噤桢眚_20-44);}.cls-62{fill:url(#铃琨眄_沭噤桢眚_20-45);}.cls-63{clip-path:url(#clip-path-7);}.cls-64{fill:url(#铃琨眄_沭噤桢眚_20-47);}.cls-65{fill:url(#铃琨眄_沭噤桢眚_20-48);}.cls-66{fill:url(#铃琨眄_沭噤桢眚_20-49);}.cls-67{fill:url(#铃琨眄_沭噤桢眚_20-50);}.cls-68{fill:url(#铃琨眄_沭噤桢眚_20-51);}.cls-69{clip-path:url(#clip-path-8);}.cls-70{fill:url(#铃琨眄_沭噤桢眚_20-54);}.cls-71{fill:url(#铃琨眄_沭噤桢眚_20-55);}.cls-72{clip-path:url(#clip-path-9);}.cls-73{fill:url(#铃琨眄_沭噤桢眚_20-57);}.cls-74{fill:url(#铃琨眄_沭噤桢眚_20-58);}.cls-75{fill:url(#铃琨眄_沭噤桢眚_20-59);}.cls-76{fill:url(#铃琨眄_沭噤桢眚_20-60);}.cls-77{fill:url(#铃琨眄_沭噤桢眚_20-61);}.cls-78{fill:url(#铃琨眄_沭噤桢眚_20-62);}.cls-79{fill:url(#铃琨眄_沭噤桢眚_20-63);}.cls-80{fill:url(#铃琨眄_沭噤桢眚_20-64);}.cls-81{fill:url(#铃琨眄_沭噤桢眚_20-65);}.cls-82{fill:url(#铃琨眄_沭噤桢眚_20-66);}.cls-83{fill:url(#铃琨眄_沭噤桢眚_20-67);}.cls-84{fill:url(#铃琨眄_沭噤桢眚_20-68);}.cls-85{fill:url(#铃琨眄_沭噤桢眚_20-69);}.cls-86{fill:url(#铃琨眄_沭噤桢眚_20-70);}.cls-87{fill:url(#铃琨眄_沭噤桢眚_20-71);}.cls-88{fill:url(#铃琨眄_沭噤桢眚_20-72);}.cls-89{fill:url(#铃琨眄_沭噤桢眚_20-73);}.cls-90{fill:url(#铃琨眄_沭噤桢眚_20-74);}.cls-91{fill:url(#铃琨眄_沭噤桢眚_20-75);}.cls-92{clip-path:url(#clip-path-10);}.cls-93{fill:url(#铃琨眄_沭噤桢眚_20-77);}.cls-94{fill:url(#铃琨眄_沭噤桢眚_20-78);}.cls-95{fill:url(#铃琨眄_沭噤桢眚_20-79);}.cls-96{clip-path:url(#clip-path-11);}.cls-97{fill:url(#铃琨眄_沭噤桢眚_20-81);}.cls-98{fill:url(#铃琨眄_沭噤桢眚_20-82);}.cls-99{fill:url(#铃琨眄_沭噤桢眚_20-83);}.cls-100{fill:url(#铃琨眄_沭噤桢眚_20-84);}.cls-101{fill:url(#铃琨眄_沭噤桢眚_20-85);}.cls-102{clip-path:url(#clip-path-12);}.cls-103{fill:url(#铃琨眄_沭噤桢眚_20-87);}.cls-104{fill:url(#铃琨眄_沭噤桢眚_20-88);}.cls-105{fill:url(#铃琨眄_沭噤桢眚_20-89);}.cls-106{fill:url(#铃琨眄_沭噤桢眚_20-90);}.cls-107{clip-path:url(#clip-path-13);}.cls-108{fill:url(#铃琨眄_沭噤桢眚_20-92);}.cls-109{fill:url(#铃琨眄_沭噤桢眚_20-93);}.cls-110{fill:url(#铃琨眄_沭噤桢眚_20-94);}.cls-111{fill:url(#铃琨眄_沭噤桢眚_20-95);}.cls-112{fill:url(#铃琨眄_沭噤桢眚_20-96);}.cls-113{fill:url(#铃琨眄_沭噤桢眚_20-97);}.cls-114{fill:url(#铃琨眄_沭噤桢眚_20-98);}.cls-115{fill:url(#铃琨眄_沭噤桢眚_20-99);}.cls-116{fill:url(#铃琨眄_沭噤桢眚_20-100);}.cls-117{fill:url(#铃琨眄_沭噤桢眚_20-101);}.cls-118{fill:url(#铃琨眄_沭噤桢眚_20-102);}.cls-119{fill:url(#铃琨眄_沭噤桢眚_20-103);}.cls-120{fill:url(#铃琨眄_沭噤桢眚_20-104);}.cls-121{fill:url(#铃琨眄_沭噤桢眚_20-105);}.cls-122{fill:url(#铃琨眄_沭噤桢眚_20-106);}.cls-123{fill:url(#铃琨眄_沭噤桢眚_20-107);}.cls-124{fill:url(#铃琨眄_沭噤桢眚_20-108);}.cls-125{fill:url(#铃琨眄_沭噤桢眚_20-109);}.cls-126,.cls-127,.cls-129{opacity:0.54;}.cls-126{fill:url(#铃琨眄_沭噤桢眚_20-110);}.cls-128{fill:url(#铃琨眄_沭噤桢眚_20-111);}.cls-129{fill:url(#铃琨眄_沭噤桢眚_20-112);}.cls-130{fill:url(#铃琨眄_沭噤桢眚_20-113);}.cls-131{fill:url(#铃琨眄_沭噤桢眚_20-114);}.cls-132{fill:url(#铃琨眄_沭噤桢眚_20-115);}.cls-133{fill:#e6e7e8;}.cls-134{fill:url(#铃琨眄_沭噤桢眚_20-116);}.cls-135{fill:url(#铃琨眄_沭噤桢眚_20-117);}.cls-136{fill:url(#铃琨眄_沭噤桢眚_20-118);}.cls-137{fill:url(#铃琨眄_沭噤桢眚_20-119);}</style><linearGradient id="铃琨眄_沭噤桢眚_20" x1="516" y1="237.75" x2="533.81" y2="237.75" gradientUnits="userSpaceOnUse"><stop offset="0" stop-color="#42ffff"/><stop offset="0.15" stop-color="#43faff"/><stop offset="0.33" stop-color="#45ecff"/><stop offset="0.52" stop-color="#49d4ff"/><stop offset="0.72" stop-color="#4eb3ff"/><stop offset="0.93" stop-color="#5489ff"/><stop offset="1" stop-color="#5778ff"/></linearGradient><linearGradient id="铃琨眄_沭噤桢眚_20-2" x1="508.05" y1="234.48" x2="532.59" y2="234.48" xlink:href="#铃琨眄_沭噤桢眚_20"/><linearGradient id="铃琨眄_沭噤桢眚_20-3" x1="425.81" y1="227.99" x2="468.96" y2="227.99" xlink:href="#铃琨眄_沭噤桢眚_20"/><linearGradient id="铃琨眄_沭噤桢眚_20-4" x1="397.62" y1="220.95" x2="433.87" y2="220.95" xlink:href="#铃琨眄_沭噤桢眚_20"/><linearGradient id="铃琨眄_沭噤桢眚_20-5" x1="339.31" y1="267.9" x2="414.21" y2="267.9" xlink:href="#铃琨眄_沭噤桢眚_20"/><linearGradient id="铃琨眄_沭噤桢眚_20-6" x1="458.63" y1="215.97" x2="494.9" y2="215.97" xlink:href="#铃琨眄_沭噤桢眚_20"/><linearGradient id="铃琨眄_沭噤桢眚_20-7" x1="461.37" y1="173.14" x2="514.21" y2="173.14" xlink:href="#铃琨眄_沭噤桢眚_20"/><linearGradient id="铃琨眄_沭噤桢眚_20-8" x1="418.21" y1="198.78" x2="441.52" y2="198.78" xlink:href="#铃琨眄_沭噤桢眚_20"/><linearGradient id="铃琨眄_沭噤桢眚_20-9" x1="398.84" y1="140.31" x2="454.94" y2="140.31" xlink:href="#铃琨眄_沭噤桢眚_20"/><linearGradient id="铃琨眄_沭噤桢眚_20-10" x1="356.7" y1="130.98" x2="407.48" y2="130.98" xlink:href="#铃琨眄_沭噤桢眚_20"/><linearGradient id="铃琨眄_沭噤桢眚_20-11" x1="257.88" y1="278.17" x2="297.96" y2="278.17" xlink:href="#铃琨眄_沭噤桢眚_20"/><linearGradient id="铃琨眄_沭噤桢眚_20-12" x1="258.29" y1="188.13" x2="370.92" y2="188.13" xlink:href="#铃琨眄_沭噤桢眚_20"/><linearGradient id="铃琨眄_沭噤桢眚_20-13" x1="465.51" y1="253.31" x2="512.44" y2="253.31" xlink:href="#铃琨眄_沭噤桢眚_20"/><linearGradient id="铃琨眄_沭噤桢眚_20-14" x1="7272.05" y1="-3761.66" x2="7353" y2="-3761.66" gradientTransform="matrix(-0.87, 0.5, 1, 0.58, 10240.32, -1129.39)" xlink:href="#铃琨眄_沭噤桢眚_20"/><linearGradient id="铃琨眄_沭噤桢眚_20-15" x1="13127.92" y1="356.4" x2="13092.56" y2="318.48" gradientTransform="matrix(-1, 0, 0, 1, 13155.81, 0)" xlink:href="#铃琨眄_沭噤桢眚_20"/><linearGradient id="铃琨眄_沭噤桢眚_20-16" x1="13135.39" y1="364.41" x2="13085.09" y2="310.47" gradientTransform="matrix(-1, 0, 0, 1, 13155.81, 0)" xlink:href="#铃琨眄_沭噤桢眚_20"/><linearGradient id="铃琨眄_沭噤桢眚_20-17" x1="2875.47" y1="181.9" x2="2956.41" y2="181.9" gradientTransform="matrix(0.87, 0.5, -1, 0.58, -1724.99, -1129.39)" xlink:href="#铃琨眄_沭噤桢眚_20"/><linearGradient id="铃琨眄_沭噤桢眚_20-18" x1="5376.91" y1="435.11" x2="5341.56" y2="397.2" gradientTransform="translate(-4640.48)" xlink:href="#铃琨眄_沭噤桢眚_20"/><linearGradient id="铃琨眄_沭噤桢眚_20-19" x1="5384.39" y1="443.13" x2="5334.09" y2="389.19" gradientTransform="translate(-4640.48)" xlink:href="#铃琨眄_沭噤桢眚_20"/><linearGradient id="铃琨眄_沭噤桢眚_13" x1="-2097.41" y1="202.28" x2="-1658.81" y2="455.51" gradientTransform="translate(2275.73)" gradientUnits="userSpaceOnUse"><stop offset="0" stop-color="#5778ff"/><stop offset="0.07" stop-color="#5489ff"/><stop offset="0.28" stop-color="#4eb3ff"/><stop offset="0.48" stop-color="#49d4ff"/><stop offset="0.67" stop-color="#45ecff"/><stop offset="0.85" stop-color="#43faff"/><stop offset="1" stop-color="#42ffff"/></linearGradient><linearGradient id="铃琨眄_沭噤桢眚_13-2" x1="-2113.12" y1="130.67" x2="-1674.53" y2="383.89" xlink:href="#铃琨眄_沭噤桢眚_13"/><linearGradient id="铃琨眄_沭噤桢眚_20-20" x1="124.21" y1="294.51" x2="671.03" y2="294.51" xlink:href="#铃琨眄_沭噤桢眚_20"/><radialGradient id="铃琨眄_沭噤桢眚_323" cx="549.43" cy="546.53" r="60.86" gradientUnits="userSpaceOnUse"><stop offset="0" stop-color="#42ffff"/><stop offset="0.08" stop-color="#3feaf6"/><stop offset="0.42" stop-color="#3497d4"/><stop offset="0.69" stop-color="#2c59bb"/><stop offset="0.89" stop-color="#2733ab"/><stop offset="1" stop-color="#2525a5"/></radialGradient><radialGradient id="铃琨眄_沭噤桢眚_323-2" cx="549.43" cy="546.53" r="52.87" xlink:href="#铃琨眄_沭噤桢眚_323"/><radialGradient id="铃琨眄_沭噤桢眚_323-3" cx="549.43" cy="546.53" r="41.29" xlink:href="#铃琨眄_沭噤桢眚_323"/><radialGradient id="铃琨眄_沭噤桢眚_323-4" cx="549.43" cy="546.53" r="29.72" xlink:href="#铃琨眄_沭噤桢眚_323"/><radialGradient id="铃琨眄_沭噤桢眚_323-5" cx="549.43" cy="546.53" r="15.83" xlink:href="#铃琨眄_沭噤桢眚_323"/><radialGradient id="铃琨眄_沭噤桢眚_323-6" cx="134.19" cy="497.44" r="30.14" xlink:href="#铃琨眄_沭噤桢眚_323"/><radialGradient id="铃琨眄_沭噤桢眚_323-7" cx="134.19" cy="497.44" r="26.18" xlink:href="#铃琨眄_沭噤桢眚_323"/><radialGradient id="铃琨眄_沭噤桢眚_323-8" cx="134.19" cy="497.44" r="20.45" xlink:href="#铃琨眄_沭噤桢眚_323"/><radialGradient id="铃琨眄_沭噤桢眚_323-9" cx="134.19" cy="497.44" r="14.72" xlink:href="#铃琨眄_沭噤桢眚_323"/><radialGradient id="铃琨眄_沭噤桢眚_323-10" cx="134.19" cy="497.44" r="7.84" xlink:href="#铃琨眄_沭噤桢眚_323"/><radialGradient id="铃琨眄_沭噤桢眚_323-11" cx="454.94" cy="60.86" r="60.86" xlink:href="#铃琨眄_沭噤桢眚_323"/><radialGradient id="铃琨眄_沭噤桢眚_323-12" cx="454.94" cy="60.86" r="52.87" xlink:href="#铃琨眄_沭噤桢眚_323"/><radialGradient id="铃琨眄_沭噤桢眚_323-13" cx="454.94" cy="60.86" r="41.29" xlink:href="#铃琨眄_沭噤桢眚_323"/><radialGradient id="铃琨眄_沭噤桢眚_323-14" cx="454.94" cy="60.86" r="29.72" xlink:href="#铃琨眄_沭噤桢眚_323"/><radialGradient id="铃琨眄_沭噤桢眚_323-15" cx="454.94" cy="60.86" r="15.83" xlink:href="#铃琨眄_沭噤桢眚_323"/><linearGradient id="铃琨眄_沭噤桢眚_20-21" x1="10571.64" y1="125.01" x2="10562.81" y2="115.54" gradientTransform="matrix(-1, 0, 0, 1, 10704.37, 0)" xlink:href="#铃琨眄_沭噤桢眚_20"/><linearGradient id="铃琨眄_沭噤桢眚_20-22" x1="10607.29" y1="113.14" x2="10592.44" y2="97.22" gradientTransform="matrix(-1, 0, 0, 1, 10704.37, 0)" xlink:href="#铃琨眄_沭噤桢眚_20"/><linearGradient id="铃琨眄_沭噤桢眚_20-23" x1="10602.61" y1="135.74" x2="10592.26" y2="124.63" gradientTransform="matrix(-1, 0, 0, 1, 10704.37, 0)" xlink:href="#铃琨眄_沭噤桢眚_20"/><linearGradient id="铃琨眄_沭噤桢眚_20-24" x1="10113.6" y1="218.33" x2="10070.94" y2="172.59" gradientTransform="matrix(-1, 0, 0, 1, 10704.37, 0)" xlink:href="#铃琨眄_沭噤桢眚_20"/><linearGradient id="铃琨眄_沭噤桢眚_20-25" x1="10485.88" y1="453.25" x2="10443.22" y2="407.5" gradientTransform="matrix(-1, 0, 0, 1, 10704.37, 0)" xlink:href="#铃琨眄_沭噤桢眚_20"/><clipPath id="clip-path"><path class="cls-1" d="M533.81,242.73l-16.59-9c-.73-.58-1-.76-1.21-.93l16.59,9C532.84,242,533.08,242.15,533.81,242.73Z"/></clipPath><clipPath id="clip-path-2"><path class="cls-2" d="M508.05,227.16l16.59,9a43.18,43.18,0,0,1,7.95,5.61l-16.59-9A43.18,43.18,0,0,0,508.05,227.16Z"/></clipPath><clipPath id="clip-path-3"><path class="cls-6" d="M494.9,232.48l-16.59-9a2.59,2.59,0,0,1-1.06-1.55,38.88,38.88,0,0,0-16.19-21q-1.21-.77-2.44-1.44l16.59,9q1.23.67,2.44,1.44a38.88,38.88,0,0,1,16.19,21A2.59,2.59,0,0,0,494.9,232.48Z"/></clipPath><clipPath id="clip-path-4"><path class="cls-7" d="M478,175.91l-16.59-9a2.36,2.36,0,0,0,1.45.11c4.67-.6,9.43-1.48,13.95-1.17a50.29,50.29,0,0,1,20.85,5.68l16.59,9a50.29,50.29,0,0,0-20.85-5.68c-4.52-.31-9.28.57-13.95,1.17A2.36,2.36,0,0,1,478,175.91Z"/></clipPath><linearGradient id="铃琨眄_沭噤桢眚_20-33" x1="461.37" y1="171.41" x2="478.01" y2="171.41" xlink:href="#铃琨眄_沭噤桢眚_20"/><linearGradient id="铃琨眄_沭噤桢眚_20-34" x1="461.42" y1="171.46" x2="478.25" y2="171.46" xlink:href="#铃琨眄_沭噤桢眚_20"/><linearGradient id="铃琨眄_沭噤桢眚_20-35" x1="461.66" y1="171.13" x2="503.9" y2="171.13" xlink:href="#铃琨眄_沭噤桢眚_20"/><linearGradient id="铃琨眄_沭噤桢眚_20-36" x1="487.31" y1="173.6" x2="512.67" y2="173.6" xlink:href="#铃琨眄_沭噤桢眚_20"/><linearGradient id="铃琨眄_沭噤桢眚_20-37" x1="496.07" y1="175.61" x2="514.21" y2="175.61" xlink:href="#铃琨眄_沭噤桢眚_20"/><clipPath id="clip-path-5"><path class="cls-8" d="M441.52,205.43l-16.59-9a7.4,7.4,0,0,1-.87-.58,53.12,53.12,0,0,0-5.84-3.7l16.59,9a53.1,53.1,0,0,1,5.84,3.7A7.39,7.39,0,0,0,441.52,205.43Z"/></clipPath><clipPath id="clip-path-6"><path class="cls-9" d="M415.43,144l-16.59-9a4.65,4.65,0,0,0,2.69.34c3-.47,6-1.23,9-1.65l1.12-.14a44.1,44.1,0,0,1,26.67,5l16.59,9a44.09,44.09,0,0,0-26.67-5l-1.12.14c-3,.42-6,1.18-9,1.65A4.65,4.65,0,0,1,415.43,144Z"/></clipPath><linearGradient id="铃琨眄_沭噤桢眚_20-41" x1="398.84" y1="139.48" x2="415.52" y2="139.48" xlink:href="#铃琨眄_沭噤桢眚_20"/><linearGradient id="铃琨眄_沭噤桢眚_20-42" x1="398.92" y1="139.61" x2="416.09" y2="139.61" xlink:href="#铃琨眄_沭噤桢眚_20"/><linearGradient id="铃琨眄_沭噤桢眚_20-43" x1="399.5" y1="138.76" x2="445.14" y2="138.76" xlink:href="#铃琨眄_沭噤桢眚_20"/><linearGradient id="铃琨眄_沭噤桢眚_20-44" x1="428.54" y1="140.59" x2="453.31" y2="140.59" xlink:href="#铃琨眄_沭噤桢眚_20"/><linearGradient id="铃琨眄_沭噤桢眚_20-45" x1="436.72" y1="142.53" x2="454.94" y2="142.53" xlink:href="#铃琨眄_沭噤桢眚_20"/><clipPath id="clip-path-7"><path class="cls-10" d="M390.88,129.85l16.59,9a54.75,54.75,0,0,0-34.18-6.26l-16.59-9A54.75,54.75,0,0,1,390.88,129.85Z"/></clipPath><linearGradient id="铃琨眄_沭噤桢眚_20-47" x1="356.7" y1="128.44" x2="394.75" y2="128.44" xlink:href="#铃琨眄_沭噤桢眚_20"/><linearGradient id="铃琨眄_沭噤桢眚_20-48" x1="378.15" y1="131.27" x2="405.3" y2="131.27" xlink:href="#铃琨眄_沭噤桢眚_20"/><linearGradient id="铃琨眄_沭噤桢眚_20-49" x1="388.7" y1="133.8" x2="407.48" y2="133.8" xlink:href="#铃琨眄_沭噤桢眚_20"/><linearGradient id="铃琨眄_沭噤桢眚_20-50" x1="355.44" y1="128.01" x2="373.3" y2="128.01" xlink:href="#铃琨眄_沭噤桢眚_20"/><linearGradient id="铃琨眄_沭噤桢眚_20-51" x1="354.32" y1="128" x2="372.03" y2="128" xlink:href="#铃琨眄_沭噤桢眚_20"/><clipPath id="clip-path-8"><path class="cls-11" d="M298,301.08l-16.59-9a44.79,44.79,0,0,1-21.66-28.19c-.72-2.83-1.2-5.76-1.83-8.6l16.59,9c.63,2.85,1.11,5.77,1.83,8.6A44.79,44.79,0,0,0,298,301.08Z"/></clipPath><linearGradient id="铃琨眄_沭噤桢眚_20-54" x1="257.88" y1="254.66" x2="274.49" y2="254.66" xlink:href="#铃琨眄_沭噤桢眚_20"/><linearGradient id="铃琨眄_沭噤桢眚_20-55" x1="257.9" y1="248.86" x2="274.88" y2="248.86" xlink:href="#铃琨眄_沭噤桢眚_20"/><clipPath id="clip-path-9"><path class="cls-12" d="M274.88,252.69l-16.59-9c1-3.86,1.62-7.78,2.94-11.53,4.25-12,11.51-21.86,20.85-30a6,6,0,0,0,2-3,97.51,97.51,0,0,1,13.43-35.76c12.23-19.5,28.58-32.23,49-37.82,2.62-.68,5.2-1.26,7.83-1.94l16.59,9c-2.62.68-5.2,1.26-7.83,1.94-20.42,5.6-36.76,18.33-49,37.82a97.51,97.51,0,0,0-13.43,35.76,6,6,0,0,1-2,3c-9.34,8.18-16.6,18-20.85,30C276.5,244.91,275.86,248.83,274.88,252.69Z"/></clipPath><linearGradient id="铃琨眄_沭噤桢眚_20-57" x1="258.29" y1="242.01" x2="278.11" y2="242.01" xlink:href="#铃琨眄_沭噤桢眚_20"/><linearGradient id="铃琨眄_沭噤桢眚_20-58" x1="261.52" y1="231.51" x2="282.01" y2="231.51" xlink:href="#铃琨眄_沭噤桢眚_20"/><linearGradient id="铃琨眄_沭噤桢眚_20-59" x1="265.42" y1="223.75" x2="286.24" y2="223.75" xlink:href="#铃琨眄_沭噤桢眚_20"/><linearGradient id="铃琨眄_沭噤桢眚_20-60" x1="269.65" y1="217.14" x2="291.26" y2="217.14" xlink:href="#铃琨眄_沭噤桢眚_20"/><linearGradient id="铃琨眄_沭噤桢眚_20-61" x1="274.67" y1="210.75" x2="297.63" y2="210.75" xlink:href="#铃琨眄_沭噤桢眚_20"/><linearGradient id="铃琨眄_沭噤桢眚_20-62" x1="281.03" y1="207.02" x2="298.79" y2="207.02" xlink:href="#铃琨眄_沭噤桢眚_20"/><linearGradient id="铃琨眄_沭噤桢眚_20-63" x1="282.2" y1="206.19" x2="299.41" y2="206.19" xlink:href="#铃琨眄_沭噤桢眚_20"/><linearGradient id="铃琨眄_沭噤桢眚_20-64" x1="282.82" y1="205.56" x2="299.92" y2="205.56" xlink:href="#铃琨眄_沭噤桢眚_20"/><linearGradient id="铃琨眄_沭噤桢眚_20-65" x1="283.32" y1="204.95" x2="300.28" y2="204.95" xlink:href="#铃琨眄_沭噤桢眚_20"/><linearGradient id="铃琨眄_沭噤桢眚_20-66" x1="283.68" y1="204.38" x2="300.53" y2="204.38" xlink:href="#铃琨眄_沭噤桢眚_20"/><linearGradient id="铃琨眄_沭噤桢眚_20-67" x1="283.93" y1="194.75" x2="305.49" y2="194.75" xlink:href="#铃琨眄_沭噤桢眚_20"/><linearGradient id="铃琨眄_沭噤桢眚_20-68" x1="288.89" y1="179.31" x2="310.96" y2="179.31" xlink:href="#铃琨眄_沭噤桢眚_20"/><linearGradient id="铃琨眄_沭噤桢眚_20-69" x1="294.36" y1="168.23" x2="317.16" y2="168.23" xlink:href="#铃琨眄_沭噤桢眚_20"/><linearGradient id="铃琨眄_沭噤桢眚_20-70" x1="300.56" y1="158.95" x2="323.88" y2="158.95" xlink:href="#铃琨眄_沭噤桢眚_20"/><linearGradient id="铃琨眄_沭噤桢眚_20-71" x1="307.28" y1="151.14" x2="330.87" y2="151.14" xlink:href="#铃琨眄_沭噤桢眚_20"/><linearGradient id="铃琨眄_沭噤桢眚_20-72" x1="314.28" y1="144.41" x2="338.94" y2="144.41" xlink:href="#铃琨眄_沭噤桢眚_20"/><linearGradient id="铃琨眄_沭噤桢眚_20-73" x1="322.35" y1="138.01" x2="350.04" y2="138.01" xlink:href="#铃琨眄_沭噤桢眚_20"/><linearGradient id="铃琨眄_沭噤桢眚_20-74" x1="333.45" y1="131.45" x2="370.92" y2="131.45" xlink:href="#铃琨眄_沭噤桢眚_20"/><linearGradient id="铃琨眄_沭噤桢眚_20-75" x1="274.47" y1="219.15" x2="537.36" y2="219.15" xlink:href="#铃琨眄_沭噤桢眚_20"/><clipPath id="clip-path-10"><path class="cls-13" d="M495.85,249l16.59,9a23.26,23.26,0,0,0-14.39-2.58q-1.07.15-2.14.4c-4.52,1.05-9,3-13.81,4.67l-16.59-9c4.81-1.67,9.29-3.61,13.81-4.67q1.08-.25,2.14-.4A23.26,23.26,0,0,1,495.85,249Z"/></clipPath><linearGradient id="铃琨眄_沭噤桢眚_20-77" x1="465.51" y1="253.31" x2="507.18" y2="253.31" xlink:href="#铃琨眄_沭噤桢眚_20"/><linearGradient id="铃琨眄_沭噤桢眚_20-78" x1="490.59" y1="252.22" x2="511.61" y2="252.22" xlink:href="#铃琨眄_沭噤桢眚_20"/><linearGradient id="铃琨眄_沭噤桢眚_20-79" x1="495.01" y1="253.26" x2="512.44" y2="253.26" xlink:href="#铃琨眄_沭噤桢眚_20"/><clipPath id="clip-path-11"><path class="cls-3" d="M442.4,233.51l-16.59-9a3.77,3.77,0,0,0,2.44.41,8.86,8.86,0,0,0,1.85-.51,38.57,38.57,0,0,1,8-2.1,22.52,22.52,0,0,1,14.25,2.3l16.59,9a22.52,22.52,0,0,0-14.25-2.3,38.57,38.57,0,0,0-8,2.1,8.86,8.86,0,0,1-1.85.51A3.77,3.77,0,0,1,442.4,233.51Z"/></clipPath><linearGradient id="铃琨眄_沭噤桢眚_20-81" x1="425.81" y1="229.04" x2="442.55" y2="229.04" xlink:href="#铃琨眄_沭噤桢眚_20"/><linearGradient id="铃琨眄_沭噤桢眚_20-82" x1="425.96" y1="229.21" x2="443.26" y2="229.21" xlink:href="#铃琨眄_沭噤桢眚_20"/><linearGradient id="铃琨眄_沭噤桢眚_20-83" x1="426.66" y1="227.99" x2="464.22" y2="227.99" xlink:href="#铃琨眄_沭噤桢眚_20"/><linearGradient id="铃琨眄_沭噤桢眚_20-84" x1="447.63" y1="227.96" x2="468.19" y2="227.96" xlink:href="#铃琨眄_沭噤桢眚_20"/><linearGradient id="铃琨眄_沭噤桢眚_20-85" x1="451.59" y1="228.9" x2="468.96" y2="228.9" xlink:href="#铃琨眄_沭噤桢眚_20"/><clipPath id="clip-path-12"><path class="cls-4" d="M417.28,218.23l16.59,9a28,28,0,0,0-6.35-2.53,33.78,33.78,0,0,0-13.3-.72l-16.59-9a33.78,33.78,0,0,1,13.3.72A28,28,0,0,1,417.28,218.23Z"/></clipPath><linearGradient id="铃琨眄_沭噤桢眚_20-87" x1="397.62" y1="219.68" x2="427.52" y2="219.68" xlink:href="#铃琨眄_沭噤桢眚_20"/><linearGradient id="铃琨眄_沭噤桢眚_20-88" x1="410.93" y1="221.2" x2="432.78" y2="221.2" xlink:href="#铃琨眄_沭噤桢眚_20"/><linearGradient id="铃琨眄_沭噤桢眚_20-89" x1="416.19" y1="222.46" x2="433.87" y2="222.46" xlink:href="#铃琨眄_沭噤桢眚_20"/><linearGradient id="铃琨眄_沭噤桢眚_20-90" x1="355.9" y1="273.49" x2="524" y2="273.49" xlink:href="#铃琨眄_沭噤桢眚_20"/><clipPath id="clip-path-13"><path class="cls-5" d="M366.95,320.81l-16.59-9c-6.53-3.55-10.87-10.62-11-19.42-.13-6.75,2.74-12.71,7.13-17.78a61.11,61.11,0,0,1,9.25-8.33,5,5,0,0,0,2.19-4.08,56.89,56.89,0,0,1,6-21.51c7.12-14.22,20.19-23.78,33.72-25.68l16.59,9c-13.53,1.9-26.6,11.46-33.72,25.68a56.89,56.89,0,0,0-6,21.51,5,5,0,0,1-2.19,4.08,61.11,61.11,0,0,0-9.25,8.33c-4.38,5.07-7.26,11-7.13,17.78C356.07,310.19,360.41,317.26,366.95,320.81Z"/></clipPath><linearGradient id="铃琨眄_沭噤桢眚_20-92" x1="339.31" y1="302.38" x2="366.95" y2="302.38" xlink:href="#铃琨眄_沭噤桢眚_20"/><linearGradient id="铃琨眄_沭噤桢眚_20-93" x1="340.75" y1="286.75" x2="358.89" y2="286.75" xlink:href="#铃琨眄_沭噤桢眚_20"/><linearGradient id="铃琨眄_沭噤桢眚_20-94" x1="342.29" y1="283.5" x2="360.8" y2="283.5" xlink:href="#铃琨眄_沭噤桢眚_20"/><linearGradient id="铃琨眄_沭噤桢眚_20-95" x1="344.21" y1="280.36" x2="363.31" y2="280.36" xlink:href="#铃琨眄_沭噤桢眚_20"/><linearGradient id="铃琨眄_沭噤桢眚_20-96" x1="346.72" y1="276.97" x2="366.92" y2="276.97" xlink:href="#铃琨眄_沭噤桢眚_20"/><linearGradient id="铃琨眄_沭噤桢眚_20-97" x1="350.33" y1="272.75" x2="372.81" y2="272.75" xlink:href="#铃琨眄_沭噤桢眚_20"/><linearGradient id="铃琨眄_沭噤桢眚_20-98" x1="356.21" y1="270.11" x2="373.27" y2="270.11" xlink:href="#铃琨眄_沭噤桢眚_20"/><linearGradient id="铃琨眄_沭噤桢眚_20-99" x1="356.67" y1="269.67" x2="373.59" y2="269.67" xlink:href="#铃琨眄_沭噤桢眚_20"/><linearGradient id="铃琨眄_沭噤桢眚_20-100" x1="357" y1="269.24" x2="373.86" y2="269.24" xlink:href="#铃琨眄_沭噤桢眚_20"/><linearGradient id="铃琨眄_沭噤桢眚_20-101" x1="357.27" y1="268.74" x2="374.12" y2="268.74" xlink:href="#铃琨眄_沭噤桢眚_20"/><linearGradient id="铃琨眄_沭噤桢眚_20-102" x1="357.52" y1="259.92" x2="377.79" y2="259.92" xlink:href="#铃琨眄_沭噤桢眚_20"/><linearGradient id="铃琨眄_沭噤桢眚_20-103" x1="361.2" y1="247.62" x2="381.18" y2="247.62" xlink:href="#铃琨眄_沭噤桢眚_20"/><linearGradient id="铃琨眄_沭噤桢眚_20-104" x1="364.58" y1="241.3" x2="384.33" y2="241.3" xlink:href="#铃琨眄_沭噤桢眚_20"/><linearGradient id="铃琨眄_沭噤桢眚_20-105" x1="367.73" y1="236.55" x2="387.79" y2="236.55" xlink:href="#铃琨眄_沭噤桢眚_20"/><linearGradient id="铃琨眄_沭噤桢眚_20-106" x1="371.19" y1="232.36" x2="391.73" y2="232.36" xlink:href="#铃琨眄_沭噤桢眚_20"/><linearGradient id="铃琨眄_沭噤桢眚_20-107" x1="375.14" y1="228.49" x2="396.47" y2="228.49" xlink:href="#铃琨眄_沭噤桢眚_20"/><linearGradient id="铃琨眄_沭噤桢眚_20-108" x1="379.88" y1="224.78" x2="402.85" y2="224.78" xlink:href="#铃琨眄_沭噤桢眚_20"/><linearGradient id="铃琨眄_沭噤桢眚_20-109" x1="386.26" y1="221.22" x2="414.21" y2="221.22" xlink:href="#铃琨眄_沭噤桢眚_20"/><linearGradient id="铃琨眄_沭噤桢眚_20-110" x1="5204.2" y1="166.09" x2="5175.62" y2="135.44" gradientTransform="translate(-4640.48)" xlink:href="#铃琨眄_沭噤桢眚_20"/><linearGradient id="铃琨眄_沭噤桢眚_20-111" x1="5210.24" y1="172.57" x2="5169.58" y2="128.96" gradientTransform="translate(-4640.48)" xlink:href="#铃琨眄_沭噤桢眚_20"/><linearGradient id="铃琨眄_沭噤桢眚_20-112" x1="4974.49" y1="486.85" x2="4945.91" y2="456.2" gradientTransform="translate(-4640.48)" xlink:href="#铃琨眄_沭噤桢眚_20"/><linearGradient id="铃琨眄_沭噤桢眚_20-113" x1="4980.53" y1="493.33" x2="4939.87" y2="449.73" gradientTransform="translate(-4640.48)" xlink:href="#铃琨眄_沭噤桢眚_20"/><linearGradient id="铃琨眄_沭噤桢眚_20-114" x1="88.01" y1="203.75" x2="247.57" y2="203.75" xlink:href="#铃琨眄_沭噤桢眚_20"/><linearGradient id="铃琨眄_沭噤桢眚_20-115" x1="126.05" y1="240.31" x2="244.39" y2="240.31" xlink:href="#铃琨眄_沭噤桢眚_20"/><linearGradient id="铃琨眄_沭噤桢眚_20-116" x1="469.65" y1="360.62" x2="629.21" y2="360.62" xlink:href="#铃琨眄_沭噤桢眚_20"/><linearGradient id="铃琨眄_沭噤桢眚_20-117" x1="507.69" y1="397.19" x2="626.03" y2="397.19" xlink:href="#铃琨眄_沭噤桢眚_20"/><linearGradient id="铃琨眄_沭噤桢眚_20-118" x1="283.4" y1="535.18" x2="442.96" y2="535.18" xlink:href="#铃琨眄_沭噤桢眚_20"/><linearGradient id="铃琨眄_沭噤桢眚_20-119" x1="321.44" y1="571.74" x2="439.78" y2="571.74" xlink:href="#铃琨眄_沭噤桢眚_20"/></defs><title>资源 36cloud</title><g class="cls-14"><g id="图层_2" data-name="图层 2"><g id="图层_1-2" data-name="图层 1"><g class="cls-15"><path class="cls-16" d="M146.36,392.81a17.77,17.77,0,0,1-8.9-2.38L77.13,355.59l1.56-2.71L139,387.73a14.73,14.73,0,0,0,14.67,0l59.64-34.43L214.9,356l-59.64,34.43A17.77,17.77,0,0,1,146.36,392.81Z"/><path class="cls-17" d="M22.72,350.63c12.62,7.28,33.07,7.28,45.69,0s12.62-19.09,0-26.38-33.07-7.28-45.69,0S10.11,343.34,22.72,350.63Zm10.49-20.32c6.82-3.94,17.88-3.94,24.7,0s6.82,10.32,0,14.26-17.88,3.94-24.7,0S26.4,334.25,33.22,330.31Z"/><path class="cls-18" d="M45.56,364.37c-11.55,0-23.1-2.54-31.89-7.62h0C4.85,351.67,0,344.81,0,337.44s4.85-14.23,13.67-19.32c17.59-10.15,46.21-10.15,63.79,0,8.82,5.09,13.67,11.95,13.67,19.31s-4.85,14.23-13.67,19.32S57.12,364.37,45.56,364.37ZM15.23,354.05C32,363.7,59.18,363.7,75.9,354,83.71,349.54,88,343.64,88,337.44s-4.3-12.1-12.11-16.61c-16.73-9.66-43.94-9.66-60.67,0-7.81,4.51-12.11,10.41-12.11,16.61s4.3,12.1,12.1,16.61Z"/></g><g class="cls-15"><path class="cls-19" d="M618,471.53a17.77,17.77,0,0,0,8.9-2.38l60.34-34.84-1.56-2.71L625.3,466.44a14.73,14.73,0,0,1-14.67,0L551,432l-1.56,2.71,59.64,34.43A17.77,17.77,0,0,0,618,471.53Z"/><path class="cls-20" d="M741.6,403c-12.62-7.28-33.07-7.28-45.69,0s-12.62,19.09,0,26.38,33.07,7.28,45.69,0S754.22,410.25,741.6,403Zm-10.49,20.32c-6.82,3.94-17.88,3.94-24.7,0s-6.82-10.32,0-14.26,17.88-3.94,24.7,0S737.93,419.35,731.11,423.29Z"/><path class="cls-21" d="M686.86,435.47c-8.82-5.09-13.67-12-13.67-19.32s4.86-14.23,13.67-19.31c17.59-10.15,46.21-10.15,63.79,0,8.82,5.09,13.67,12,13.67,19.32s-4.85,14.23-13.67,19.32h0c-8.79,5.08-20.34,7.62-31.89,7.62S695.65,440.55,686.86,435.47Zm62.23-2.7c7.81-4.51,12.1-10.41,12.1-16.61s-4.3-12.11-12.11-16.61c-16.73-9.66-43.94-9.66-60.67,0-7.81,4.51-12.11,10.4-12.11,16.61s4.3,12.11,12.11,16.61c16.72,9.66,43.94,9.66,60.67,0Z"/></g><path class="cls-22" d="M446.32,488.81a16.65,16.65,0,0,1-8.18-1.92h0l-311.77-181c-2.4-1.38-3.72-3.38-3.72-5.62,0-2.57,1.8-5.09,4.95-6.91L338.53,171.6c5.55-3.2,13.7-3.51,18.57-.71l311.77,181c2.4,1.39,3.72,3.38,3.72,5.62,0,2.58-1.8,5.09-4.95,6.91L456.71,486.19A21.25,21.25,0,0,1,446.32,488.81Zm-6.62-4.62c3.85,2.22,10.92,1.9,15.44-.71L666.08,361.7c2.12-1.22,3.38-2.79,3.38-4.2s-1.17-2.34-2.16-2.91l-311.77-181c-3.85-2.22-10.92-1.9-15.44.71L129.16,296.09c-2.12,1.22-3.38,2.79-3.38,4.2s1.17,2.34,2.16,2.91Z"/><path class="cls-23" d="M430.61,417.2a16.65,16.65,0,0,1-8.18-1.92h0l-311.77-181c-2.4-1.38-3.72-3.38-3.72-5.62,0-2.57,1.8-5.09,4.95-6.91L322.82,100c5.55-3.2,13.7-3.51,18.57-.71l311.77,181c2.4,1.39,3.72,3.38,3.72,5.62,0,2.58-1.8,5.09-4.95,6.91L441,414.58A21.25,21.25,0,0,1,430.61,417.2ZM424,412.57c3.85,2.22,10.92,1.9,15.44-.71L650.37,290.08c2.12-1.22,3.38-2.79,3.38-4.2s-1.17-2.34-2.16-2.91L339.82,102c-3.85-2.22-10.92-1.9-15.44.71L113.44,224.47c-2.12,1.22-3.38,2.79-3.38,4.2s1.17,2.34,2.16,2.91Z"/><path class="cls-24" d="M438.92,451.16l-311.77-181c-4.36-2.52-3.81-6.91,1.22-9.82L339.31,138.57c5-2.91,12.65-3.22,17-.7l311.77,181c4.36,2.52,3.81,6.91-1.22,9.82L455.92,450.45C450.89,453.36,443.28,453.67,438.92,451.16Z"/><g class="cls-25"><circle class="cls-26" cx="549.43" cy="546.53" r="60.86"/><circle class="cls-27" cx="549.43" cy="546.53" r="52.87"/><circle class="cls-28" cx="549.43" cy="546.53" r="41.29"/><circle class="cls-29" cx="549.43" cy="546.53" r="29.72"/><circle class="cls-30" cx="549.43" cy="546.53" r="15.83"/></g><g class="cls-25"><circle class="cls-31" cx="134.19" cy="497.44" r="30.14"/><circle class="cls-32" cx="134.19" cy="497.44" r="26.18"/><circle class="cls-33" cx="134.19" cy="497.44" r="20.45"/><circle class="cls-34" cx="134.19" cy="497.44" r="14.72"/><circle class="cls-35" cx="134.19" cy="497.44" r="7.84"/></g><g class="cls-25"><circle class="cls-36" cx="454.94" cy="60.86" r="60.86"/><circle class="cls-37" cx="454.94" cy="60.86" r="52.87"/><circle class="cls-38" cx="454.94" cy="60.86" r="41.29"/><circle class="cls-39" cx="454.94" cy="60.86" r="29.72"/><circle class="cls-40" cx="454.94" cy="60.86" r="15.83"/></g><g class="cls-41"><path class="cls-42" d="M128.92,120.74c2,5.59,14.46,5.59,16.43,0a1.43,1.43,0,0,0,0-.93c-2-5.59-14.46-5.58-16.43,0A1.43,1.43,0,0,0,128.92,120.74Z"/></g><g class="cls-41"><path class="cls-43" d="M90.69,106c3.3,9.39,24.32,9.39,27.62,0a2.4,2.4,0,0,0,0-1.56C115,95,94,95,90.69,104.4A2.4,2.4,0,0,0,90.69,106Z"/></g><g class="cls-41"><path class="cls-44" d="M97.3,130.73c2.3,6.55,17,6.55,19.27,0a1.67,1.67,0,0,0,0-1.09c-2.3-6.55-17-6.55-19.27,0A1.67,1.67,0,0,0,97.3,130.73Z"/></g><g class="cls-41"><path class="cls-45" d="M573.5,200.26c12,23.89,66.77,23.57,77.65-1a9.52,9.52,0,0,0,0-7.67c-10.88-24.54-65.61-24.86-77.65-1A10.56,10.56,0,0,0,573.5,200.26Z"/></g><g class="cls-41"><path class="cls-46" d="M201.22,435.18c12,23.89,66.77,23.57,77.65-1a9.52,9.52,0,0,0,0-7.67c-10.88-24.54-65.61-24.86-77.65-1A10.56,10.56,0,0,0,201.22,435.18Z"/></g><g class="cls-14"><g class="cls-14"><path class="cls-1" d="M533.81,242.73l-16.59-9c-.73-.58-1-.76-1.21-.93l16.59,9C532.84,242,533.08,242.15,533.81,242.73Z"/><g class="cls-47"><g class="cls-14"><path class="cls-1" d="M533.81,242.73l-16.59-9c-.73-.58-1-.76-1.21-.93l16.59,9c.24.18.49.35,1.21.93"/></g></g></g><g class="cls-14"><path class="cls-2" d="M508.05,227.16l16.59,9a43.18,43.18,0,0,1,7.95,5.61l-16.59-9A43.18,43.18,0,0,0,508.05,227.16Z"/><g class="cls-48"><g class="cls-14"><path class="cls-2" d="M532.59,241.8l-16.59-9a43.18,43.18,0,0,0-7.95-5.61l16.59,9a43.18,43.18,0,0,1,7.95,5.61"/></g></g></g><g class="cls-14"><path class="cls-6" d="M494.9,232.48l-16.59-9a2.59,2.59,0,0,1-1.06-1.55,38.88,38.88,0,0,0-16.19-21q-1.21-.77-2.44-1.44l16.59,9q1.23.67,2.44,1.44a38.88,38.88,0,0,1,16.19,21A2.59,2.59,0,0,0,494.9,232.48Z"/><g class="cls-49"><g class="cls-14"><path class="cls-6" d="M494.9,232.48l-16.59-9a2.59,2.59,0,0,1-1.06-1.55,38.88,38.88,0,0,0-16.19-21q-1.21-.77-2.44-1.44l16.59,9q1.23.67,2.44,1.44a38.88,38.88,0,0,1,16.19,21,2.59,2.59,0,0,0,1.06,1.55"/></g></g></g><g class="cls-14"><path class="cls-7" d="M478,175.91l-16.59-9a2.36,2.36,0,0,0,1.45.11c4.67-.6,9.43-1.48,13.95-1.17a50.29,50.29,0,0,1,20.85,5.68l16.59,9a50.29,50.29,0,0,0-20.85-5.68c-4.52-.31-9.28.57-13.95,1.17A2.36,2.36,0,0,1,478,175.91Z"/><g class="cls-50"><g class="cls-14"><path class="cls-51" d="M478,175.91l-16.59-9,0,0,16.59,9,0,0"/><path class="cls-52" d="M478,175.93l-16.59-9,.24.09,16.59,9-.24-.09"/><path class="cls-53" d="M478.25,176l-16.59-9a3.1,3.1,0,0,0,1.17,0c4.67-.6,9.43-1.48,13.95-1.17a57.61,57.61,0,0,1,10.54,1.66l16.59,9a57.61,57.61,0,0,0-10.54-1.66c-4.52-.31-9.28.57-13.95,1.17a3.1,3.1,0,0,1-1.17,0"/><path class="cls-54" d="M503.9,176.5l-16.59-9a45.84,45.84,0,0,1,8.77,3.22l16.59,9a45.84,45.84,0,0,0-8.77-3.22"/><path class="cls-55" d="M512.67,179.72l-16.59-9q.78.39,1.55.8l16.59,9q-.76-.42-1.55-.8"/></g></g></g><g class="cls-14"><path class="cls-8" d="M441.52,205.43l-16.59-9a7.4,7.4,0,0,1-.87-.58,53.12,53.12,0,0,0-5.84-3.7l16.59,9a53.1,53.1,0,0,1,5.84,3.7A7.39,7.39,0,0,0,441.52,205.43Z"/><g class="cls-56"><g class="cls-14"><path class="cls-8" d="M441.52,205.43l-16.59-9a7.39,7.39,0,0,1-.87-.58,53.12,53.12,0,0,0-5.84-3.7l16.59,9a53.12,53.12,0,0,1,5.84,3.7,7.39,7.39,0,0,0,.87.58"/></g></g></g><g class="cls-14"><path class="cls-9" d="M415.43,144l-16.59-9a4.65,4.65,0,0,0,2.69.34c3-.47,6-1.23,9-1.65l1.12-.14a44.1,44.1,0,0,1,26.67,5l16.59,9a44.09,44.09,0,0,0-26.67-5l-1.12.14c-3,.42-6,1.18-9,1.65A4.65,4.65,0,0,1,415.43,144Z"/><g class="cls-57"><g class="cls-14"><path class="cls-58" d="M415.43,144l-16.59-9,.09,0,16.59,9-.09,0"/><path class="cls-59" d="M415.52,144l-16.59-9a3,3,0,0,0,.58.21l16.59,9a3,3,0,0,1-.58-.21"/><path class="cls-60" d="M416.09,144.22l-16.59-9a5.4,5.4,0,0,0,2,.09c3-.47,6-1.23,9-1.65l1.12-.14a45.91,45.91,0,0,1,16.86,1.07l16.59,9a45.91,45.91,0,0,0-16.86-1.07l-1.12.14c-3,.42-6,1.18-9,1.65a5.4,5.4,0,0,1-2-.09"/><path class="cls-61" d="M445.14,143.58l-16.59-9a42.89,42.89,0,0,1,8.18,3l16.59,9a42.89,42.89,0,0,0-8.18-3"/><path class="cls-62" d="M453.31,146.62l-16.59-9q.82.4,1.63.84l16.59,9q-.81-.44-1.63-.84"/></g></g></g><g class="cls-14"><path class="cls-10" d="M390.88,129.85l16.59,9a54.75,54.75,0,0,0-34.18-6.26l-16.59-9A54.75,54.75,0,0,1,390.88,129.85Z"/><g class="cls-63"><g class="cls-14"><path class="cls-64" d="M373.3,132.62l-16.59-9a55.82,55.82,0,0,1,21.45,1.19l16.59,9a55.82,55.82,0,0,0-21.45-1.19"/><path class="cls-65" d="M394.75,133.82l-16.59-9a55.24,55.24,0,0,1,10.55,3.94l16.59,9a55.24,55.24,0,0,0-10.55-3.94"/><path class="cls-66" d="M405.3,137.75l-16.59-9q1.1.54,2.18,1.13l16.59,9q-1.08-.59-2.18-1.13"/></g></g></g><polygon class="cls-67" points="372.03 132.43 355.44 123.41 356.7 123.59 373.3 132.62 372.03 132.43"/><polygon class="cls-68" points="370.92 132.59 354.32 123.56 355.44 123.41 372.03 132.43 370.92 132.59"/><g class="cls-14"><path class="cls-11" d="M298,301.08l-16.59-9a44.79,44.79,0,0,1-21.66-28.19c-.72-2.83-1.2-5.76-1.83-8.6l16.59,9c.63,2.85,1.11,5.77,1.83,8.6A44.79,44.79,0,0,0,298,301.08Z"/><g class="cls-69"><g class="cls-14"><path class="cls-11" d="M298,301.08l-16.59-9a44.79,44.79,0,0,1-21.66-28.19c-.72-2.83-1.2-5.76-1.83-8.6l16.59,9c.63,2.85,1.11,5.77,1.83,8.6A44.79,44.79,0,0,0,298,301.08"/></g></g></g><polygon class="cls-70" points="274.48 264.29 257.88 255.26 257.9 245.03 274.49 254.06 274.48 264.29"/><polygon class="cls-71" points="274.49 254.06 257.9 245.03 258.29 243.66 274.88 252.69 274.49 254.06"/><g class="cls-14"><path class="cls-12" d="M274.88,252.69l-16.59-9c1-3.86,1.62-7.78,2.94-11.53,4.25-12,11.51-21.86,20.85-30a6,6,0,0,0,2-3,97.51,97.51,0,0,1,13.43-35.76c12.23-19.5,28.58-32.23,49-37.82,2.62-.68,5.2-1.26,7.83-1.94l16.59,9c-2.62.68-5.2,1.26-7.83,1.94-20.42,5.6-36.76,18.33-49,37.82a97.51,97.51,0,0,0-13.43,35.76,6,6,0,0,1-2,3c-9.34,8.18-16.6,18-20.85,30C276.5,244.91,275.86,248.83,274.88,252.69Z"/><g class="cls-72"><g class="cls-14"><path class="cls-73" d="M274.88,252.69l-16.59-9c1-3.86,1.62-7.78,2.94-11.53l.29-.81,16.59,9-.29.81c-1.32,3.75-2,7.67-2.94,11.53"/><path class="cls-74" d="M278.11,240.35l-16.59-9a67.16,67.16,0,0,1,3.9-8.66l16.59,9a67.16,67.16,0,0,0-3.9,8.66"/><path class="cls-75" d="M282,231.69l-16.59-9a68.16,68.16,0,0,1,4.23-6.86l16.59,9a68.16,68.16,0,0,0-4.23,6.86"/><path class="cls-76" d="M286.24,224.83l-16.59-9a72.48,72.48,0,0,1,5-6.36l16.59,9a72.48,72.48,0,0,0-5,6.36"/><path class="cls-77" d="M291.26,218.47l-16.59-9A80.68,80.68,0,0,1,281,203l16.59,9a80.68,80.68,0,0,0-6.36,6.42"/><path class="cls-78" d="M297.63,212,281,203l1-.93.12-.11,16.59,9-.12.11-1,.93"/><path class="cls-79" d="M298.79,211l-16.59-9a7.74,7.74,0,0,0,.62-.62l16.59,9a7.74,7.74,0,0,1-.62.62"/><path class="cls-80" d="M299.41,210.39l-16.59-9a7.3,7.3,0,0,0,.5-.64l16.59,9a7.3,7.3,0,0,1-.5.64"/><path class="cls-81" d="M299.92,209.75l-16.59-9a5.84,5.84,0,0,0,.36-.58l16.59,9a5.84,5.84,0,0,1-.36.58"/><path class="cls-82" d="M300.28,209.17l-16.59-9a4.3,4.3,0,0,0,.25-.55l16.59,9a4.3,4.3,0,0,1-.25.55"/><path class="cls-83" d="M300.53,208.62l-16.59-9a3.05,3.05,0,0,0,.14-.5,103,103,0,0,1,4.82-18.2l16.59,9a103,103,0,0,0-4.82,18.2,3.05,3.05,0,0,1-.14.5"/><path class="cls-84" d="M305.49,189.91l-16.59-9a94.41,94.41,0,0,1,5.47-12.17l16.59,9a94.41,94.41,0,0,0-5.47,12.17"/><path class="cls-85" d="M311,177.75l-16.59-9q1.47-2.73,3.14-5.39,1.49-2.38,3.06-4.62l16.59,9q-1.57,2.24-3.06,4.62-1.67,2.66-3.14,5.39"/><path class="cls-86" d="M317.16,167.73l-16.59-9a97.26,97.26,0,0,1,6.72-8.55l16.59,9a97.26,97.26,0,0,0-6.72,8.55"/><path class="cls-87" d="M323.88,159.19l-16.59-9a86.89,86.89,0,0,1,7-7.07l16.59,9a86.89,86.89,0,0,0-7,7.07"/><path class="cls-88" d="M330.87,152.11l-16.59-9a80.45,80.45,0,0,1,8.07-6.39l16.59,9a80.45,80.45,0,0,0-8.07,6.39"/><path class="cls-89" d="M338.94,145.73l-16.59-9a77.67,77.67,0,0,1,11.11-6.4l16.59,9a77.67,77.67,0,0,0-11.11,6.4"/><path class="cls-90" d="M350,139.33l-16.59-9a80.51,80.51,0,0,1,13-4.8c2.62-.68,5.2-1.26,7.83-1.94l16.59,9c-2.62.68-5.2,1.26-7.83,1.94a80.51,80.51,0,0,0-13,4.8"/></g></g></g><path class="cls-91" d="M372,132.43l1.26.19c15.94-2.08,29.68,2.17,41.91,11.21a4.31,4.31,0,0,0,2.91.48c3-.47,6-1.23,9-1.65l1.12-.14A44,44,0,0,1,460,150.64a46.73,46.73,0,0,1,17.2,24.06c.39,1.26.92,1.5,2.23,1.31,4.67-.6,9.43-1.48,13.95-1.17,19.87,1.35,34.08,11.26,41.58,30.81a78.57,78.57,0,0,1,2.41,9l0,13.9-.44,1.79c-1,4-2,8-3.08,12.39-.73-.58-1-.76-1.21-.93-9.26-8.18-20.09-11.5-32.59-9.75q-1.68.24-3.39.59c-1.69.25-2.27-.32-2.77-1.71a38.88,38.88,0,0,0-16.19-21c-8.14-5.22-17.1-6.85-26.69-5.5a54.4,54.4,0,0,0-6.64,1.37,4.19,4.19,0,0,1-3.69-.95A46.48,46.48,0,0,0,413,195.52a63.53,63.53,0,0,0-8.9.61c-12.88,1.81-24.79,7.67-35.54,17.91-12.95,12.31-20.6,27.49-23.74,45a5.29,5.29,0,0,1-1.95,3.53,49.11,49.11,0,0,0-5.11,4.91c-8.13,9-13.74,19.29-15.07,31.43-.3,2.35-.25,4.75-.35,7.29-1.12,0-2.14,0-3.11,0-20.16.47-37.53-13-42.93-33.29-.72-2.83-1.2-5.76-1.83-8.6l0-10.23.39-1.37c1-3.86,1.62-7.78,2.94-11.53,4.25-12,11.51-21.86,20.85-30a6,6,0,0,0,2-3,97.51,97.51,0,0,1,13.43-35.76c12.23-19.5,28.58-32.23,49-37.82,2.62-.68,5.2-1.26,7.83-1.94Z"/></g><g class="cls-14"><g class="cls-14"><path class="cls-13" d="M495.85,249l16.59,9a23.26,23.26,0,0,0-14.39-2.58q-1.07.15-2.14.4c-4.52,1.05-9,3-13.81,4.67l-16.59-9c4.81-1.67,9.29-3.61,13.81-4.67q1.08-.25,2.14-.4A23.26,23.26,0,0,1,495.85,249Z"/><g class="cls-92"><g class="cls-14"><path class="cls-93" d="M482.11,260.48l-16.59-9c4.81-1.67,9.29-3.61,13.81-4.67q1.08-.25,2.14-.4a23.39,23.39,0,0,1,9.13.51l16.59,9a23.39,23.39,0,0,0-9.13-.51q-1.07.15-2.14.4c-4.52,1.05-9,3-13.81,4.67"/><path class="cls-94" d="M507.18,255.92l-16.59-9a23.15,23.15,0,0,1,4.42,1.64l16.59,9a23.15,23.15,0,0,0-4.42-1.64"/><path class="cls-95" d="M511.61,257.56l-16.59-9,.84.43,16.59,9-.84-.43"/></g></g></g><g class="cls-14"><path class="cls-3" d="M442.4,233.51l-16.59-9a3.77,3.77,0,0,0,2.44.41,8.86,8.86,0,0,0,1.85-.51,38.57,38.57,0,0,1,8-2.1,22.52,22.52,0,0,1,14.25,2.3l16.59,9a22.52,22.52,0,0,0-14.25-2.3,38.57,38.57,0,0,0-8,2.1,8.86,8.86,0,0,1-1.85.51A3.77,3.77,0,0,1,442.4,233.51Z"/><g class="cls-96"><g class="cls-14"><path class="cls-97" d="M442.4,233.51l-16.59-9,.15.08,16.59,9-.15-.08"/><path class="cls-98" d="M442.55,233.59l-16.59-9a3.69,3.69,0,0,0,.71.26l16.59,9a3.69,3.69,0,0,1-.71-.26"/><path class="cls-99" d="M443.26,233.86l-16.59-9a4,4,0,0,0,1.58.07,8.86,8.86,0,0,0,1.85-.51,38.57,38.57,0,0,1,8-2.1,24.21,24.21,0,0,1,9.51.42l16.59,9a24.21,24.21,0,0,0-9.51-.42,38.57,38.57,0,0,0-8,2.1,8.86,8.86,0,0,1-1.85.51,4,4,0,0,1-1.58-.07"/><path class="cls-100" d="M464.22,231.74l-16.59-9a20.77,20.77,0,0,1,4,1.47l16.59,9a20.77,20.77,0,0,0-4-1.47"/><path class="cls-101" d="M468.19,233.21l-16.59-9,.77.4,16.59,9-.77-.4"/></g></g></g><g class="cls-14"><path class="cls-4" d="M417.28,218.23l16.59,9a28,28,0,0,0-6.35-2.53,33.78,33.78,0,0,0-13.3-.72l-16.59-9a33.78,33.78,0,0,1,13.3.72A28,28,0,0,1,417.28,218.23Z"/><g class="cls-102"><g class="cls-14"><path class="cls-103" d="M414.21,224l-16.59-9a33.78,33.78,0,0,1,13.3.72h0l16.59,9h0a33.78,33.78,0,0,0-13.3-.72"/><path class="cls-104" d="M427.52,224.73l-16.59-9a27.59,27.59,0,0,1,5.26,2l16.59,9a27.59,27.59,0,0,0-5.26-2"/><path class="cls-105" d="M432.78,226.7l-16.59-9,1.09.56,16.59,9-1.09-.56"/></g></g></g><path class="cls-106" d="M414.21,224a33.78,33.78,0,0,1,13.3.72,32.13,32.13,0,0,1,13.73,7.93,4,4,0,0,0,3.59,1.27,8.86,8.86,0,0,0,1.85-.51,38.57,38.57,0,0,1,8-2.1c6.71-.94,13,.46,18.4,5.2,5.09,4.37,7.66,10.46,8.27,17.77.19,2.12.48,4.23.72,6.19,4.81-1.67,9.29-3.61,13.81-4.67q1.08-.25,2.14-.4c12.17-1.71,23.33,6.25,25.47,17.44,1.68,8.52-1.2,16.16-7,22.9-5.26,6.19-11.68,9.87-19,10.91q-58.61,8.24-117.21,16.42c-13.36,1.88-24.13-7.73-24.4-21.69-.13-6.75,2.74-12.71,7.13-17.78a61.11,61.11,0,0,1,9.25-8.33,5,5,0,0,0,2.19-4.08,56.89,56.89,0,0,1,6-21.51C387.61,235.47,400.68,225.91,414.21,224Z"/><g class="cls-14"><path class="cls-5" d="M366.95,320.81l-16.59-9c-6.53-3.55-10.87-10.62-11-19.42-.13-6.75,2.74-12.71,7.13-17.78a61.11,61.11,0,0,1,9.25-8.33,5,5,0,0,0,2.19-4.08,56.89,56.89,0,0,1,6-21.51c7.12-14.22,20.19-23.78,33.72-25.68l16.59,9c-13.53,1.9-26.6,11.46-33.72,25.68a56.89,56.89,0,0,0-6,21.51,5,5,0,0,1-2.19,4.08,61.11,61.11,0,0,0-9.25,8.33c-4.38,5.07-7.26,11-7.13,17.78C356.07,310.19,360.41,317.26,366.95,320.81Z"/><g class="cls-107"><g class="cls-14"><path class="cls-108" d="M366.95,320.81l-16.59-9c-6.53-3.55-10.87-10.62-11-19.42a22.93,22.93,0,0,1,1.44-8.42l16.59,9a22.93,22.93,0,0,0-1.44,8.42c.17,8.8,4.51,15.87,11,19.42"/><path class="cls-109" d="M357.34,293l-16.59-9a26.52,26.52,0,0,1,1.54-3.42l16.59,9a26.52,26.52,0,0,0-1.54,3.42"/><path class="cls-110" d="M358.89,289.55l-16.59-9a30.73,30.73,0,0,1,1.91-3.09l16.59,9a30.73,30.73,0,0,0-1.91,3.09"/><path class="cls-111" d="M360.8,286.47l-16.59-9a36.09,36.09,0,0,1,2.23-2.86l.28-.32,16.59,9-.28.32a36.09,36.09,0,0,0-2.23,2.86"/><path class="cls-112" d="M363.31,283.29l-16.59-9a44.59,44.59,0,0,1,3.61-3.62l16.59,9a44.59,44.59,0,0,0-3.61,3.62"/><path class="cls-113" d="M366.92,279.67l-16.59-9c1.72-1.55,3.54-3,5.36-4.39q.29-.21.53-.43l16.59,9q-.24.22-.53.43c-1.82,1.39-3.63,2.84-5.36,4.39"/><path class="cls-114" d="M372.81,274.85l-16.59-9a5.67,5.67,0,0,0,.46-.46l16.59,9a5.67,5.67,0,0,1-.46.46"/><path class="cls-115" d="M373.27,274.39l-16.59-9a4.7,4.7,0,0,0,.33-.41l16.59,9a4.7,4.7,0,0,1-.33.41"/><path class="cls-116" d="M373.59,274l-16.59-9a4.31,4.31,0,0,0,.27-.44l16.59,9a4.31,4.31,0,0,1-.27.44"/><path class="cls-117" d="M373.86,273.54l-16.59-9a4.41,4.41,0,0,0,.26-.57l16.59,9a4.41,4.41,0,0,1-.26.57"/><path class="cls-118" d="M374.12,273l-16.59-9a6.77,6.77,0,0,0,.36-1.77,56.16,56.16,0,0,1,3.32-15.3l16.59,9a56.16,56.16,0,0,0-3.32,15.3,6.77,6.77,0,0,1-.36,1.77"/><path class="cls-119" d="M377.79,255.9l-16.59-9a59.57,59.57,0,0,1,2.7-6.21q.33-.67.69-1.32l16.59,9q-.35.65-.69,1.32a59.57,59.57,0,0,0-2.7,6.21"/><path class="cls-120" d="M381.18,248.37l-16.59-9a50.76,50.76,0,0,1,3.15-5.11l16.59,9a50.76,50.76,0,0,0-3.15,5.11"/><path class="cls-121" d="M384.33,243.26l-16.59-9a50.07,50.07,0,0,1,3.46-4.39l16.59,9a50.07,50.07,0,0,0-3.46,4.39"/><path class="cls-122" d="M387.79,238.87l-16.59-9a49,49,0,0,1,3.95-4l16.59,9a49,49,0,0,0-3.95,4"/><path class="cls-123" d="M391.73,234.88l-16.59-9a47.37,47.37,0,0,1,4.74-3.75l16.59,9a47.37,47.37,0,0,0-4.74,3.75"/><path class="cls-124" d="M396.47,231.13l-16.59-9a44.67,44.67,0,0,1,6.38-3.68l16.59,9a44.67,44.67,0,0,0-6.38,3.68"/><path class="cls-125" d="M402.85,227.45l-16.59-9A39.69,39.69,0,0,1,397.62,215l16.59,9a39.69,39.69,0,0,0-11.36,3.44"/></g></g></g></g><path class="cls-126" d="M567.89,140.1c-10.2-5.89-26.73-5.89-36.93,0s-10.2,15.44,0,21.32,26.74,5.89,36.93,0S578.09,146,567.89,140.1Zm-8.48,16.43c-5.51,3.18-14.45,3.18-20,0s-5.51-8.34,0-11.53,14.45-3.18,20,0S564.93,153.35,559.41,156.53Z"/><g class="cls-127"><path class="cls-128" d="M523.64,166.38c-7.13-4.11-11.05-9.66-11.05-15.62s3.93-11.5,11.05-15.61c14.22-8.21,37.35-8.21,51.57,0,7.13,4.11,11.05,9.66,11.05,15.62s-3.92,11.5-11.05,15.62h0c-7.11,4.1-16.44,6.16-25.78,6.16S530.75,170.49,523.64,166.38ZM574,164.19c6.31-3.64,9.78-8.41,9.78-13.43s-3.48-9.79-9.79-13.43c-13.52-7.81-35.52-7.81-49,0-6.31,3.64-9.79,8.41-9.79,13.43s3.48,9.79,9.79,13.43c13.52,7.81,35.52,7.81,49,0Z"/></g><path class="cls-129" d="M338.18,460.87c-10.2-5.89-26.73-5.89-36.93,0s-10.2,15.44,0,21.32,26.74,5.89,36.93,0S348.38,466.75,338.18,460.87Zm-8.48,16.43c-5.51,3.18-14.45,3.18-20,0s-5.51-8.34,0-11.53,14.45-3.18,20,0S335.22,474.11,329.7,477.29Z"/><g class="cls-127"><path class="cls-130" d="M293.93,487.14c-7.13-4.11-11.05-9.66-11.05-15.62s3.93-11.5,11.05-15.61c14.22-8.21,37.35-8.21,51.57,0,7.13,4.11,11.05,9.66,11.05,15.62s-3.92,11.5-11.05,15.62h0c-7.11,4.1-16.44,6.16-25.78,6.16S301,491.25,293.93,487.14ZM344.24,485c6.31-3.64,9.78-8.41,9.78-13.43s-3.48-9.79-9.79-13.43c-13.52-7.81-35.52-7.81-49,0-6.31,3.64-9.79,8.41-9.79,13.43s3.48,9.79,9.79,13.43c13.52,7.81,35.52,7.81,49,0Z"/></g><path class="cls-131" d="M146.41,156.86h.69a3.37,3.37,0,0,0,.75.18c9.67.1,18,3.58,25.47,9.62a2.93,2.93,0,0,0,1.75.5c2.06,0,4.12-.26,6.18-.2a32.49,32.49,0,0,1,29.73,22c.25.74.57.92,1.37.93a47.94,47.94,0,0,1,8.45.43c12.06,2.34,20.72,9,25.28,20.62a51.55,51.55,0,0,1,1.48,5.27V224l-.27,1-1.87,6.72-.71-.63a28.13,28.13,0,0,0-21.87-8c-1,.06-1.37-.27-1.69-1.17a26.71,26.71,0,0,0-9.85-13.1,27.85,27.85,0,0,0-20.24-5,2.75,2.75,0,0,1-2.24-.82A33.6,33.6,0,0,0,172,195.59a35.56,35.56,0,0,0-27,6.89c-7.85,5.89-12.47,13.84-14.35,23.43a2.49,2.49,0,0,1-1.18,1.82,22.89,22.89,0,0,0-3.11,2.36c-4.94,4.44-8.32,9.76-9.12,16.49-.16,1.31-.14,2.65-.21,4.06l-1.88-.21a30.88,30.88,0,0,1-26.1-22.13c-.46-1.64-.75-3.33-1.12-5v-5.75c.08-.24.18-.48.24-.73A58.63,58.63,0,0,1,90,210.55a33.41,33.41,0,0,1,12.63-15.25,2.83,2.83,0,0,0,1.2-1.51,45.69,45.69,0,0,1,8.1-19.06,42,42,0,0,1,29.72-17.41C143.24,157.13,144.83,157,146.41,156.86Z"/><path class="cls-132" d="M184.57,275c-12.34,0-24.68.27-37-.08a22.42,22.42,0,0,1-21.37-19.82c-1-8.51,2.84-14.9,9.23-20a7.56,7.56,0,0,0,2.84-4.34c3.5-13.06,11.62-21.64,25-24.51a29.24,29.24,0,0,1,25.09,5.86,3.58,3.58,0,0,0,2.86,1,24.19,24.19,0,0,1,24.43,12.69,17.79,17.79,0,0,1,1.32,3,1.4,1.4,0,0,0,1.7,1.15,24.16,24.16,0,0,1,20.24,8.4,21.1,21.1,0,0,1-1.72,30A25,25,0,0,1,219.86,275c-11.76,0-23.53,0-35.29,0Z"/><path class="cls-133" d="M210.77,239.66c-.14-1.13-.3-2.34-.42-3.55a16.15,16.15,0,0,0-5-10.65c-4.61-4.3-10.12-5.1-16-3.82a3.13,3.13,0,0,1-3.33-.86,23.11,23.11,0,0,0-36.87,4.78,27.26,27.26,0,0,0-3.62,11.62,2.38,2.38,0,0,1-1.33,2.13,30.29,30.29,0,0,0-5.59,3.94,12.37,12.37,0,0,0-4.32,9.43A14.62,14.62,0,0,0,149,266.84q35.57,0,71.15,0a16.18,16.18,0,0,0,11.54-4.61c3.5-3.35,5.22-7.41,4.21-12.34-1.41-6.85-8.93-12.45-16.79-11.77-2.76.24-5.48,1-8.39,1.54Z"/><path class="cls-134" d="M528,313.73h.69a3.37,3.37,0,0,0,.75.18c9.67.1,18,3.58,25.47,9.62a2.93,2.93,0,0,0,1.75.5c2.06,0,4.12-.26,6.18-.2a32.49,32.49,0,0,1,29.73,22c.25.74.57.92,1.37.93a47.94,47.94,0,0,1,8.45.43c12.06,2.34,20.72,9,25.28,20.62a51.55,51.55,0,0,1,1.48,5.27v7.82l-.27,1-1.87,6.72-.71-.63a28.13,28.13,0,0,0-21.87-8c-1,.06-1.37-.27-1.69-1.17a26.71,26.71,0,0,0-9.85-13.1,27.85,27.85,0,0,0-20.24-5,2.75,2.75,0,0,1-2.24-.82,33.6,33.6,0,0,0-16.79-7.41,35.56,35.56,0,0,0-27,6.89c-7.85,5.89-12.47,13.84-14.35,23.43a2.49,2.49,0,0,1-1.18,1.82,22.89,22.89,0,0,0-3.11,2.36c-4.94,4.44-8.32,9.76-9.12,16.49-.16,1.31-.14,2.65-.21,4.06l-1.88-.21a30.88,30.88,0,0,1-26.1-22.13c-.46-1.64-.75-3.33-1.12-5v-5.75c.08-.24.18-.48.24-.73a58.63,58.63,0,0,1,1.76-6.28,33.41,33.41,0,0,1,12.63-15.25,2.83,2.83,0,0,0,1.2-1.51,45.69,45.69,0,0,1,8.1-19.06A42,42,0,0,1,523.3,314.2C524.88,314,526.46,313.89,528,313.73Z"/><path class="cls-135" d="M566.21,431.86c-12.34,0-24.68.27-37-.08A22.42,22.42,0,0,1,507.83,412c-1-8.51,2.84-14.9,9.23-20a7.56,7.56,0,0,0,2.84-4.34c3.5-13.06,11.62-21.64,25-24.51A29.24,29.24,0,0,1,570,369a3.58,3.58,0,0,0,2.86,1,24.19,24.19,0,0,1,24.43,12.69,17.79,17.79,0,0,1,1.32,3,1.4,1.4,0,0,0,1.7,1.15,24.16,24.16,0,0,1,20.24,8.4,21.1,21.1,0,0,1-1.72,30,25,25,0,0,1-17.36,6.66c-11.76,0-23.53,0-35.29,0Z"/><path class="cls-133" d="M592.41,396.54c-.14-1.13-.3-2.34-.42-3.55a16.15,16.15,0,0,0-5-10.65c-4.61-4.3-10.12-5.1-16-3.82a3.13,3.13,0,0,1-3.33-.86,23.11,23.11,0,0,0-36.87,4.78,27.26,27.26,0,0,0-3.62,11.62,2.38,2.38,0,0,1-1.33,2.13,30.29,30.29,0,0,0-5.59,3.94,12.37,12.37,0,0,0-4.32,9.43,14.62,14.62,0,0,0,14.85,14.14q35.57,0,71.15,0a16.18,16.18,0,0,0,11.54-4.61c3.5-3.35,5.22-7.41,4.21-12.34-1.41-6.85-8.93-12.45-16.79-11.77-2.76.24-5.48,1-8.39,1.54Z"/><path class="cls-136" d="M341.8,488.29h.69a3.37,3.37,0,0,0,.75.18c9.67.1,18,3.58,25.47,9.62a2.93,2.93,0,0,0,1.75.5c2.06,0,4.12-.26,6.18-.2a32.49,32.49,0,0,1,29.73,22c.25.74.57.92,1.37.93a47.94,47.94,0,0,1,8.45.43c12.06,2.34,20.72,9,25.28,20.62a51.55,51.55,0,0,1,1.48,5.27v7.82l-.27,1-1.87,6.72-.71-.63a28.13,28.13,0,0,0-21.87-8c-1,.06-1.37-.27-1.69-1.17a26.71,26.71,0,0,0-9.85-13.1,27.85,27.85,0,0,0-20.24-5,2.75,2.75,0,0,1-2.24-.82A33.6,33.6,0,0,0,367.43,527a35.56,35.56,0,0,0-27,6.89c-7.85,5.89-12.47,13.84-14.35,23.43a2.49,2.49,0,0,1-1.18,1.82,22.89,22.89,0,0,0-3.11,2.36c-4.94,4.44-8.32,9.76-9.12,16.49-.16,1.31-.14,2.65-.21,4.06l-1.88-.21a30.88,30.88,0,0,1-26.1-22.13c-.46-1.64-.75-3.33-1.12-5V549c.08-.24.18-.48.24-.73A58.63,58.63,0,0,1,285.4,542,33.41,33.41,0,0,1,298,526.73a2.83,2.83,0,0,0,1.2-1.51,45.69,45.69,0,0,1,8.1-19.06,42,42,0,0,1,29.72-17.41C338.63,488.56,340.21,488.44,341.8,488.29Z"/><path class="cls-137" d="M380,606.42c-12.34,0-24.68.27-37-.08a22.42,22.42,0,0,1-21.37-19.82c-1-8.51,2.84-14.9,9.23-20a7.56,7.56,0,0,0,2.84-4.34c3.5-13.06,11.62-21.64,25-24.51a29.24,29.24,0,0,1,25.09,5.86,3.58,3.58,0,0,0,2.86,1,24.19,24.19,0,0,1,24.43,12.69,17.79,17.79,0,0,1,1.32,3,1.4,1.4,0,0,0,1.7,1.15,24.16,24.16,0,0,1,20.24,8.4,21.1,21.1,0,0,1-1.72,30,25,25,0,0,1-17.36,6.66c-11.76,0-23.53,0-35.29,0Z"/><path class="cls-133" d="M406.16,571.1c-.14-1.13-.3-2.34-.42-3.55a16.15,16.15,0,0,0-5-10.65c-4.61-4.3-10.12-5.1-16-3.82a3.13,3.13,0,0,1-3.33-.86A23.11,23.11,0,0,0,344.45,557a27.26,27.26,0,0,0-3.62,11.62,2.38,2.38,0,0,1-1.33,2.13,30.29,30.29,0,0,0-5.59,3.94,12.37,12.37,0,0,0-4.32,9.43,14.62,14.62,0,0,0,14.85,14.14q35.57,0,71.15,0a16.18,16.18,0,0,0,11.54-4.61c3.5-3.35,5.22-7.41,4.21-12.34-1.41-6.85-8.93-12.45-16.79-11.77-2.76.24-5.48,1-8.39,1.54Z"/></g></g></g></svg>