<?xml version="1.0" encoding="UTF-8"?>
<svg width="64px" height="64px" viewBox="0 0 64 64" version="1.1" xmlns="http://www.w3.org/2000/svg" xmlns:xlink="http://www.w3.org/1999/xlink">
    <!-- Generator: Sketch 55.2 (78181) - https://sketchapp.com -->
    <title>logo-cloud-in-kubernetes-64-color</title>
    <desc>Created with Sketch.</desc>
    <defs>
        <polygon id="path-1" points="0 7.97297297e-05 58.6045405 7.97297297e-05 58.6045405 57.2484176 0 57.2484176"></polygon>
    </defs>
    <g id="logo-cloud-in-kubernetes-64-color" stroke="none" stroke-width="1" fill="none" fill-rule="evenodd">
        <g id="Group-3" transform="translate(2.500000, 2.000000)">
            <mask id="mask-2" fill="white">
                <use xlink:href="#path-1"></use>
            </mask>
            <g id="Clip-2"></g>
            <path d="M44.0996297,38.7701757 C41.1001973,43.8816486 35.5518054,47.3156081 29.1981432,47.3156081 C19.660873,47.3156081 11.9286838,39.5842162 11.9286838,30.0469459 C11.9286838,20.5096757 19.660873,12.7774865 29.1981432,12.7774865 C35.6450892,12.7774865 41.2636432,16.3135 44.2303865,21.5501486 C44.6146838,22.0923108 44.9894135,22.9087432 45.3210892,23.8615135 C45.8784,25.3141892 46.2459541,26.8601486 46.3918595,28.4706892 C46.5250081,29.5526216 46.5481297,30.5309054 46.4213595,31.232527 C46.2969811,33.0710946 45.8847784,34.8291351 45.2294,36.4643919 C45.060373,37.0982432 44.6521568,37.9059054 44.0996297,38.7701757 M58.1472108,35.1990811 C57.8330757,34.8514595 57.4360216,34.6290135 56.9847514,34.5429054 C56.4792649,34.4464324 55.9650081,34.3858378 55.4515486,34.3467703 C54.4365892,34.2702297 53.4264135,34.1721622 52.4337784,33.9337703 C52.0765892,33.8476622 51.7784,33.6921892 51.5543595,33.3828378 C51.4586838,33.2512838 51.2872649,33.1675676 51.1381703,33.0814595 C51.0177784,33.0112973 50.8798459,32.9714324 50.7435081,32.9148243 C51.3534405,27.5553919 50.2292514,22.6193243 47.3334676,18.0986486 C47.5415622,17.7988649 47.8812108,17.6274459 47.892373,17.2399595 C47.9011432,16.9098784 48.0869135,16.6643108 48.334873,16.4665811 C48.6131297,16.2457297 48.8842108,16.0121216 49.1816027,15.8215676 C49.8744541,15.377473 50.5896297,14.9676622 51.2816838,14.521973 C51.7138189,14.2437162 52.1371838,13.945527 52.5334405,13.6194324 C52.8962108,13.3196486 53.0604541,12.8922973 53.1194541,12.4290676 C53.2215081,11.6102432 52.655427,10.8400541 51.8445757,10.6925541 C51.3470622,10.6024595 50.8583189,10.6502973 50.4556838,10.9572568 C49.9964405,11.3080676 49.5714811,11.7059189 49.1529,12.1053649 C48.393873,12.8277162 47.6571703,13.5747838 46.8949541,14.2955405 C46.5951703,14.5785811 46.2220351,14.7683378 45.7962784,14.7093378 C45.5443324,14.6734595 45.3601568,14.7476081 45.1688054,14.8791622 C45.0803054,14.9389595 44.9766568,14.9756351 44.8714135,15.0266622 C41.0866432,11.2219595 36.5420486,9.02460811 31.2719135,8.46968919 C31.1786297,8.15236486 31.1770351,7.84221622 31.0223595,7.68116216 C30.6332784,7.27852703 30.5320216,6.81848649 30.5830486,6.30263514 C30.6866973,5.25977027 30.7991162,4.2177027 30.9226973,3.17722973 C30.9904676,2.59998649 31.0893324,2.02752703 30.972927,1.44390541 C30.8110757,0.630662162 30.2091162,0.0605945946 29.4309541,0.00398648649 C28.5682784,-0.0574054054 27.8403459,0.534189189 27.6354405,1.44310811 C27.4959135,2.05941892 27.5947784,2.66456757 27.6872649,3.26971622 C27.8586838,4.38672973 28.0309,5.50294595 28.0125622,6.63909459 C28.0069811,6.99548649 27.8985486,7.29287838 27.6649405,7.56555405 C27.5461432,7.70428378 27.4831568,7.89324324 27.4106027,8.06545946 C27.3627649,8.18106757 27.3428324,8.30783784 27.3029676,8.46012162 C21.9634676,9.04294595 17.3829946,11.1956486 13.6285216,15.0673243 C13.3056162,14.9317838 13.1070892,14.6798378 12.7722243,14.7428243 C12.4349676,14.8066081 12.1296027,14.6854189 11.8768595,14.462973 C11.3315081,13.983 10.781373,13.5086081 10.2607378,13.0047162 C9.77279189,12.5335135 9.32391351,12.0232432 8.85271081,11.5352973 C8.46283243,11.1310676 8.0004,10.8464324 7.44468378,10.730027 C6.20807568,10.4717027 5.19072432,11.556027 5.51761622,12.7774865 C5.66352162,13.3244324 6.02230541,13.7151081 6.46480541,14.0244595 C6.88737297,14.3194595 7.3506027,14.5538649 7.78194054,14.8369054 C8.5911973,15.3679054 9.39567027,15.9068784 10.1897784,16.4586081 C10.4911568,16.6667027 10.6697514,16.9593108 10.7080216,17.3483919 C10.7255622,17.5222027 10.8626973,17.6864459 10.9599676,17.8475 C11.0157784,17.9407838 11.0986973,18.0189189 11.1967649,18.1361216 C9.77917027,20.3294865 8.77776486,22.6942703 8.21088649,25.2392432 C7.64480541,27.781027 7.52361622,30.3459324 7.88798108,32.9395405 C7.69902162,33.0065135 7.55949459,33.0423919 7.43112973,33.1029865 C7.31711622,33.1564054 7.16881892,33.2106216 7.11779189,33.3078919 C6.84352162,33.8317162 6.36434595,33.9935676 5.83892703,34.0613378 C4.78330541,34.1968784 3.72688649,34.3244459 2.66887297,34.434473 C2.03980541,34.4998514 1.40834595,34.5500811 0.855818919,34.890527 C0.239508108,35.2700405 -0.0698432432,35.8273514 0.0130756757,36.5616622 C0.0904135135,37.2417568 0.495440541,37.6890405 1.12291351,37.8971351 C1.41791351,37.9944054 1.77111622,38.0430405 2.06930541,37.9792568 C2.68083243,37.8492973 3.27481892,37.6356216 3.8711973,37.4418784 C4.77612973,37.148473 5.67707568,36.8439054 6.57881892,36.5433243 C7.01733243,36.3974189 7.42634595,36.4340946 7.83217027,36.6756757 C7.96930541,36.757 8.16942703,36.7777297 8.33367027,36.7601892 C8.76022432,36.7163378 8.76261622,36.7003919 8.9141027,37.1245541 C10.6298865,41.9035541 13.6540351,45.6293243 17.9307378,48.3520946 C18.0359811,48.4190676 18.1300622,48.5035811 18.2496568,48.594473 C18.0391703,48.9963108 17.9865486,49.3845946 18.1189,49.8159324 C18.1771027,50.0056892 18.1045486,50.2703919 18.0128595,50.4641351 C17.7736703,50.9752027 17.5161432,51.4814865 17.2219405,51.9614595 C16.8344541,52.5937162 16.3791973,53.1869054 16.0004811,53.8231486 C15.7461432,54.2489054 15.4981838,54.7025676 15.3809811,55.1769595 C15.0931568,56.3410135 15.9845351,57.3535811 17.1485892,57.2403649 C17.7513459,57.1805676 18.228927,56.8672297 18.5127649,56.3442027 C18.7655081,55.8801757 18.9672243,55.3810676 19.1290757,54.877973 C19.4727108,53.8008243 19.8011973,52.7212838 20.3034946,51.7023378 C20.4693324,51.3658784 20.6957649,51.1059595 21.0513595,50.9887568 C21.2857649,50.9106216 21.4340622,50.7655135 21.5424946,50.5558243 C21.5927243,50.4585541 21.6684676,50.3732432 21.7641432,50.2400946 C24.1903189,51.1458243 26.7057919,51.5970946 29.2906297,51.603473 C31.8938054,51.6106486 34.424427,51.1545946 36.8753189,50.2672027 C37.1121162,50.496027 37.167927,50.8444459 37.5107649,50.9417162 C37.9078189,51.0549324 38.1701297,51.3395676 38.3152378,51.7230676 C38.6652514,52.6423514 39.0160622,53.5608378 39.3557108,54.4833108 C39.5000216,54.877973 39.5980892,55.2877838 39.7527649,55.6776622 C39.8643865,55.9599054 40.0047108,56.2413514 40.1833054,56.4861216 C40.6871973,57.178973 41.5913324,57.4062027 42.3415892,57.0561892 C43.0304541,56.7348784 43.3956162,55.9718649 43.1962919,55.1418784 C43.0998189,54.7400405 42.9291973,54.346973 42.7338595,53.9810135 C42.5289541,53.5983108 42.2379405,53.2634459 42.0146973,52.8903108 C41.5323324,52.089027 41.0595351,51.2821622 40.6082649,50.4633378 C40.5062108,50.2767703 40.4392378,50.0168514 40.4814946,49.8167297 C40.5699946,49.3981486 40.619427,48.9995 40.383427,48.6032432 C44.9973865,45.7568919 48.1387378,41.7863514 49.8736568,36.7330811 C50.2188865,36.6828514 50.5266432,36.8550676 50.8080892,36.6126892 C51.0831568,36.3766892 51.4267919,36.3663243 51.7736162,36.4612027 C52.2870757,36.601527 52.8101027,36.7099595 53.3131973,36.8805811 C53.9845216,37.1078108 54.6414946,37.3812838 55.3040486,37.6356216 C55.8653459,37.8500946 56.4354135,38.0310811 57.0477378,37.9672973 C57.7079,37.8971351 58.2109946,37.5774189 58.4677243,36.9515405 C58.7292378,36.3097162 58.614427,35.716527 58.1472108,35.1990811" id="Fill-1" fill="#C8C8C8" mask="url(#mask-2)"></path>
        </g>
        <g id="logo-cloud-64x64-color" transform="translate(20.064961, 20.580831)">
            <path d="M16.4566372,15.7374028 C15.7951714,15.4571132 15.0328189,15.5128202 14.4279374,15.8996988 C13.6813759,16.3769367 12.7948889,16.6545944 11.8430449,16.6545944 C10.8912009,16.6545944 10.0051525,16.3769367 9.25859102,15.8996988 C8.65370951,15.5128202 7.89135703,15.4571132 7.22989124,15.7374028 C5.40910578,16.5089667 3.82123697,17.7235547 2.60094664,19.2451892 C4.77176507,21.9515844 8.10409636,23.6863968 11.8430449,23.6863968 C15.582432,23.6863968 18.9147633,21.9515844 21.0855818,19.2451892 C19.8652914,17.7235547 18.276984,16.5089667 16.4566372,15.7374028" id="Fill-1" fill="#1BA9F5"></path>
            <path d="M16.4566372,15.7374028 C15.7951714,15.4571132 15.0328189,15.5128202 14.4279374,15.8996988 C13.6813759,16.3769367 12.7948889,16.6545944 11.8430449,16.6545944 C10.8912009,16.6545944 10.0051525,16.3769367 9.25859102,15.8996988 C8.65370951,15.5128202 7.89135703,15.4571132 7.22989124,15.7374028 C5.40910578,16.5089667 3.82123697,17.7235547 2.60094664,19.2451892 C4.77176507,21.9515844 8.10409636,23.6863968 11.8430449,23.6863968 C15.582432,23.6863968 18.9147633,21.9515844 21.0855818,19.2451892 C19.8652914,17.7235547 18.276984,16.5089667 16.4566372,15.7374028" id="Fill-4" fill="#00BFB3"></path>
            <path d="M11.8432203,0 C8.10427181,0 4.77194052,1.73481246 2.6011221,4.44120763 C3.82141243,5.96284212 5.40928123,7.17743016 7.22962806,7.94899404 C7.89109385,8.22928358 8.65388497,8.17357659 9.25832784,7.78669805 C10.005328,7.30946014 10.8913763,7.03180242 11.8432203,7.03180242 C12.7950643,7.03180242 13.6811127,7.30946014 14.4281128,7.78669805 C15.0325557,8.17357659 15.7953468,8.22928358 16.4568126,7.94899404 C18.2771594,7.17743016 19.8650282,5.96284212 21.0853186,4.44120763 C18.9145002,1.73481246 15.5821689,0 11.8432203,0" id="Fill-7" fill="#0077CC"></path>
            <path d="M7.22980352,7.9490379 C5.40945669,7.17747403 3.82114925,5.96288599 2.60085891,4.44125149 C2.60085891,4.44081285 2.60129755,4.44081285 2.60129755,4.44037422 C0.97395135,6.46775808 0.000175455116,9.041246 0.000175455116,11.8432642 C0.000175455116,13.8254684 0.489695229,15.6927495 1.35074121,17.3341321 C2.73639799,15.7747747 4.45848996,14.5299207 6.37402119,13.7180021 C6.6771199,13.5899199 6.99030728,13.4999991 7.31007423,13.4420989 C7.13286456,12.9411746 7.03197787,12.4047206 7.03197787,11.8432642 C7.03197787,10.063272 8.00092875,8.5131261 9.43746751,7.68103021 C9.37737414,7.7156826 9.31684212,7.74945771 9.2585033,7.78674192 C8.65362178,8.17362045 7.8912693,8.22932745 7.22980352,7.9490379" id="Fill-9" fill="#343741"></path>
        </g>
    </g>
</svg>